<?xml version="1.0" standalone="no"?>
<!DOCTYPE svg PUBLIC "-//W3C//DTD SVG 20010904//EN"
 "http://www.w3.org/TR/2001/REC-SVG-20010904/DTD/svg10.dtd">
<svg version="1.0" xmlns="http://www.w3.org/2000/svg"
 width="850.000000pt" height="567.000000pt" viewBox="0 0 850.000000 567.000000"
 preserveAspectRatio="xMidYMid meet">

<g transform="translate(0.000000,567.000000) scale(0.100000,-0.100000)"
fill="#000000" stroke="none">
<path d="M0 4215 c0 -800 3 -1455 6 -1455 4 0 12 7 19 16 10 15 13 15 28 -1 9
-9 17 -12 17 -6 0 5 -4 13 -10 16 -16 10 -11 21 10 22 13 1 18 -2 14 -9 -5 -7
-2 -8 5 -4 7 5 10 14 7 21 -3 8 4 17 15 20 10 4 17 11 14 16 -3 5 0 7 7 4 7
-3 27 8 45 24 24 22 29 31 20 40 -9 9 -8 11 4 6 11 -4 30 10 60 45 24 28 44
55 44 61 0 15 47 49 68 49 20 0 22 11 5 30 -11 12 -10 12 2 3 12 -9 21 -6 43
13 15 13 23 24 18 24 -15 0 -14 30 2 32 6 0 17 2 22 2 17 2 35 17 35 29 0 6
-7 2 -15 -9 -13 -17 -14 -17 -15 -2 0 19 35 42 54 35 8 -3 11 6 9 32 -3 32 -2
34 7 12 12 -28 19 -24 26 15 7 36 11 41 27 25 9 -11 9 -14 -1 -18 -6 -3 -12
-9 -12 -15 0 -6 6 -6 15 2 8 7 15 24 15 39 0 14 7 35 15 45 8 11 15 15 15 10
0 -6 -6 -16 -13 -23 -10 -12 -8 -13 8 -7 20 6 20 6 1 -9 -11 -8 -15 -15 -10
-15 6 0 20 11 32 25 12 14 17 25 12 25 -6 0 -10 9 -10 21 0 15 5 19 15 15 10
-4 15 1 15 14 0 11 5 20 11 20 5 0 7 5 4 10 -3 6 -2 10 4 10 19 0 23 -21 5
-34 -13 -10 -14 -15 -4 -21 9 -5 11 -4 6 3 -4 7 -2 12 5 12 6 0 22 11 35 25
13 14 27 25 33 25 5 0 13 9 16 20 4 11 10 18 14 16 4 -3 8 1 8 10 0 9 -7 12
-19 8 -12 -4 -18 0 -18 11 0 9 5 13 10 10 6 -3 18 1 27 10 14 14 14 18 2 26
-11 7 -9 9 9 9 23 0 30 -14 12 -25 -5 -3 -10 -13 -10 -21 0 -11 5 -9 22 5 13
11 33 29 46 40 13 11 24 23 25 28 1 4 9 8 17 8 8 0 16 10 18 23 2 15 -2 22
-14 22 -14 0 -14 -2 -3 -16 11 -13 10 -15 -3 -12 -9 1 -28 -10 -42 -27 -20
-23 -26 -26 -26 -12 0 9 5 17 10 17 6 0 10 7 10 15 0 8 6 15 14 15 8 0 13 8
12 17 -4 25 19 44 41 36 15 -6 16 -4 5 9 -10 13 -9 15 13 11 21 -5 22 -7 10
-20 -8 -8 -15 -19 -15 -25 0 -6 1 -9 3 -7 1 2 13 16 26 31 l24 28 -24 10 c-21
9 -18 10 19 7 32 -2 41 1 37 11 -2 7 5 17 18 22 12 5 18 9 13 9 -6 1 -1 8 10
16 13 10 15 14 5 15 -8 0 -22 -7 -32 -16 -17 -15 -18 -15 -16 5 1 14 10 22 32
27 16 3 36 11 43 16 8 7 12 6 13 -3 1 -8 4 -3 8 11 4 14 13 24 19 23 7 -2 9 4
5 14 -4 9 1 21 11 29 10 6 17 16 16 21 -1 4 7 9 17 11 10 2 14 0 8 -5 -18 -14
-48 -53 -42 -53 4 0 20 14 37 30 17 17 26 30 20 30 -5 0 -10 7 -10 15 0 8 7
15 16 15 9 0 12 -5 8 -12 -4 -7 1 -6 12 3 10 9 26 19 34 22 11 4 9 6 -5 6 -17
1 -17 3 -5 11 8 5 44 10 80 10 62 0 66 2 83 31 9 17 17 38 17 47 0 15 2 15 10
2 8 -13 10 -12 10 3 0 9 4 17 9 17 5 0 12 14 16 30 4 17 11 30 16 30 6 0 7 -5
3 -12 -4 -7 -3 -8 5 -4 6 4 9 12 6 17 -4 5 1 9 9 9 9 0 16 5 16 10 0 6 63 10
169 10 l168 0 34 -87 c18 -49 37 -91 42 -94 5 -3 24 -5 43 -3 30 2 32 1 19
-13 -33 -32 -7 -91 35 -80 11 3 31 -4 47 -16 16 -11 29 -22 31 -23 1 -1 -3
-23 -10 -49 -15 -54 -46 -75 -84 -55 -47 26 -82 -28 -54 -81 13 -23 52 -25 70
-4 7 8 25 15 40 15 23 0 33 -9 54 -45 15 -24 36 -49 46 -55 19 -10 19 -12 4
-43 -9 -18 -23 -36 -30 -40 -30 -17 -34 -44 -13 -71 34 -43 99 -26 86 23 -3
12 5 33 19 52 21 28 30 33 70 34 41 0 47 -3 65 -32 12 -19 18 -41 14 -52 -13
-43 56 -69 88 -33 23 26 21 49 -6 67 -13 8 -29 31 -34 50 -10 30 -9 37 6 48
10 6 28 26 41 44 22 30 26 32 69 26 25 -3 50 -10 56 -14 13 -13 49 -11 63 3
15 15 15 61 0 76 -14 14 -54 16 -62 3 -3 -4 -23 -4 -45 2 -36 10 -39 13 -45
55 -3 24 -13 57 -23 72 -16 28 -16 29 8 49 13 11 31 20 40 21 39 0 41 17 40
376 l-2 346 93 -115 c51 -63 156 -193 234 -288 77 -96 145 -183 151 -194 6
-11 13 -92 17 -180 l6 -160 -226 -160 c-125 -88 -239 -175 -255 -194 -103
-125 -62 -313 83 -385 29 -14 67 -26 86 -26 l35 0 -7 -92 c-37 -527 -50 -1162
-27 -1338 25 -186 53 -216 229 -250 426 -81 1973 -77 2449 6 162 28 196 57
223 189 32 156 15 1057 -26 1433 -5 51 -5 52 22 52 81 0 168 58 209 141 31 61
34 154 6 214 -24 53 -68 90 -301 254 -107 76 -291 206 -409 289 l-213 152 106
0 106 0 0 92 0 92 24 -33 c13 -18 32 -38 41 -45 21 -15 7 -57 -32 -90 -24 -21
-26 -26 -15 -50 22 -50 92 -43 92 10 0 23 2 24 83 24 l83 0 -1 -27 c0 -38 45
-55 75 -28 20 18 27 59 12 69 -5 3 -4 40 2 83 11 78 11 78 43 81 18 2 49 -5
69 -14 38 -18 58 -14 78 18 16 26 -8 68 -38 68 -14 0 -27 -4 -30 -9 -4 -5 -23
-5 -46 1 -37 10 -40 13 -40 47 0 73 13 141 26 141 19 0 43 39 37 59 -3 9 -12
21 -20 28 -11 9 -13 21 -6 52 8 41 10 37 133 -261 l126 -303 59 -3 60 -2 105
242 c57 134 117 272 134 308 l29 65 17 -130 c9 -71 28 -210 40 -307 l24 -178
143 0 c81 0 143 4 143 9 0 5 -36 242 -80 527 -44 284 -80 521 -80 525 0 5 -66
9 -147 9 l-148 0 -115 -280 c-63 -154 -117 -279 -120 -280 -3 0 -54 126 -115
280 l-110 280 -142 0 c-140 0 -143 0 -148 -22 -3 -13 -20 -110 -38 -215 -31
-177 -36 -194 -60 -214 -27 -21 -35 -53 -17 -64 6 -3 10 -23 10 -45 0 -33 -5
-41 -37 -60 -35 -21 -41 -21 -78 -9 l-40 14 -3 103 -3 102 -159 0 -160 0 0 85
0 85 170 0 170 0 0 120 0 120 -315 0 -315 0 0 -385 c0 -428 5 -400 -62 -343
l-27 23 15 55 c20 72 13 204 -15 285 -36 102 -132 225 -213 273 -21 12 -26 21
-22 39 7 28 -19 63 -47 63 -10 0 -24 -9 -32 -20 -14 -20 -15 -20 -83 -3 -38
10 -71 19 -74 21 -2 1 1 12 8 23 25 40 -11 79 -57 64 -24 -7 -37 -43 -22 -58
22 -22 10 -27 -62 -27 -41 0 -135 -3 -210 -7 l-137 -6 0 -254 0 -253 -50 0
-50 0 0 253 0 254 -142 6 c-78 3 -145 4 -149 2 -4 -3 -5 -121 -2 -264 l6 -258
-54 -5 c-30 -3 -54 -5 -55 -4 0 0 -63 79 -138 173 -129 162 -164 218 -132 211
18 -4 215 94 215 107 1 6 15 19 32 29 18 10 40 27 50 37 17 17 39 24 63 20 5
-1 3 5 -4 14 -11 13 -10 15 3 10 8 -4 18 -2 22 4 3 6 15 11 25 11 11 0 27 8
37 18 10 10 34 25 53 32 19 8 39 20 43 27 4 7 13 13 18 13 14 0 39 26 39 39 0
6 4 11 10 11 5 0 7 6 4 13 -3 8 2 20 11 27 8 7 15 18 15 25 0 8 5 15 11 17 6
2 12 18 12 35 1 17 5 29 8 27 4 -2 9 3 13 11 3 8 1 15 -5 15 -6 0 -8 4 -5 9 4
5 1 22 -5 37 -7 20 -7 30 0 32 6 2 11 11 11 20 0 15 -2 15 -10 2 -7 -11 -8 -6
-4 18 l6 32 -1731 0 -1731 0 0 -1455z m4028 958 c-2 -10 -10 -18 -18 -18 -8 0
-16 8 -18 18 -2 12 3 17 18 17 15 0 20 -5 18 -17z m-8 -43 c0 -5 -5 -10 -11
-10 -5 0 -7 5 -4 10 3 6 8 10 11 10 2 0 4 -4 4 -10z m230 -45 c0 -19 -13 -25
-29 -15 -19 11 -6 41 14 34 8 -3 15 -12 15 -19z m-166 -240 c79 -39 87 -52 51
-81 -28 -22 -29 -25 -16 -59 17 -49 6 -57 -15 -11 -17 35 -20 36 -70 36 -51 0
-54 -1 -82 -42 -15 -24 -26 -51 -24 -60 2 -11 -2 -18 -12 -18 -22 0 -31 21
-14 34 8 6 25 30 36 53 l22 42 -28 19 c-26 19 -72 92 -72 114 0 7 29 9 84 6
64 -4 98 -12 140 -33z m-166 -140 c-6 -11 -22 -30 -35 -42 l-23 -22 0 79 0 80
34 -37 c29 -32 32 -41 24 -58z m292 11 c22 -49 34 -134 26 -173 -5 -21 -17
-32 -49 -46 -24 -9 -102 -60 -175 -112 -73 -52 -137 -95 -142 -95 -6 0 -10 64
-10 167 0 135 2 164 13 151 29 -38 80 -28 82 15 1 14 9 37 18 51 14 21 25 26
57 26 45 0 70 -26 70 -72 0 -40 41 -59 70 -33 25 23 26 50 1 67 -29 21 -37 65
-16 88 22 24 33 18 55 -34z m-1870 -275 l0 -249 -25 -16 c-25 -17 -34 -59 -15
-71 12 -7 13 -65 2 -80 -4 -6 -23 -20 -42 -31 -34 -20 -37 -20 -73 -4 -21 10
-45 27 -53 39 l-15 21 90 0 c50 0 91 2 91 4 0 3 -39 104 -86 226 -47 122 -87
228 -88 236 -1 7 -5 17 -9 20 -12 12 -8 26 6 21 15 -5 39 18 29 29 -4 4 -1 4
6 0 8 -5 21 -1 33 10 10 9 19 14 19 11 0 -8 24 12 77 61 19 18 39 30 44 27 5
-4 9 -114 9 -254z m1820 199 c11 -7 12 -12 3 -21 -16 -16 -44 -4 -37 16 7 17
13 18 34 5z m1227 -12 c-3 -8 -6 -5 -6 6 -1 11 2 17 5 13 3 -3 4 -12 1 -19z
m-2219 -135 c-3 -25 -4 -25 -41 23 l-39 49 39 5 c36 5 38 3 41 -23 2 -15 2
-39 0 -54z m392 -43 l0 -130 -50 0 -50 0 0 130 0 130 50 0 50 0 0 -130z m2110
74 c0 -8 -4 -14 -10 -14 -5 0 -10 9 -10 21 0 11 5 17 10 14 6 -3 10 -13 10
-21z m-308 -66 c-2 -18 -8 -38 -13 -44 -5 -6 -8 -22 -7 -35 2 -32 -24 -182
-33 -192 -7 -9 -59 60 -59 79 0 6 -10 16 -22 22 -17 8 -19 11 -6 11 10 1 19
13 23 34 3 17 11 45 17 60 7 18 8 31 2 35 -67 46 -72 67 -8 34 l37 -19 35 23
c19 13 36 24 37 24 1 0 0 -15 -3 -32z m-1142 17 c0 -19 -44 -87 -74 -112 -43
-38 -138 -75 -184 -71 -33 3 -31 6 99 96 118 82 159 104 159 87z m915 -15 c3
-5 16 -9 28 -8 30 3 78 -33 71 -52 -3 -8 -8 -29 -11 -47 -6 -35 -31 -47 -80
-37 -20 4 -33 1 -42 -10 -11 -13 -34 -16 -112 -16 l-99 0 0 90 0 90 119 0 c68
0 122 -4 126 -10z m-560 -126 c25 -16 25 -18 25 -150 l0 -134 186 0 186 0 407
-288 c223 -159 427 -303 453 -320 87 -59 123 -157 94 -255 -33 -112 -149 -183
-263 -159 -57 12 -151 69 -151 92 0 25 -29 94 -41 98 -16 5 -14 -24 4 -58 9
-17 13 -30 10 -30 -15 0 -55 34 -55 47 0 8 -7 21 -15 29 -8 9 -18 27 -21 42
-11 50 -14 56 -25 45 -7 -7 -7 -22 0 -49 6 -21 9 -39 8 -40 -1 -1 -37 23 -80
55 -62 44 -84 68 -103 106 -13 28 -24 60 -24 73 0 12 -4 22 -10 22 -13 0 -13
-51 0 -85 l10 -26 -30 21 c-21 15 -34 37 -46 78 -20 70 -32 94 -44 87 -5 -3
-3 -24 6 -47 21 -61 19 -72 -11 -52 -14 9 -25 22 -25 29 0 20 -62 155 -71 155
-15 0 -10 -22 16 -79 14 -30 24 -55 22 -57 -2 -2 -18 7 -37 21 -35 26 -60 73
-86 161 -21 72 -39 83 -29 18 4 -27 13 -64 21 -83 8 -19 13 -36 11 -38 -2 -2
-22 14 -44 35 -41 40 -63 97 -63 161 0 22 -5 31 -16 31 -17 0 -17 -23 2 -109
6 -31 6 -33 -13 -23 -53 29 -79 67 -97 145 -11 48 -23 77 -31 77 -11 0 -11
-11 1 -61 8 -34 17 -65 20 -70 10 -17 -8 -9 -52 22 -42 31 -54 53 -69 127 -11
54 -28 38 -21 -19 l7 -50 -44 33 c-40 30 -46 40 -58 96 -7 35 -16 65 -20 68
-16 9 -20 -17 -9 -57 6 -22 10 -43 7 -45 -2 -2 -22 10 -45 27 l-42 31 -29 -21
c-16 -12 -32 -21 -35 -21 -3 0 -3 20 1 45 3 28 2 45 -4 45 -13 0 -23 -34 -23
-77 0 -25 -9 -38 -40 -63 -46 -36 -47 -34 -20 38 21 55 27 103 11 87 -9 -10
-59 -136 -65 -164 -2 -13 -157 -133 -164 -127 -2 3 26 87 43 129 5 12 2 17 -9
17 -11 0 -24 -26 -43 -88 l-28 -89 -67 -46 c-36 -26 -68 -47 -71 -47 -2 0 2
26 9 57 7 31 11 60 8 65 -12 19 -23 -6 -35 -76 -11 -64 -16 -76 -41 -91 l-29
-17 7 54 c3 29 7 57 8 62 0 5 -4 10 -10 13 -7 2 -16 -25 -24 -75 -11 -70 -16
-83 -42 -102 -16 -12 -31 -20 -33 -18 -2 2 1 23 6 47 7 30 6 48 0 54 -13 13
-18 -1 -28 -72 -8 -51 -12 -57 -57 -90 -48 -34 -49 -35 -42 -11 3 14 9 47 13
74 5 39 3 48 -8 44 -8 -2 -15 -15 -17 -29 -1 -13 -7 -49 -13 -79 -10 -47 -17
-59 -51 -83 -22 -16 -42 -27 -43 -25 -2 2 1 25 7 51 5 26 7 54 4 62 -11 30
-23 13 -30 -42 -4 -32 -9 -66 -10 -77 -2 -18 -62 -75 -79 -76 -4 0 -4 25 -1
55 5 36 3 55 -4 55 -11 0 -21 -36 -24 -90 -2 -35 -13 -60 -28 -60 -5 0 -12 23
-17 50 -11 70 -29 59 -25 -16 4 -59 3 -61 -33 -88 -20 -15 -39 -26 -41 -23 -5
4 4 48 22 110 4 11 0 17 -10 17 -14 0 -37 -77 -40 -135 -1 -12 -18 -29 -46
-45 -114 -63 -264 -7 -317 117 -31 76 -7 188 54 245 16 16 222 165 459 333
l429 305 231 0 c256 0 335 12 437 67 70 38 170 134 214 205 40 65 28 63 108
12z m-1067 -81 c3 -40 1 -43 -22 -43 -24 0 -26 3 -26 46 0 41 2 45 23 42 18
-2 23 -10 25 -45z m52 2 c0 -25 -4 -45 -10 -45 -5 0 -10 10 -10 23 0 12 -3 32
-6 45 -5 16 -2 22 10 22 12 0 16 -10 16 -45z m2131 8 c16 -3 35 0 42 6 16 13
27 5 27 -21 0 -11 -7 -18 -20 -18 -11 0 -20 5 -20 10 0 6 -25 10 -55 10 -44 0
-55 3 -55 16 0 12 6 15 26 10 15 -4 39 -10 55 -13z m-4141 -43 c-8 -5 -19 -10
-25 -10 -5 0 -3 5 5 10 8 5 20 10 25 10 6 0 3 -5 -5 -10z m1973 -36 c34 -6 37
-9 37 -40 0 -30 -3 -34 -27 -34 -16 0 -38 -3 -50 -6 -21 -6 -23 -3 -23 40 0
50 0 50 63 40z m-1178 -41 c-2 -10 -4 -22 -4 -28 -1 -5 -8 -2 -17 7 -17 17
-12 38 11 38 7 0 12 -8 10 -17z m4 -60 c-5 -35 12 -83 29 -83 9 0 36 -9 58
-19 l42 -19 51 29 c35 20 49 34 45 44 -5 11 1 15 20 15 19 0 26 -5 26 -20 0
-14 -7 -20 -23 -20 -13 0 -38 -15 -57 -35 l-34 -35 18 -31 c10 -17 21 -54 25
-82 l6 -51 55 -14 c41 -10 59 -11 73 -2 32 19 53 -15 23 -39 -10 -9 -16 -8
-26 4 -9 10 -31 15 -76 15 -60 0 -64 -2 -79 -29 -8 -16 -27 -39 -41 -50 -21
-16 -25 -27 -21 -48 10 -51 26 -83 42 -83 20 0 19 -36 -1 -44 -23 -9 -36 3
-31 28 5 21 -43 113 -56 109 -4 -2 -31 -3 -59 -3 -52 0 -54 -1 -85 -47 -22
-32 -29 -50 -23 -58 12 -14 3 -25 -21 -25 -28 0 -34 21 -11 39 11 9 30 36 42
60 l22 43 -36 29 c-19 16 -43 48 -53 70 -17 40 -18 41 -61 36 -26 -3 -49 -12
-57 -23 -13 -17 -15 -18 -30 -3 -9 9 -13 23 -9 32 7 18 29 23 38 8 3 -4 26 -4
51 2 37 9 46 15 51 36 3 14 10 43 16 64 6 20 9 39 7 41 -42 36 -93 63 -110 59
-17 -5 -20 -2 -17 18 3 27 38 40 38 15 0 -9 24 -28 58 -45 l57 -29 53 30 c46
27 52 34 52 63 0 33 8 65 17 65 2 0 3 -8 2 -17z m1211 -11 c0 -8 -125 -102
-135 -102 -3 0 -5 18 -5 40 0 33 3 40 20 40 11 0 20 7 20 15 0 11 12 15 50 15
28 0 50 -4 50 -8z m-168 -65 c3 -23 3 -44 1 -47 -3 -3 -55 -7 -117 -8 l-113
-4 -7 32 c-15 78 -20 75 113 72 l119 -3 4 -42z m-842 34 c0 -5 -15 -18 -33
-29 -32 -19 -36 -19 -85 -3 -80 25 -67 41 33 41 47 0 85 -4 85 -9z m2765 -11
c0 -22 -39 -19 -43 3 -3 15 1 18 20 15 12 -2 23 -10 23 -18z m263 3 c4 -16
-22 -27 -43 -19 -22 8 -6 38 18 34 11 -2 22 -9 25 -15z m-671 -529 c345 -245
631 -449 634 -453 9 -8 35 -391 50 -725 17 -375 4 -804 -25 -833 -11 -12 -166
-33 -336 -48 -723 -61 -2164 -29 -2229 49 -46 55 -41 856 9 1436 5 57 8 108 7
113 -1 6 1242 901 1260 906 1 1 284 -200 630 -445z m-1555 414 c-4 -4 -45 -34
-92 -67 -95 -68 -98 -68 -99 24 l-1 50 100 0 c54 0 96 -3 92 -7z m-2201 -25
c-12 -20 -14 -14 -5 12 4 9 9 14 11 11 3 -2 0 -13 -6 -23z m-361 -378 c0 -8
-7 -11 -19 -8 -16 4 -17 8 -8 18 14 15 27 10 27 -10z m-30 -46 c0 -5 -7 -9
-15 -9 -9 0 -12 6 -9 15 6 15 24 11 24 -6z m-333 -325 c-3 -3 -12 -4 -19 -1
-8 3 -5 6 6 6 11 1 17 -2 13 -5z m2563 -143 c0 -24 -9 -35 -51 -61 -28 -17
-53 -29 -55 -27 -3 2 -2 22 2 44 5 35 11 41 47 55 58 21 57 22 57 -11z m2613
-18 l-18 -27 -6 29 c-7 39 -2 47 22 35 18 -10 18 -12 2 -37z m-5333 12 c-7 -9
-15 -13 -17 -11 -7 7 7 26 19 26 6 0 6 -6 -2 -15z m5408 -30 c2 -23 -7 -41
-41 -80 l-44 -49 -7 36 c-6 31 -2 43 26 83 37 52 61 56 66 10z m-5444 0 c-4
-8 -8 -15 -10 -15 -2 0 -4 7 -4 15 0 8 4 15 10 15 5 0 7 -7 4 -15z m2746 -70
c0 -22 -5 -35 -13 -35 -7 0 -29 -11 -49 -25 -20 -14 -39 -25 -40 -25 -2 0 -2
15 0 33 3 26 13 40 45 60 23 15 45 27 49 27 4 0 8 -16 8 -35z m-2840 -15 c0
-5 -2 -10 -4 -10 -3 0 -8 5 -11 10 -3 6 -1 10 4 10 6 0 11 -4 11 -10z m5548
-21 c2 -25 -7 -40 -48 -82 -49 -52 -50 -52 -50 -24 0 28 23 69 63 115 27 29
32 28 35 -9z m-2712 -45 c-3 -9 -6 -23 -6 -32 0 -16 -46 -54 -82 -68 -15 -5
-18 0 -18 27 0 29 7 38 43 61 48 31 72 36 63 12z m2673 -177 l-49 -52 0 53 c0
49 4 58 43 102 l42 47 7 -49 c6 -49 5 -51 -43 -101z m-2679 58 c0 -32 -4 -37
-50 -60 -27 -14 -52 -25 -55 -25 -8 0 6 53 18 68 8 10 72 49 85 52 1 0 2 -16
2 -35z m2730 -84 c0 -32 -8 -47 -45 -88 l-44 -48 -1 41 c0 34 7 49 41 88 22
25 43 46 45 46 2 0 4 -18 4 -39z m-2740 -18 c0 -35 -4 -40 -50 -65 l-50 -28 0
35 c0 31 6 38 48 65 26 16 48 30 50 30 1 0 2 -17 2 -37z m2750 -111 c0 -41 -6
-54 -41 -97 -23 -28 -44 -51 -47 -52 -4 -2 -8 18 -10 45 -2 42 2 52 40 99 24
29 46 53 51 53 4 0 7 -21 7 -48z m-2750 4 c0 -30 -5 -37 -46 -60 -52 -29 -66
-26 -61 11 2 16 18 35 47 54 23 16 47 29 52 29 4 0 8 -15 8 -34z m-10 -135 l0
-59 -48 -31 c-27 -17 -51 -31 -53 -31 -2 0 -2 32 1 71 l5 70 40 19 c22 10 43
19 48 19 4 1 7 -26 7 -58z m2768 -14 c3 -51 1 -53 -48 -102 l-50 -49 0 48 c0
41 6 55 42 102 24 30 45 54 48 54 3 0 6 -24 8 -53z m-2774 -132 c-5 -39 -13
-51 -47 -76 -22 -16 -44 -29 -49 -29 -4 0 -8 21 -8 48 0 46 1 48 53 78 28 17
53 30 55 28 2 -1 0 -23 -4 -49z m2776 -1 c0 -29 -9 -45 -50 -87 l-50 -52 0 38
c0 21 6 45 13 53 35 44 73 84 80 84 4 0 7 -16 7 -36z m-42 -206 l-43 -52 -5
50 c-3 28 -1 51 5 54 6 3 26 21 45 41 l35 35 3 -38 c3 -33 -3 -46 -40 -90z
m-2759 -19 c-13 -9 -35 -24 -51 -33 l-28 -17 0 69 0 70 48 25 47 25 3 -61 c3
-54 0 -63 -19 -78z m2809 -5 c1 -29 -7 -47 -44 -93 -26 -31 -49 -57 -53 -59
-4 -1 -4 20 -1 47 4 39 13 58 45 94 22 25 43 46 46 46 3 1 6 -15 7 -35z
m-2792 -130 c-5 -12 -78 -64 -91 -64 -3 0 -5 26 -5 59 l0 58 48 30 47 29 3
-49 c2 -27 1 -56 -2 -63z m2789 -27 c-7 -61 -10 -68 -56 -113 l-49 -48 0 52
c0 48 4 58 52 117 28 36 53 63 56 61 2 -3 1 -34 -3 -69z m-2785 -65 c0 -46 -2
-50 -44 -80 l-44 -32 -6 45 c-4 25 -4 50 -1 55 7 12 76 59 88 59 4 1 7 -21 7
-47z m2777 -136 c-3 -6 -28 -24 -57 -40 l-53 -29 6 38 c5 28 20 52 54 87 l48
49 3 -47 c2 -25 1 -52 -1 -58z m-2769 13 c-2 -35 -10 -47 -40 -72 -21 -17 -40
-29 -42 -26 -2 2 -7 20 -11 40 -6 35 -4 38 37 67 23 17 47 31 51 32 5 0 7 -19
5 -41z m2762 -76 c0 -40 -30 -127 -51 -149 -12 -13 -24 -22 -26 -21 -1 2 6 28
16 58 11 29 17 57 15 61 -11 17 -23 7 -30 -24 -5 -26 -28 -86 -40 -106 -4 -6
-74 -20 -74 -16 0 3 11 22 25 43 14 20 35 57 48 82 14 29 36 52 62 66 48 27
55 28 55 6z m-2750 -15 c0 -13 7 -36 15 -52 14 -27 14 -30 -7 -44 -12 -9 -30
-24 -40 -34 -17 -17 -18 -16 -38 22 -27 53 -26 58 18 96 44 40 52 41 52 12z
m2590 -83 c0 -3 -16 -29 -36 -58 -32 -47 -40 -53 -80 -57 -24 -3 -44 -6 -44
-5 0 0 9 18 20 40 11 22 20 45 20 51 0 10 37 21 113 33 4 0 7 -1 7 -4z m-2420
-22 c3 -3 -15 -23 -38 -45 -39 -36 -47 -39 -79 -33 -19 3 -45 11 -58 17 -23
10 -23 11 18 44 39 31 46 33 97 27 30 -3 57 -8 60 -10z m2254 -53 c-24 -44
-30 -49 -68 -52 -22 -3 -42 -4 -43 -3 -1 0 9 23 22 50 21 45 28 51 62 55 21 3
41 4 46 2 4 -2 -4 -25 -19 -52z m-2159 40 c15 0 11 -9 -25 -45 -43 -44 -62
-51 -94 -39 -25 10 51 94 79 88 11 -2 29 -4 40 -4z m95 -9 c24 -7 24 -7 -18
-49 -34 -34 -49 -42 -78 -42 l-35 0 43 50 c44 52 46 53 88 41z m1960 -2 c0 -6
-10 -28 -21 -49 -20 -35 -25 -38 -81 -44 -33 -4 -61 -6 -63 -4 -1 2 11 27 27
56 l30 52 54 0 c33 0 54 -4 54 -11z m-1825 -8 c18 -7 15 -12 -25 -49 -38 -35
-52 -42 -87 -42 -24 0 -43 3 -43 6 0 3 17 25 38 49 38 46 68 55 117 36z m1675
2 c0 -3 -11 -26 -25 -50 -18 -30 -33 -43 -48 -43 -12 0 -39 -3 -60 -7 l-39 -6
22 44 c12 24 27 50 32 57 11 12 118 18 118 5z m-1490 -10 c0 -4 -19 -27 -42
-50 -41 -42 -44 -43 -105 -43 -35 0 -63 3 -63 6 0 4 17 26 38 49 36 42 38 43
105 44 37 1 67 -2 67 -6z m1177 -7 c-3 -8 -17 -33 -32 -55 -24 -40 -27 -41
-79 -41 l-54 0 27 50 c25 48 27 49 76 53 28 2 54 4 59 5 4 1 6 -4 3 -12z m138
-36 l-25 -50 -65 0 -66 0 17 33 c30 59 42 67 106 67 l58 0 -25 -50z m-1199 13
c-8 -16 -25 -38 -38 -50 -20 -19 -30 -21 -73 -15 l-50 8 45 42 c38 35 51 42
88 42 l43 0 -15 -27z m164 20 c0 -3 -15 -25 -32 -49 -32 -42 -35 -43 -90 -44
l-57 0 31 50 31 50 58 0 c33 0 59 -3 59 -7z m150 2 c0 -13 -52 -86 -64 -91 -7
-3 -36 -4 -65 -2 l-51 3 33 47 c32 47 32 47 90 48 31 0 57 -2 57 -5z m150 0
c0 -2 -10 -25 -22 -50 l-22 -45 -70 0 c-65 0 -68 1 -54 18 9 9 23 32 32 50 16
31 19 32 76 32 33 0 60 -2 60 -5z m160 -1 c0 -11 -23 -50 -43 -71 -17 -19 -31
-23 -79 -23 l-58 0 21 38 c34 60 37 62 100 62 33 0 59 -3 59 -6z m160 0 c0 -3
-14 -26 -32 -50 -31 -43 -32 -44 -90 -44 -58 0 -70 8 -44 29 8 6 19 25 26 41
12 29 15 30 76 30 35 0 64 -3 64 -6z m130 -1 c0 -3 -11 -26 -25 -50 -25 -42
-27 -43 -80 -43 l-54 0 31 50 c30 49 32 50 79 50 27 0 49 -3 49 -7z"/>
<path d="M3952 4858 c-19 -19 -14 -45 10 -62 28 -20 33 -20 52 0 21 20 20 30
-4 54 -23 23 -41 25 -58 8z m46 -36 c3 -9 -2 -13 -14 -10 -9 1 -19 9 -22 16
-3 9 2 13 14 10 9 -1 19 -9 22 -16z"/>
<path d="M3997 3913 c-3 -4 -7 -30 -8 -57 -5 -69 17 -73 24 -4 5 49 -4 81 -16
61z"/>
<path d="M3815 3765 c-3 -14 -7 -36 -10 -49 -3 -13 -8 -31 -11 -40 -4 -10 -1
-16 9 -16 18 0 24 15 33 80 4 34 3 50 -5 50 -6 0 -13 -11 -16 -25z"/>
<path d="M5240 3390 c0 -19 60 -130 70 -130 14 0 14 0 -20 74 -26 58 -50 85
-50 56z"/>
<path d="M2286 3909 c-17 -25 -12 -45 16 -60 44 -23 94 26 62 62 -23 25 -59
24 -78 -2z m62 -17 c5 -17 -27 -27 -41 -13 -9 9 -8 14 3 21 18 11 32 8 38 -8z"/>
<path d="M2408 3849 c-21 -12 -24 -59 -6 -77 7 -7 21 -12 33 -12 45 0 59 46
25 80 -23 23 -28 24 -52 9z m39 -35 c9 -23 -11 -38 -26 -20 -13 16 -7 36 10
36 5 0 12 -7 16 -16z"/>
<path d="M2272 3768 c-17 -17 -15 -42 6 -61 33 -30 82 -16 82 23 0 38 -62 64
-88 38z m58 -33 c0 -19 -13 -25 -29 -15 -19 11 -6 41 14 34 8 -3 15 -12 15
-19z"/>
<path d="M4152 3487 c-5 -6 -22 -37 -37 -67 -15 -30 -38 -69 -51 -87 -25 -34
-30 -53 -14 -53 22 0 137 205 121 214 -5 3 -13 0 -19 -7z"/>
<path d="M4176 3384 c-18 -45 -24 -70 -17 -77 7 -7 13 -2 19 14 5 13 17 41 26
63 18 42 20 66 8 66 -5 0 -21 -30 -36 -66z"/>
<path d="M4249 3403 c-14 -37 -17 -101 -4 -105 6 -2 13 15 16 37 3 22 9 52 14
68 5 18 3 27 -4 27 -6 0 -16 -12 -22 -27z"/>
<path d="M4796 3334 c-11 -29 -7 -46 10 -40 12 4 14 1 9 -14 -5 -14 -2 -20 9
-20 11 0 16 10 16 33 0 47 -31 75 -44 41z"/>
<path d="M3501 3198 c-5 -14 -13 -42 -16 -62 -6 -29 -4 -36 9 -36 10 0 16 9
16 24 0 14 5 37 10 52 7 18 7 31 1 37 -7 7 -13 2 -20 -15z"/>
<path d="M3510 3004 c-91 -24 -162 -64 -226 -128 -100 -101 -154 -222 -154
-344 0 -84 18 -147 78 -277 44 -94 47 -105 47 -185 0 -106 -6 -127 -51 -181
-21 -24 -45 -62 -55 -84 -31 -69 -38 -315 -10 -315 5 0 11 62 13 138 4 159 16
192 93 260 44 39 144 83 217 97 30 6 36 4 40 -13 5 -16 74 -72 158 -125 25
-16 27 -15 94 35 37 28 75 65 83 83 l16 33 61 -15 c138 -32 238 -99 282 -189
23 -48 28 -71 32 -175 3 -65 8 -119 13 -119 27 0 19 202 -12 286 -18 47 -98
144 -119 144 -5 0 -16 20 -25 45 -29 74 -17 170 34 279 81 174 96 263 66 381
-47 179 -191 323 -370 370 -74 19 -231 19 -305 -1z m245 -14 c220 -32 392
-212 418 -438 l5 -42 -28 30 c-15 16 -37 30 -49 30 -12 0 -21 6 -21 15 0 12
-13 15 -58 15 -107 0 -210 37 -308 110 l-51 39 -44 -45 c-69 -70 -134 -97
-247 -102 -65 -3 -95 -8 -99 -18 -2 -7 -18 -16 -34 -19 -83 -18 -69 -168 18
-204 19 -8 34 -26 47 -57 10 -25 33 -67 51 -92 17 -26 38 -60 46 -77 18 -38
68 -71 120 -80 33 -6 38 -9 28 -21 -6 -8 -23 -14 -38 -14 -37 0 -148 -33 -199
-59 l-43 -22 7 37 c4 21 7 67 7 103 1 55 -5 80 -37 151 -58 130 -83 200 -91
256 -25 185 124 412 315 479 92 33 178 40 285 25z m-53 -306 c71 -59 196 -104
290 -104 32 0 58 -4 58 -8 0 -4 -14 -16 -30 -26 -17 -9 -43 -39 -58 -65 -24
-42 -30 -46 -52 -40 -36 10 -408 10 -452 0 -35 -8 -36 -8 -54 32 -10 22 -36
53 -58 69 l-39 28 48 0 c101 0 223 49 285 115 13 14 25 25 28 25 2 0 18 -11
34 -26z m-364 -169 c42 -35 64 -83 49 -110 -6 -11 -11 -56 -11 -99 0 -75 0
-78 -15 -57 -9 13 -26 46 -37 75 -15 35 -28 52 -43 54 -33 5 -71 58 -71 101 0
20 5 42 12 49 21 21 84 14 116 -13z m798 0 c11 -17 14 -34 9 -52 -8 -35 -53
-83 -77 -83 -10 0 -21 -8 -24 -17 -10 -34 -58 -133 -63 -133 -3 0 -5 33 -3 74
2 42 -1 84 -8 95 -8 16 -6 29 9 60 41 79 123 108 157 56z m-215 -103 c33 -13
40 -56 29 -170 -16 -157 -30 -166 -260 -166 -255 0 -276 14 -286 201 -7 124
-3 131 91 143 89 11 392 5 426 -8z m205 -79 c-19 -43 -44 -100 -56 -128 -24
-52 -32 -149 -18 -210 l7 -31 -82 28 c-45 15 -93 28 -107 28 -35 0 -70 11 -70
21 0 4 21 11 48 15 67 9 81 19 104 72 12 26 34 66 50 89 15 23 37 63 48 88 11
27 29 49 42 54 13 5 32 18 42 30 11 11 20 21 22 21 2 0 -12 -35 -30 -77z
m-356 -317 c0 -40 19 -58 27 -27 7 27 23 27 23 1 0 -12 -25 -41 -67 -74 l-66
-55 -29 17 c-16 9 -54 37 -85 61 -42 33 -52 45 -42 52 19 12 29 11 27 -2 -2
-6 3 -14 10 -16 8 -3 12 8 12 36 l0 41 95 0 95 0 0 -34z"/>
<path d="M3485 2936 c-63 -20 -141 -76 -106 -76 5 0 14 6 20 14 24 28 113 58
158 53 49 -5 59 7 12 17 -38 7 -35 8 -84 -8z"/>
<path d="M3780 2913 c0 -5 21 -9 46 -10 57 -3 121 -38 151 -82 16 -24 23 -29
23 -16 0 27 -74 92 -117 104 -44 13 -103 14 -103 4z"/>
<path d="M3485 2879 c-43 -12 -138 -71 -143 -89 -3 -9 9 -4 32 13 64 49 124
71 198 70 37 0 65 4 62 8 -7 11 -110 10 -149 -2z"/>
<path d="M3790 2840 c0 -5 12 -10 28 -10 34 0 109 -34 140 -62 12 -12 22 -16
22 -10 0 18 -61 58 -113 76 -55 18 -77 20 -77 6z"/>
<path d="M3575 2827 c-46 -18 -135 -70 -214 -124 -2 -2 -2 -5 1 -9 3 -3 37 15
74 39 99 64 149 87 186 87 25 0 29 3 18 10 -19 12 -27 12 -65 -3z"/>
<path d="M3780 2767 c0 -3 24 -13 54 -21 30 -9 68 -27 84 -41 17 -14 33 -25
37 -25 16 0 -31 43 -65 60 -37 19 -110 37 -110 27z"/>
<path d="M3310 2194 c0 -6 7 -34 16 -64 9 -29 14 -68 12 -87 -5 -38 9 -45 18
-9 6 24 -22 143 -37 161 -6 5 -9 5 -9 -1z"/>
<path d="M3375 2090 c8 -16 15 -36 15 -45 0 -8 5 -15 10 -15 6 0 8 11 4 28 -9
37 -23 62 -35 62 -5 0 -3 -13 6 -30z"/>
<path d="M3578 2544 c-9 -9 -39 -19 -67 -22 -53 -5 -66 -16 -31 -27 42 -13
130 22 130 51 0 19 -12 18 -32 -2z"/>
<path d="M3750 2551 c0 -30 90 -69 130 -56 33 10 23 25 -17 25 -21 0 -53 9
-71 20 -37 23 -42 24 -42 11z"/>
<path d="M3244 2496 c-9 -23 4 -66 22 -73 24 -9 29 5 9 27 -9 10 -15 26 -12
34 4 9 2 18 -4 21 -5 4 -12 -1 -15 -9z"/>
<path d="M4096 2503 c-3 -3 -6 -17 -6 -29 0 -13 -4 -26 -10 -29 -14 -9 -12
-25 3 -25 14 0 37 40 37 65 0 16 -14 27 -24 18z"/>
<path d="M3565 2374 c-16 -2 -49 -7 -72 -10 -96 -12 -30 -19 187 -19 219 0
269 5 199 19 -41 8 -275 16 -314 10z"/>
<path d="M3530 2274 c-54 -7 -80 -14 -80 -22 0 -4 104 -7 230 -7 127 0 230 3
230 6 0 4 -8 10 -17 14 -21 8 -313 15 -363 9z"/>
<path d="M3473 2163 c-13 -2 -23 -9 -23 -14 0 -5 95 -9 230 -9 212 0 278 8
199 24 -34 7 -370 6 -406 -1z"/>
<path d="M4012 2203 c-10 -26 -8 -155 3 -175 7 -12 10 15 10 88 0 57 -1 104
-3 104 -1 0 -6 -8 -10 -17z"/>
<path d="M3974 2072 c4 -43 11 -60 21 -51 2 3 -3 25 -11 49 l-14 45 4 -43z"/>
<path d="M4731 2989 c-52 -17 -76 -32 -122 -78 -49 -49 -61 -69 -80 -131 -19
-63 -21 -88 -16 -180 l5 -107 -30 0 c-41 0 -58 -25 -58 -87 0 -68 45 -135 91
-136 10 0 23 -18 34 -47 10 -27 30 -69 46 -94 16 -25 29 -53 29 -62 0 -33 53
-77 108 -89 28 -7 52 -16 52 -20 0 -14 -54 -35 -105 -42 -136 -19 -247 -82
-289 -164 -28 -55 -46 -142 -46 -219 0 -78 17 -65 25 20 11 125 33 186 85 237
47 48 125 84 207 96 37 6 45 3 65 -20 30 -34 115 -50 220 -42 89 6 148 27 148
52 0 28 101 11 187 -32 113 -55 151 -120 160 -276 5 -69 9 -88 21 -88 13 0 14
12 8 80 -9 115 -38 198 -83 245 -48 48 -142 92 -224 106 -61 10 -129 36 -129
50 0 3 23 9 51 12 59 7 85 26 107 77 8 19 26 48 40 65 14 16 37 56 52 88 18
36 41 66 61 80 47 31 71 81 66 137 -6 50 -37 85 -68 75 -24 -8 -24 1 1 95 36
139 20 263 -42 315 -28 24 -38 26 -107 24 -66 -2 -82 2 -121 24 -100 58 -236
71 -349 36z m213 -14 c37 -8 96 -29 130 -48 55 -30 65 -32 104 -23 58 12 117
-6 136 -42 19 -38 36 -102 26 -102 -4 0 -13 7 -21 16 -30 36 -129 62 -129 33
0 -6 8 -8 19 -4 28 8 83 -17 112 -53 24 -27 25 -35 19 -83 -15 -104 -38 -162
-75 -186 l-34 -21 -12 53 c-18 81 -16 79 -104 60 -90 -20 -307 -16 -413 8 -61
13 -64 13 -77 -7 -8 -12 -17 -40 -21 -63 -4 -24 -10 -43 -14 -43 -35 0 -66
123 -54 219 19 161 108 261 257 290 61 13 75 12 151 -4z m-59 -440 c90 -6 207
3 272 21 19 5 23 -1 38 -51 l16 -57 -28 -54 c-26 -51 -30 -54 -58 -48 -41 9
-326 9 -402 -1 -51 -6 -63 -4 -63 7 0 8 -9 32 -21 53 -20 41 -21 83 0 138 9
24 9 24 78 11 37 -7 113 -16 168 -19z m-336 -99 c7 -15 15 -47 18 -70 11 -103
27 -111 39 -18 l7 57 14 -34 c12 -29 12 -39 1 -59 -7 -14 -13 -53 -13 -88 0
-34 -3 -60 -7 -58 -4 3 -17 31 -28 62 -18 49 -26 60 -52 68 -44 13 -71 54 -71
107 0 57 8 69 46 65 24 -2 35 -11 46 -32z m835 18 c11 -28 6 -84 -9 -114 -9
-17 -29 -34 -50 -41 -19 -7 -35 -18 -35 -24 0 -15 -56 -132 -67 -138 -4 -3 -7
27 -5 67 3 55 0 81 -13 106 -14 27 -15 37 -5 61 7 16 15 29 19 29 4 0 13 -26
21 -57 8 -32 19 -58 24 -58 5 0 15 32 22 71 15 92 27 114 63 114 17 0 31 -6
35 -16z m-111 -37 c-6 -42 -19 -48 -25 -13 -3 14 1 31 10 40 21 20 23 17 15
-27z m-109 -108 l28 -13 -4 -111 c-5 -125 -21 -170 -66 -182 -48 -14 -363 -9
-405 6 -51 18 -68 58 -74 181 -7 113 -4 117 89 130 94 13 397 6 432 -11z
m-144 -379 c0 -30 14 -41 23 -17 3 9 9 8 22 -5 10 -9 14 -21 11 -27 -12 -18
-79 -31 -166 -31 -134 0 -189 24 -143 61 13 11 17 11 20 2 8 -24 23 -13 23 17
l0 30 105 0 105 0 0 -30z"/>
<path d="M4739 2867 c-63 -21 -125 -54 -117 -62 2 -2 26 7 53 20 116 57 207
65 349 29 63 -16 84 -14 39 5 -90 36 -230 40 -324 8z"/>
<path d="M4728 2786 c-45 -12 -104 -44 -96 -52 2 -2 22 6 45 17 84 42 185 45
348 13 20 -5 27 -3 20 4 -30 30 -229 42 -317 18z"/>
<path d="M5180 2740 c0 -5 4 -10 9 -10 17 0 61 -54 69 -84 5 -17 11 -26 14
-20 12 19 -29 92 -61 109 -18 9 -31 11 -31 5z"/>
<path d="M4711 2702 c-19 -9 -37 -23 -39 -30 -2 -8 10 -5 31 8 52 31 119 35
207 12 68 -18 92 -20 79 -7 -3 2 -31 11 -64 20 -80 20 -171 19 -214 -3z"/>
<path d="M4996 2482 c-3 -5 6 -19 19 -32 32 -30 125 -42 125 -16 0 12 -10 16
-44 16 -28 0 -52 7 -69 20 -14 11 -28 16 -31 12z"/>
<path d="M4815 2464 c-13 -9 -36 -14 -64 -12 -26 1 -46 -2 -48 -9 -4 -11 27
-23 60 -23 29 0 87 31 87 46 0 18 -10 17 -35 -2z"/>
<path d="M5330 2381 c0 -17 -4 -33 -10 -36 -13 -8 -13 -25 0 -25 17 0 42 48
35 70 -9 30 -25 24 -25 -9z"/>
<path d="M4736 2271 c-22 -3 -41 -10 -43 -16 -2 -6 78 -10 227 -10 149 0 229
4 227 10 -2 6 -26 13 -53 17 -60 8 -305 7 -358 -1z"/>
<path d="M4810 2184 c-178 -21 -158 -31 63 -30 100 1 202 -1 226 -4 50 -5 69
14 23 23 -40 8 -269 16 -312 11z"/>
<path d="M4697 2073 c-20 -20 13 -23 223 -23 198 0 230 2 230 15 0 13 -31 15
-223 15 -123 0 -227 -3 -230 -7z"/>
<path d="M3324 1665 c-9 -36 0 -143 13 -156 8 -8 11 16 10 85 0 93 -10 122
-23 71z"/>
<path d="M4020 1685 c-4 -36 0 -178 4 -182 18 -19 34 111 20 165 -5 19 -23 32
-24 17z"/>
<path d="M4557 1634 c-4 -4 -7 -38 -7 -76 0 -51 3 -69 13 -66 7 3 13 28 15 68
3 59 -6 89 -21 74z"/>
<path d="M5237 1634 c-4 -4 -7 -38 -7 -76 0 -51 3 -69 13 -66 7 3 13 28 15 68
3 59 -6 89 -21 74z"/>
<path d="M6743 4893 c4 -124 7 -365 7 -535 l0 -308 140 0 140 0 0 323 c0 178
3 419 7 535 l6 212 -153 0 -153 0 6 -227z"/>
<path d="M7305 4594 c-115 -289 -211 -530 -213 -535 -2 -5 65 -9 150 -9 l154
0 33 83 c19 45 38 88 44 95 7 9 60 12 202 12 l193 0 37 -95 37 -95 154 0 154
0 -15 38 c-8 20 -102 260 -208 532 l-194 495 -159 3 -159 2 -210 -526z m424
36 c28 -83 54 -157 57 -165 5 -13 -11 -15 -114 -15 l-121 0 51 143 c28 78 53
152 55 165 3 12 9 22 13 22 4 0 31 -68 59 -150z"/>
<path d="M23 2757 c-15 -6 -22 -18 -21 -32 3 -28 22 -22 37 12 14 31 12 33
-16 20z"/>
<path d="M6152 2738 c-15 -15 -16 -50 -1 -65 7 -7 9 -25 5 -46 -5 -26 -16 -41
-42 -56 -33 -20 -37 -20 -72 -5 -20 8 -47 27 -58 42 -19 24 -24 25 -48 15 -50
-24 -42 -93 11 -93 14 0 37 -9 53 -20 26 -19 27 -21 16 -62 -14 -54 -21 -60
-72 -54 -33 4 -45 1 -59 -14 -35 -39 10 -104 55 -80 11 6 20 15 20 20 0 6 11
10 25 10 17 0 29 -9 39 -27 8 -16 28 -41 44 -57 28 -26 29 -30 18 -57 -7 -16
-22 -37 -34 -45 -27 -18 -28 -45 -4 -67 36 -33 82 -15 82 31 0 13 9 37 21 53
17 24 27 29 63 29 35 0 44 -4 59 -29 9 -16 17 -43 17 -59 0 -44 52 -59 83 -24
24 26 21 49 -7 68 -14 8 -28 29 -31 45 -5 24 -1 34 24 60 17 17 31 35 31 40 0
15 89 10 116 -7 23 -16 26 -15 44 1 45 40 8 113 -44 86 -13 -7 -32 -8 -50 -3
-25 7 -32 16 -41 53 -7 24 -17 55 -24 68 -11 20 -10 26 10 47 12 13 32 24 45
24 40 0 47 61 10 85 -28 19 -54 10 -66 -21 -13 -34 -66 -59 -97 -45 -13 6 -32
11 -42 11 -25 0 -35 53 -19 96 9 26 9 36 -1 48 -16 19 -62 21 -79 4z m56 -20
c8 -8 8 -15 1 -24 -5 -7 -9 -36 -7 -65 3 -52 4 -53 37 -60 18 -4 44 -13 57
-19 20 -11 29 -9 68 14 25 15 46 33 46 41 0 22 20 29 37 12 17 -17 8 -41 -12
-33 -7 2 -31 -11 -53 -30 l-41 -34 25 -43 c13 -23 24 -58 24 -79 0 -35 2 -38
43 -48 23 -6 48 -13 56 -16 7 -2 20 1 27 7 15 13 34 4 34 -16 0 -20 -19 -28
-35 -15 -8 7 -41 14 -74 17 -58 6 -59 5 -75 -25 -9 -17 -28 -40 -42 -51 -26
-20 -27 -23 -15 -64 7 -23 22 -49 33 -58 14 -11 19 -23 15 -33 -9 -23 -42 -16
-40 9 1 10 -9 39 -22 64 l-23 46 -57 -1 c-55 -1 -59 -2 -87 -39 -16 -22 -27
-46 -26 -55 4 -22 -11 -40 -27 -33 -18 6 -20 43 -2 43 7 0 23 21 35 46 l23 46
-40 39 c-22 21 -43 50 -47 64 -5 22 -11 25 -51 25 -31 0 -50 -5 -58 -17 -15
-20 -35 -9 -35 19 0 17 4 19 25 14 14 -4 43 -2 63 3 33 9 39 16 48 53 6 24 14
50 18 60 10 23 -75 82 -105 73 -17 -6 -20 -3 -17 16 3 27 38 40 38 15 0 -9 23
-26 54 -40 l55 -25 43 22 c24 12 45 23 48 25 2 1 7 27 10 58 4 39 2 58 -7 66
-10 8 -10 14 -2 24 14 17 22 17 37 2z"/>
<path d="M6136 2488 c-28 -39 19 -82 64 -58 22 12 27 49 8 68 -19 19 -55 14
-72 -10z m57 -23 c-4 -15 -36 -12 -41 3 -3 9 3 13 19 10 13 -1 23 -7 22 -13z"/>
<path d="M6246 2424 c-9 -8 -16 -21 -16 -27 0 -22 30 -57 49 -57 40 0 55 54
23 83 -23 21 -36 21 -56 1z m47 -29 c7 -16 -8 -29 -23 -20 -15 9 -12 35 4 35
8 0 16 -7 19 -15z"/>
<path d="M6126 2354 c-21 -20 -20 -37 2 -57 22 -20 53 -22 70 -5 17 17 15 35
-8 58 -24 24 -43 25 -64 4z m49 -24 c3 -5 4 -14 0 -20 -8 -13 -35 -1 -35 16 0
16 26 19 35 4z"/>
<path d="M2358 2569 c-20 -11 -24 -49 -7 -66 6 -6 8 -25 4 -44 -9 -49 -56 -72
-105 -51 -19 7 -40 22 -48 33 -18 26 -48 24 -67 -5 -22 -33 -5 -66 33 -66 15
-1 37 -9 50 -20 19 -16 21 -23 13 -39 -6 -11 -11 -29 -11 -40 0 -22 -2 -22
-80 -25 -31 -1 -35 -5 -38 -29 -6 -49 39 -77 68 -42 18 22 57 19 65 -6 4 -11
20 -36 36 -54 27 -30 29 -37 18 -57 -7 -13 -20 -29 -31 -36 -10 -7 -18 -21
-18 -31 0 -22 30 -51 53 -51 22 0 49 30 43 47 -4 8 3 28 15 44 16 24 28 29 59
29 34 0 42 -4 55 -29 8 -17 12 -36 9 -44 -7 -18 21 -47 46 -47 43 0 67 60 31
79 -10 6 -23 23 -29 39 -8 25 -6 32 24 65 28 30 41 37 72 37 21 0 43 -5 49
-11 19 -19 57 -6 68 25 8 24 6 31 -14 47 -17 14 -27 16 -42 9 -11 -7 -32 -7
-51 -2 -27 7 -32 13 -36 42 -2 19 -10 46 -17 61 -13 24 -12 28 6 45 11 10 27
19 37 20 16 3 42 30 42 46 0 13 -39 48 -54 48 -7 0 -25 -15 -40 -34 -33 -43
-51 -49 -101 -32 -34 12 -40 19 -43 45 -2 16 2 39 8 50 8 17 6 25 -10 41 -22
22 -36 24 -62 9z m48 -30 c3 -6 1 -16 -4 -21 -13 -13 -45 8 -36 23 7 12 31 11
40 -2z m-6 -92 c0 -30 4 -33 56 -50 55 -17 56 -17 92 4 l37 22 -28 -30 c-29
-31 -29 -31 -11 -64 10 -19 20 -52 23 -74 5 -36 10 -41 46 -51 l40 -12 -47 -1
c-41 -1 -49 -5 -67 -33 -11 -18 -29 -39 -40 -46 -20 -12 -20 -13 -4 -55 9 -23
25 -49 36 -58 l20 -17 -21 -11 c-22 -12 -39 0 -27 19 3 5 -5 29 -19 52 -24 40
-27 42 -77 42 -49 1 -52 0 -80 -41 -17 -24 -26 -48 -23 -57 4 -10 1 -16 -9
-16 -22 0 -33 21 -15 31 8 4 23 26 33 48 l18 40 -36 40 c-19 21 -38 48 -42 60
-5 17 -15 21 -48 22 l-42 2 37 10 c32 9 38 15 46 51 5 23 12 48 16 56 4 10 -6
23 -29 39 -47 32 -38 38 15 11 37 -19 44 -20 58 -6 10 8 29 19 45 25 23 9 27
16 27 51 0 25 4 39 10 35 6 -3 10 -21 10 -38z m228 -10 c2 -12 -3 -17 -17 -17
-15 0 -21 6 -21 21 0 25 33 22 38 -4z m-441 -13 c7 -18 -17 -38 -31 -24 -11
11 -1 40 14 40 6 0 13 -7 17 -16z m-30 -210 c8 -21 -13 -42 -28 -27 -13 13 -5
43 11 43 6 0 13 -7 17 -16z m553 -22 c0 -26 -11 -34 -27 -21 -10 9 -10 15 -2
25 16 19 29 17 29 -4z"/>
<path d="M2348 2349 c-25 -14 -23 -56 3 -69 16 -9 26 -8 45 5 30 19 31 39 2
59 -26 19 -27 19 -50 5z m42 -34 c0 -8 -6 -15 -14 -15 -17 0 -28 14 -19 24 12
12 33 6 33 -9z"/>
<path d="M2434 2276 c-17 -44 20 -91 54 -70 24 16 27 42 6 65 -20 22 -52 25
-60 5z m46 -32 c0 -9 -5 -14 -12 -12 -18 6 -21 28 -4 28 9 0 16 -7 16 -16z"/>
<path d="M2320 2201 c-15 -30 18 -66 53 -57 48 12 31 76 -20 76 -12 0 -27 -9
-33 -19z m58 -19 c3 -9 -2 -13 -14 -10 -9 1 -19 9 -22 16 -3 9 2 13 14 10 9
-1 19 -9 22 -16z"/>
<path d="M5440 1231 c-30 -16 -37 -17 -55 -5 -24 17 -82 18 -114 0 -14 -8 -42
-11 -70 -9 -37 4 -57 -1 -101 -24 -45 -23 -66 -28 -115 -27 -33 1 -61 7 -63
13 -11 33 -111 53 -153 30 -14 -7 -30 -7 -54 1 -36 12 -91 -4 -127 -36 -15
-15 -19 -15 -40 0 -30 21 -76 20 -113 -2 -27 -17 -33 -17 -67 -4 -34 13 -40
13 -77 -5 -39 -19 -42 -19 -88 -4 -26 10 -64 27 -83 39 -55 34 -91 29 -154
-23 -31 -25 -64 -45 -73 -45 -10 0 -24 -4 -32 -9 -8 -5 -24 -3 -40 5 -41 22
-86 17 -120 -12 -26 -21 -33 -23 -52 -13 -12 6 -38 9 -58 6 -23 -3 -44 1 -56
9 -22 17 -69 18 -96 3 -15 -8 -24 -7 -35 2 -8 6 -32 13 -53 15 -22 1 -48 7
-59 13 -12 6 -30 11 -42 11 -12 0 -33 9 -47 20 -43 34 -96 27 -146 -19 -37
-34 -46 -38 -82 -33 -22 2 -43 10 -48 18 -4 7 -23 18 -42 24 -29 9 -41 8 -78
-8 -32 -14 -58 -18 -95 -14 -48 4 -54 2 -81 -27 -21 -22 -38 -31 -61 -31 -66
0 -107 -40 -125 -120 -16 -71 1 -130 50 -168 14 -11 25 -30 25 -41 0 -79 98
-138 157 -96 21 14 24 14 43 -5 11 -11 29 -20 39 -20 11 0 27 -13 37 -29 21
-36 63 -61 103 -61 17 0 48 -9 68 -20 48 -26 79 -25 123 1 36 22 71 28 215 34
44 2 112 8 150 14 92 15 103 15 150 2 22 -6 103 -11 180 -11 121 0 145 -3 178
-20 44 -24 90 -25 149 -6 24 8 119 22 213 31 93 9 177 21 187 26 9 5 26 9 38
9 11 0 35 7 51 16 23 11 34 12 44 4 9 -7 57 -11 127 -11 62 0 136 0 165 -1 29
-1 70 4 91 11 36 12 40 12 67 -13 31 -29 28 -28 105 -31 67 -3 111 14 140 53
20 27 25 29 52 20 24 -8 37 -6 78 14 42 21 52 23 72 12 38 -21 83 -17 117 12
l31 25 2 172 3 172 110 0 110 0 0 -100 c0 -55 -3 -108 -8 -117 -4 -9 -3 -20 3
-23 5 -3 10 -18 10 -32 0 -23 3 -25 32 -19 41 8 95 59 119 111 21 44 24 112 9
165 -12 42 -123 157 -160 165 -14 3 -53 -2 -86 -11 -32 -9 -72 -17 -89 -16
-16 0 -51 1 -77 2 -36 1 -56 8 -78 27 -41 34 -103 40 -150 14z m-2505 -170
c11 -5 25 -4 31 1 7 5 70 7 140 6 l129 -3 0 -55 c0 -55 0 -55 -32 -58 l-32 -3
-3 -117 -3 -117 -65 0 -65 0 -3 118 -3 117 -32 0 c-18 0 -40 -7 -50 -14 -16
-12 -16 -14 -2 -20 24 -9 48 -74 40 -112 -8 -43 -65 -93 -108 -96 -62 -3 -112
4 -135 18 -20 13 -23 22 -20 67 3 48 5 52 28 51 14 -1 36 -5 50 -8 17 -5 13
-1 -12 14 -87 48 -90 162 -6 203 35 17 119 21 153 8z m574 -158 c29 -89 51
-169 47 -178 -4 -11 -21 -15 -67 -15 -58 0 -61 1 -72 30 -8 21 -18 30 -34 30
-15 0 -28 -10 -38 -30 -15 -28 -19 -30 -76 -30 -42 0 -61 4 -65 14 -5 13 77
289 98 329 8 15 20 17 81 15 l72 -3 54 -162z m149 131 l19 -36 21 36 c20 34
24 36 75 36 85 0 88 -12 28 -121 -46 -82 -51 -98 -51 -153 0 -83 -5 -88 -76
-84 l-59 3 -5 70 c-4 60 -12 83 -54 161 -61 112 -59 124 23 124 59 0 61 -1 79
-36z m500 24 c17 -22 111 -320 105 -335 -4 -10 -22 -13 -71 -11 -61 3 -67 5
-72 28 -4 18 -13 26 -33 28 -23 3 -29 -2 -38 -27 -11 -30 -13 -31 -74 -31 -35
0 -67 4 -70 10 -5 9 49 192 91 308 l16 42 68 0 c42 0 71 -5 78 -12z m341 -2
c7 -8 11 -34 9 -58 -3 -41 -5 -43 -38 -48 l-35 -5 -5 -115 -5 -115 -60 0 -60
0 -5 115 -5 115 -35 5 c-33 5 -35 7 -38 48 -5 68 3 72 143 72 94 0 125 -3 134
-14z m241 -1 c7 -8 10 -32 8 -55 -3 -36 -1 -40 19 -40 19 0 22 6 25 53 l3 52
60 0 60 0 3 -64 3 -63 22 43 c32 63 65 83 145 87 85 4 128 -17 159 -77 31 -60
33 -61 26 -3 -8 71 3 82 82 82 38 0 67 -5 73 -12 5 -7 18 -40 27 -72 18 -62
26 -61 40 4 4 19 14 45 22 58 13 21 20 23 81 20 l67 -3 0 -175 0 -175 -50 -3
c-36 -2 -52 1 -61 13 -10 14 -12 14 -18 0 -6 -18 -111 -22 -122 -4 -4 8 -9 8
-17 0 -6 -6 -35 -11 -64 -11 -48 0 -53 2 -59 25 -4 14 -4 44 0 66 4 27 3 38
-4 34 -5 -3 -10 -14 -10 -24 0 -25 -36 -68 -72 -87 -40 -21 -136 -21 -176 0
-36 18 -69 59 -80 95 -5 20 -8 11 -12 -39 l-5 -65 -60 0 -60 0 -3 58 c-3 51
-5 57 -25 57 -20 0 -22 -4 -19 -48 5 -62 -9 -74 -80 -70 l-53 3 -3 165 c-1 90
0 170 2 177 8 19 110 17 126 -2z"/>
<path d="M2795 1028 c-31 -18 -44 -40 -45 -74 0 -40 16 -60 75 -92 28 -15 50
-34 50 -42 0 -19 -55 -25 -96 -11 -28 10 -29 9 -29 -24 0 -31 3 -35 40 -45 82
-22 170 23 170 87 0 39 -17 60 -75 91 -28 15 -50 34 -50 42 0 19 47 25 74 10
17 -9 23 -6 36 20 15 30 15 30 -10 40 -35 13 -115 12 -140 -2z"/>
<path d="M2990 1011 c0 -26 4 -30 33 -33 l32 -3 3 -117 3 -118 39 0 40 0 0
120 0 120 35 0 c32 0 35 2 35 30 l0 30 -110 0 -110 0 0 -29z"/>
<path d="M3325 1028 c-9 -24 -95 -282 -95 -285 0 -2 20 -3 45 -3 38 0 45 3 45
19 0 26 17 36 67 38 38 1 43 -2 52 -28 9 -26 15 -29 50 -29 23 0 41 3 40 8 0
4 -22 70 -47 147 l-47 140 -53 3 c-36 2 -54 -1 -57 -10z m73 -99 c16 -69 16
-69 -19 -69 -28 0 -31 3 -25 23 3 12 9 39 12 60 4 20 10 37 14 37 3 0 12 -23
18 -51z"/>
<path d="M3540 1037 c0 -2 23 -45 50 -96 43 -78 50 -100 50 -147 l0 -54 40 0
40 0 0 61 c0 54 5 72 45 145 25 45 45 85 45 88 0 3 -18 6 -39 6 -38 0 -40 -2
-67 -57 l-27 -58 -26 58 c-25 56 -26 57 -68 57 -24 0 -43 -2 -43 -3z"/>
<path d="M3982 890 l-50 -150 42 0 c37 0 43 4 52 26 8 24 15 27 57 29 46 3 49
1 59 -26 9 -26 15 -29 52 -29 l42 0 -50 150 -49 150 -53 0 -52 0 -50 -150z
m117 48 c5 -18 11 -43 15 -55 7 -21 4 -23 -29 -23 -30 0 -35 3 -31 18 3 9 10
37 16 61 13 48 18 48 29 -1z"/>
<path d="M4250 1011 c0 -27 3 -30 38 -33 l37 -3 3 -117 3 -118 34 0 34 0 3
118 3 117 38 3 c34 3 37 6 37 33 l0 29 -115 0 -115 0 0 -29z"/>
<path d="M4640 890 l0 -150 40 0 40 0 0 60 0 60 45 0 45 0 0 -60 0 -60 40 0
40 0 0 151 0 150 -37 -3 -38 -3 0 -53 0 -52 -47 0 -48 0 0 55 0 55 -40 0 -40
0 0 -150z"/>
<path d="M5009 1017 c-43 -28 -63 -84 -55 -151 10 -87 56 -130 140 -130 101 0
146 48 146 154 0 107 -41 150 -143 150 -40 0 -63 -6 -88 -23z m131 -57 c25
-25 27 -105 4 -138 -19 -28 -65 -29 -89 -2 -25 28 -25 113 0 140 23 26 60 25
85 0z"/>
<path d="M5075 939 c-11 -17 -9 -89 3 -101 5 -5 18 -8 28 -6 16 3 19 13 19 58
0 49 -2 55 -22 58 -11 2 -24 -2 -28 -9z"/>
<path d="M5300 890 l0 -150 35 0 34 0 3 108 3 107 29 -108 29 -108 40 3 40 3
26 97 c14 53 29 99 32 103 4 3 4 -41 2 -99 l-6 -106 42 0 42 0 -3 148 -3 147
-52 3 -52 3 -21 -73 c-32 -110 -41 -138 -45 -138 -2 0 -14 33 -25 73 -44 151
-35 137 -96 137 l-54 0 0 -150z"/>
<path d="M5718 890 l-3 -149 76 3 c84 3 99 8 99 36 0 15 -9 19 -47 22 -44 3
-48 5 -51 30 -3 25 -1 27 44 30 46 3 48 4 48 33 0 28 -2 30 -44 30 -41 0 -45
3 -45 25 0 23 4 25 48 28 45 3 47 5 47 33 l0 29 -84 0 -85 0 -3 -150z"/>
</g>
</svg>
