<?xml version="1.0" standalone="no"?>
<!DOCTYPE svg PUBLIC "-//W3C//DTD SVG 20010904//EN"
 "http://www.w3.org/TR/2001/REC-SVG-20010904/DTD/svg10.dtd">
<svg version="1.0" xmlns="http://www.w3.org/2000/svg"
 width="500.000000pt" height="281.000000pt" viewBox="0 0 500.000000 281.000000"
 preserveAspectRatio="xMidYMid meet">

<g transform="translate(0.000000,281.000000) scale(0.100000,-0.100000)"
fill="#000000" stroke="none">
<path d="M2096 2674 c-21 -18 -35 -24 -50 -18 -65 22 -123 -13 -150 -91 -12
-37 -12 -52 0 -106 17 -83 17 -157 -1 -189 -23 -40 -18 -75 19 -123 67 -88 73
-123 26 -177 -37 -44 -38 -60 -3 -60 43 0 184 41 190 55 6 17 -18 62 -50 97
-13 14 -29 40 -35 57 -6 16 -32 50 -58 75 -35 34 -45 49 -39 63 15 37 34 140
35 189 0 39 5 55 21 70 12 10 25 29 30 42 8 20 14 23 42 17 84 -19 139 -70
153 -142 6 -30 10 -33 40 -33 19 0 34 -4 34 -10 0 -5 7 -10 15 -10 8 0 12 6 9
13 -3 8 5 18 18 25 l23 11 -24 0 c-20 1 -22 5 -17 26 12 48 17 110 9 120 -20
26 -116 97 -147 110 -47 20 -56 19 -90 -11z"/>
<path d="M3120 2690 c-8 -6 -25 -10 -37 -10 -38 0 -73 -22 -80 -49 -3 -14 -17
-38 -31 -54 -14 -15 -28 -38 -29 -52 l-4 -25 58 26 c117 52 137 58 141 46 2
-7 12 -12 22 -12 11 0 24 -9 30 -20 7 -13 21 -20 39 -20 20 0 30 -6 34 -19 3
-13 11 -18 24 -15 14 4 25 -7 47 -53 l30 -58 6 37 c4 21 14 46 22 55 18 20 11
50 -16 72 -9 7 -16 26 -16 41 0 22 -7 30 -40 43 -23 9 -40 22 -40 31 0 9 -8
16 -20 16 -11 0 -20 4 -20 8 0 5 -19 8 -42 7 -24 -1 -48 2 -53 6 -6 4 -17 4
-25 -1z"/>
<path d="M1405 2570 c-3 -5 -12 -7 -20 -3 -8 3 -15 0 -15 -6 0 -6 -7 -11 -15
-11 -8 0 -19 -9 -25 -21 -7 -12 -18 -18 -26 -15 -8 3 -14 -1 -14 -8 0 -7 -14
-28 -31 -46 -28 -29 -30 -36 -24 -69 5 -20 9 -54 9 -76 1 -22 6 -49 13 -59 10
-18 16 -9 57 72 31 61 51 91 63 92 56 2 80 7 101 18 16 9 27 10 42 2 16 -9 20
-8 20 5 0 18 14 15 84 -16 22 -10 42 -16 44 -14 3 2 -5 19 -16 37 -11 18 -17
39 -15 45 7 19 -22 43 -51 43 -14 0 -31 9 -40 22 -15 20 -19 21 -58 11 -27 -7
-47 -8 -52 -2 -13 12 -23 12 -31 -1z"/>
<path d="M3642 2358 c-34 -18 -52 -40 -90 -108 -32 -56 -60 -92 -82 -105 -18
-11 -46 -32 -61 -47 -26 -23 -29 -33 -29 -88 0 -33 -6 -76 -14 -94 -13 -30
-21 -36 -71 -47 -31 -7 -58 -16 -61 -20 -8 -13 57 -56 129 -85 82 -34 88 -29
86 61 -1 33 3 70 10 83 8 15 10 46 5 95 l-6 72 51 33 c28 19 72 58 98 88 36
42 53 54 75 54 16 0 37 5 48 12 26 16 51 -7 80 -74 24 -55 21 -103 -7 -147
-15 -23 -14 -26 11 -47 14 -13 26 -27 25 -31 -3 -20 2 -24 16 -13 8 7 22 9 31
6 14 -5 15 -4 4 9 -10 13 -4 23 40 64 42 39 51 54 47 73 -3 13 -10 49 -17 80
-6 31 -21 72 -33 90 -19 27 -30 34 -64 36 -34 3 -46 10 -68 38 -22 29 -32 34
-69 34 -25 0 -60 -9 -84 -22z"/>
<path d="M2338 2299 c-3 -27 -1 -71 3 -97 6 -32 6 -48 -2 -53 -18 -11 -29
-105 -17 -140 10 -30 12 -31 57 -24 25 4 54 11 63 16 17 9 16 13 -7 59 -18 36
-25 65 -25 107 0 43 -7 74 -30 121 -16 34 -31 62 -33 62 -3 0 -7 -23 -9 -51z"/>
<path d="M2912 2229 c4 -12 99 -51 107 -44 7 8 -4 15 -59 36 -32 12 -50 15
-48 8z"/>
<path d="M2258 2203 c-21 -5 -24 -23 -5 -23 7 0 22 7 33 15 20 15 9 18 -28 8z"/>
<path d="M2917 2183 c-8 -13 11 -73 24 -73 12 0 11 19 -5 55 -7 17 -15 25 -19
18z"/>
<path d="M2115 2162 c-47 -18 -50 -20 -43 -27 7 -8 98 26 98 36 0 12 -6 11
-55 -9z"/>
<path d="M2286 2158 c-9 -12 -16 -26 -16 -30 0 -16 18 -7 34 16 20 31 3 44
-18 14z"/>
<path d="M3096 2162 c-9 -15 12 -34 35 -30 l23 3 -26 17 c-15 10 -29 14 -32
10z"/>
<path d="M2100 2101 c0 -11 59 -36 66 -28 3 3 -8 13 -25 21 -35 18 -41 19 -41
7z"/>
<path d="M3098 2093 c-10 -2 -18 -11 -18 -19 0 -11 7 -13 28 -8 36 9 43 14 37
25 -6 9 -18 10 -47 2z"/>
<path d="M1612 2083 c-6 -2 -10 -9 -6 -14 8 -14 40 -11 54 6 10 13 9 15 -11
14 -13 0 -30 -3 -37 -6z"/>
<path d="M1460 2035 c-55 -20 -49 -37 7 -18 26 8 52 20 58 24 13 13 -23 9 -65
-6z"/>
<path d="M1654 2025 c-9 -14 -14 -28 -10 -32 8 -9 46 27 46 44 0 21 -18 15
-36 -12z"/>
<path d="M1450 1977 c0 -16 59 -49 73 -40 4 3 7 6 5 7 -2 2 -20 13 -40 25 -30
18 -38 19 -38 8z"/>
<path d="M3494 1911 c8 -13 96 -42 96 -32 0 5 -19 16 -43 25 -49 18 -61 20
-53 7z"/>
<path d="M3840 1913 c0 -6 -20 -32 -44 -57 -24 -26 -50 -60 -56 -77 -7 -17
-20 -29 -30 -29 -35 0 -110 -81 -110 -119 0 -12 83 -61 104 -61 10 0 17 14 21
44 7 42 17 63 69 134 23 30 61 161 51 171 -3 2 -5 0 -5 -6z"/>
<path d="M737 1881 c-94 -24 -121 -47 -125 -102 -3 -35 -10 -50 -38 -75 -40
-37 -44 -75 -15 -132 25 -48 40 -60 140 -113 59 -31 87 -53 98 -74 33 -64 50
-75 125 -75 94 0 134 -18 147 -67 6 -21 11 -46 11 -55 0 -26 27 -22 46 7 30
46 73 169 63 180 -6 5 -47 11 -92 13 -45 2 -98 4 -117 5 -19 1 -52 -2 -72 -6
-31 -6 -41 -4 -58 13 -11 11 -18 25 -15 30 4 6 1 10 -4 10 -6 0 -33 21 -59 48
-26 26 -60 57 -75 69 -17 13 -27 31 -27 47 0 15 -6 36 -12 47 -12 18 -9 23 17
45 17 13 49 31 73 41 43 16 64 14 149 -12 18 -6 25 -2 34 19 7 14 15 23 20 21
4 -3 15 -2 25 2 15 6 15 7 -5 15 -18 6 -20 11 -11 28 10 19 9 20 -8 9 -17 -11
-25 -6 -64 34 -49 52 -54 53 -151 28z"/>
<path d="M3498 1875 c-4 -6 1 -26 9 -45 8 -19 17 -30 20 -24 6 16 -22 81 -29
69z"/>
<path d="M2285 1845 c-172 -32 -344 -97 -493 -187 -81 -49 -231 -167 -280
-220 l-23 -26 43 -4 c26 -3 48 1 56 8 25 26 11 28 -45 7 -26 -10 -12 23 17 41
27 15 35 16 68 5 20 -7 57 -13 81 -14 37 -1 45 -5 48 -24 4 -25 -13 -34 -70
-35 -24 -1 -42 -6 -45 -14 -3 -11 0 -12 17 -3 12 7 31 11 44 10 46 -4 67 1 67
17 0 11 5 14 16 10 25 -10 37 4 17 19 -24 18 -15 24 43 31 65 8 66 8 88 -1 15
-7 17 -5 11 14 -7 25 19 41 38 22 6 -6 24 -11 39 -11 15 0 28 -4 28 -10 0 -5
-21 -10 -47 -10 -51 0 -51 -14 0 -16 74 -5 137 -31 137 -59 0 -7 7 -15 15 -19
8 -3 15 -13 15 -21 0 -13 -6 -15 -30 -10 -36 8 -41 -9 -7 -26 12 -6 34 -23 49
-36 14 -14 31 -23 36 -19 14 8 72 -48 72 -71 0 -11 16 -40 36 -65 27 -36 37
-58 41 -102 3 -31 10 -56 14 -56 11 0 10 -129 -2 -136 -5 -3 -9 -18 -9 -33 0
-15 -5 -53 -11 -84 -9 -46 -16 -57 -31 -57 -12 0 -19 -6 -17 -17 3 -33 -1 -43
-16 -43 -8 0 -25 -20 -37 -45 -12 -25 -28 -45 -35 -45 -8 0 -24 -11 -37 -24
-12 -14 -35 -27 -50 -30 -16 -3 -33 -11 -40 -19 -25 -30 -67 -47 -118 -47
l-53 -1 28 -24 c15 -14 39 -25 52 -25 46 0 82 -76 53 -110 -11 -12 -10 -12 5
0 14 10 21 10 29 2 7 -7 22 -12 35 -12 13 0 26 -7 30 -16 3 -8 12 -13 20 -10
19 8 82 -19 89 -39 4 -9 19 -15 40 -15 44 0 44 -19 0 -85 l-34 -50 401 -3
c314 -2 402 1 409 10 11 19 10 96 -2 103 -6 4 -8 10 -5 15 3 4 -7 22 -21 40
-21 24 -27 42 -28 83 -1 47 -3 52 -25 55 -13 2 -32 13 -41 24 -14 17 -20 19
-38 9 -12 -6 -54 -16 -94 -21 -86 -10 -122 3 -162 62 -14 21 -35 51 -48 68
-21 29 -21 31 -4 67 14 29 15 41 6 64 -10 24 -9 33 11 66 13 20 43 56 66 80
24 23 43 48 43 57 0 8 14 26 30 40 23 19 38 24 59 20 16 -4 41 0 57 9 17 9 56
15 97 15 67 0 67 -1 67 -29 0 -24 5 -29 34 -35 19 -3 42 -15 52 -25 17 -19 44
-26 44 -11 0 5 6 16 13 26 12 17 16 17 51 2 22 -9 67 -16 106 -16 l67 0 7 41
c4 23 4 44 1 47 -3 3 -34 4 -70 3 -38 -1 -65 2 -65 7 0 6 -3 17 -6 26 -4 10
-1 16 9 16 8 0 17 6 20 13 6 16 110 21 138 6 15 -8 24 -7 35 2 23 19 17 34
-21 52 -31 15 -34 19 -23 36 7 11 10 23 6 26 -10 10 -59 -18 -54 -31 10 -25
-12 -24 -28 1 -9 14 -22 22 -30 19 -20 -8 -47 -69 -40 -88 5 -13 -1 -16 -29
-16 -36 0 -56 -13 -37 -25 5 -3 10 -17 10 -31 0 -18 -5 -24 -21 -24 -18 0 -20
4 -15 25 5 18 2 25 -8 25 -7 0 -16 12 -20 28 -4 18 -20 36 -50 55 -50 31 -56
32 -56 13 0 -7 15 -25 33 -39 20 -15 33 -34 35 -51 1 -16 -2 -25 -8 -21 -6 3
-10 15 -10 26 0 14 -7 19 -30 19 -18 0 -30 5 -30 13 0 21 -42 55 -47 40 -3 -7
-20 -13 -39 -13 -19 0 -34 -5 -34 -11 0 -6 -12 -20 -26 -31 -14 -12 -30 -31
-34 -44 -9 -24 -29 -29 -90 -24 -37 3 -40 10 -33 68 6 51 7 53 33 47 35 -8 77
3 84 21 8 21 -3 41 -25 47 -30 8 -22 24 16 31 19 4 47 18 63 31 43 36 79 47
165 51 87 3 97 7 97 35 0 10 7 19 15 19 8 0 15 6 15 14 0 10 13 16 35 18 20 2
34 8 33 13 -2 6 -24 9 -49 7 -54 -4 -67 9 -45 43 34 51 16 58 -33 14 -30 -28
-32 -33 -21 -54 10 -19 9 -26 -15 -49 -31 -31 -51 -33 -58 -7 -3 14 -15 21
-43 23 -34 3 -39 7 -42 30 -3 22 2 28 33 38 20 6 43 22 51 35 42 65 142 90
235 61 24 -8 58 -17 74 -21 27 -7 28 -8 10 -15 -11 -4 -33 -5 -49 -2 -35 6
-33 -12 4 -34 22 -14 29 -14 63 0 25 11 37 23 37 36 0 17 3 19 19 8 15 -9 25
-9 46 0 14 7 37 9 51 6 39 -10 29 8 -43 78 -185 178 -406 299 -663 364 -91 22
-131 26 -295 30 -138 2 -212 -1 -270 -11z m-149 -255 c14 -6 58 -11 96 -12 77
-1 74 -9 -12 -34 -30 -9 -72 -28 -93 -42 -28 -18 -43 -23 -54 -16 -8 5 -14 12
-14 17 1 4 1 16 1 27 0 13 7 20 20 20 11 0 20 5 20 10 0 6 -9 10 -20 10 -20 0
-26 11 -13 23 9 10 38 9 69 -3z m568 -19 c4 -5 -7 -12 -24 -16 -42 -9 -45 -21
-14 -50 29 -27 20 -38 -25 -33 -20 3 -24 -2 -25 -26 -2 -32 -29 -56 -62 -56
-12 0 -27 -7 -34 -15 -7 -8 -26 -15 -42 -15 -22 0 -41 -12 -78 -50 -67 -69
-100 -66 -114 11 -5 29 -2 39 19 59 28 26 31 46 14 84 -15 33 -34 39 -75 24
-29 -10 -37 -10 -51 5 -14 13 -14 17 -2 20 8 2 53 17 100 32 80 26 90 27 133
15 36 -10 55 -10 84 -1 34 10 69 14 159 19 17 1 34 -2 37 -7z m-664 -20 c0
-13 -20 -18 -48 -13 -18 4 -20 7 -10 13 18 12 58 11 58 0z m-5 -41 c3 -5 -1
-10 -9 -10 -9 0 -16 5 -16 10 0 6 4 10 9 10 6 0 13 -4 16 -10z m640 -88 c-3
-3 -11 0 -18 7 -9 10 -8 11 6 5 10 -3 15 -9 12 -12z m65 -83 c0 -17 -84 -28
-100 -12 -2 2 2 8 10 13 18 11 90 10 90 -1z m128 -137 c2 -12 8 -22 13 -22 5
0 9 -9 9 -20 0 -11 5 -20 11 -20 20 0 -10 -27 -35 -32 -17 -4 -22 0 -21 15 1
10 8 23 16 28 12 8 11 11 -3 23 -21 15 -25 60 -5 54 6 -3 13 -14 15 -26z m172
-7 c0 -8 -4 -15 -10 -15 -5 0 -10 7 -10 15 0 8 5 15 10 15 6 0 10 -7 10 -15z
m-220 -29 c0 -17 -39 -48 -51 -40 -10 6 0 36 15 46 18 12 36 9 36 -6z m210
-242 c0 -8 -5 -12 -10 -9 -6 4 -8 11 -5 16 9 14 15 11 15 -7z m-20 -674 c0 -5
-4 -10 -10 -10 -5 0 -10 5 -10 10 0 6 5 10 10 10 6 0 10 -4 10 -10z"/>
<path d="M2648 1483 c7 -3 16 -2 19 1 4 3 -2 6 -13 5 -11 0 -14 -3 -6 -6z"/>
<path d="M3660 1844 c0 -17 21 -27 44 -22 11 2 7 8 -14 20 -26 15 -30 15 -30
2z"/>
<path d="M3660 1788 c-16 -6 -20 -12 -12 -15 19 -7 64 6 57 17 -7 12 -13 12
-45 -2z"/>
<path d="M1014 1767 c10 -6 37 -27 60 -46 22 -18 55 -41 73 -49 18 -8 30 -19
27 -24 -12 -19 63 -91 107 -101 24 -6 29 -2 54 49 31 61 27 74 -27 74 -39 0
-76 17 -114 50 -30 26 -54 34 -174 55 -23 4 -23 4 -6 -8z"/>
<path d="M4330 1689 c-19 -11 -47 -19 -61 -19 -15 0 -32 -7 -39 -15 -14 -17
-13 -17 108 -56 46 -15 71 -28 68 -35 -3 -7 2 -18 10 -25 9 -7 13 -21 10 -34
-4 -15 1 -28 14 -40 14 -12 18 -25 14 -41 -5 -17 -2 -24 9 -24 13 0 14 -6 1
-52 -20 -78 -18 -82 21 -52 19 14 41 24 49 21 16 -6 29 24 26 64 -1 16 5 29
14 32 21 8 20 41 0 72 -14 21 -14 28 -3 41 11 13 10 17 -4 26 -10 5 -15 13
-12 19 6 9 -41 59 -56 59 -5 0 -9 7 -9 15 0 8 -8 15 -17 15 -9 0 -26 8 -37 19
-31 27 -66 30 -106 10z"/>
<path d="M1082 1626 c-14 -30 -9 -47 9 -29 6 6 9 21 7 34 -3 23 -3 23 -16 -5z"/>
<path d="M1130 1623 c0 -22 17 -49 25 -41 8 8 -5 58 -16 58 -5 0 -9 -8 -9 -17z"/>
<path d="M1026 1474 c-10 -29 -11 -44 -4 -42 13 5 40 88 28 88 -5 0 -15 -21
-24 -46z"/>
<path d="M1093 1454 c-37 -16 -42 -24 -15 -24 20 0 60 26 52 33 -3 2 -20 -2
-37 -9z"/>
<path d="M4010 1449 c0 -6 10 -30 22 -53 29 -53 27 -50 34 -44 6 6 -43 108
-51 108 -3 0 -5 -5 -5 -11z"/>
<path d="M1859 1442 c7 -2 17 -15 22 -29 11 -31 33 -25 36 9 1 24 -2 26 -34
25 -20 -1 -30 -3 -24 -5z"/>
<path d="M1964 1398 c21 -18 21 -18 2 -33 -11 -8 -29 -15 -40 -16 -21 0 -21
-1 -1 -9 13 -5 26 -3 35 5 8 7 21 10 29 7 9 -3 11 0 6 8 -5 9 -4 11 4 6 6 -4
17 -3 24 3 8 6 18 6 27 1 25 -16 36 -11 12 6 -12 8 -22 21 -22 28 0 8 -16 12
-48 12 -47 -1 -48 -1 -28 -18z"/>
<path d="M3962 1395 c-14 -30 -16 -55 -4 -55 7 0 32 57 32 73 0 17 -18 5 -28
-18z"/>
<path d="M432 1304 c-12 -6 -29 -19 -36 -29 -7 -10 -19 -15 -27 -13 -23 9 -47
-10 -54 -43 -4 -19 -15 -33 -26 -36 -10 -3 -19 -14 -19 -24 0 -11 -3 -19 -7
-19 -10 0 -10 -117 0 -126 4 -4 7 -20 7 -36 0 -31 39 -78 64 -78 8 0 27 -11
43 -23 31 -26 73 -41 73 -26 0 5 -20 49 -45 98 -35 71 -41 90 -30 95 8 3 15
15 15 26 0 11 7 23 15 26 9 4 15 19 15 36 0 22 6 31 20 35 14 4 19 11 15 23
-4 14 8 26 52 51 l58 34 -44 6 c-24 3 -49 12 -55 20 -9 12 -16 13 -34 3z"/>
<path d="M2110 1294 c0 -8 5 -12 10 -9 6 3 10 10 10 16 0 5 -4 9 -10 9 -5 0
-10 -7 -10 -16z"/>
<path d="M4096 1271 c-8 -13 11 -51 25 -51 6 0 8 9 4 23 -10 30 -21 41 -29 28z"/>
<path d="M4030 1222 c0 -5 12 -14 26 -21 32 -14 54 -3 29 16 -21 14 -55 18
-55 5z"/>
<path d="M797 1051 c-16 -27 -16 -31 -2 -31 18 0 28 21 23 45 -2 12 -8 8 -21
-14z"/>
<path d="M4490 1043 c-84 -28 -109 -32 -128 -24 -54 25 -89 14 -157 -49 -73
-68 -89 -72 -153 -35 -75 43 -78 18 -15 -117 33 -71 37 -76 57 -66 28 14 86
69 86 82 1 6 19 20 42 31 24 12 43 28 44 39 4 29 55 77 76 70 36 -11 115 -13
173 -4 50 8 63 7 85 -8 14 -9 34 -19 45 -22 25 -7 30 -43 15 -99 -14 -53 -51
-95 -100 -115 -36 -14 -39 -18 -34 -45 3 -16 1 -39 -6 -51 -11 -20 -10 -21 7
-12 14 9 20 6 30 -11 l12 -22 1 23 c0 20 5 22 63 22 69 0 82 6 101 41 7 13 25
46 40 73 35 66 34 109 -3 147 -25 25 -29 35 -24 64 7 43 -13 76 -59 97 -60 28
-89 27 -198 -9z"/>
<path d="M850 1053 c0 -22 25 -61 34 -52 9 8 -9 62 -22 67 -7 2 -12 -5 -12
-15z"/>
<path d="M736 891 c-19 -58 -19 -61 -6 -61 5 0 14 18 20 41 6 22 14 47 17 55
3 8 1 14 -5 14 -5 0 -17 -22 -26 -49z"/>
<path d="M808 863 c-36 -14 -51 -33 -28 -33 18 0 70 30 70 40 0 12 3 12 -42
-7z"/>
<path d="M4244 803 c18 -35 45 -70 46 -60 0 16 -41 87 -50 87 -6 0 -4 -12 4
-27z"/>
<path d="M4191 769 c-13 -38 -13 -39 -2 -39 5 0 11 8 14 18 2 9 8 25 12 35 4
9 3 17 -3 17 -6 0 -15 -14 -21 -31z"/>
<path d="M1144 738 c3 -24 9 -54 12 -67 5 -17 4 -22 -4 -17 -7 4 -12 17 -12
29 0 13 -4 17 -9 12 -5 -6 -15 -64 -21 -130 -16 -162 -2 -324 41 -487 l21 -78
249 0 c235 0 249 1 239 18 -6 9 -26 42 -44 72 -25 40 -32 59 -25 72 5 9 6 29
3 45 -4 23 0 37 21 61 23 27 26 38 20 72 -6 36 -9 39 -34 34 -40 -8 -88 20
-105 61 -10 23 -22 35 -34 35 -11 0 -31 9 -46 21 -18 14 -34 19 -51 15 -45
-11 -135 55 -135 98 0 11 -14 41 -30 66 -16 25 -30 53 -30 62 0 25 -11 48 -22
48 -7 0 -8 -16 -4 -42z"/>
<path d="M3613 759 c-9 -9 -3 -23 23 -55 40 -49 68 -62 91 -43 12 11 17 11 27
-2 6 -9 22 -21 35 -28 13 -7 20 -16 15 -20 -5 -3 -22 -23 -37 -43 -15 -21 -34
-38 -40 -38 -7 0 -29 -14 -49 -30 -24 -20 -50 -31 -74 -33 -37 -2 -38 -1 -45
36 -3 23 -17 49 -33 63 -14 14 -26 29 -26 35 0 6 -18 40 -40 76 -22 37 -40 63
-40 59 0 -5 -7 -3 -15 4 -26 22 -30 1 -6 -38 12 -20 39 -73 60 -117 21 -44 48
-89 60 -100 13 -11 30 -33 38 -49 14 -27 18 -28 60 -22 25 3 52 11 59 17 19
15 34 2 26 -21 -11 -30 -80 -116 -139 -173 -49 -47 -53 -54 -53 -97 0 -26 3
-68 6 -93 l7 -47 176 3 176 2 17 65 c43 156 61 416 40 560 l-7 45 -69 3 c-50
2 -73 8 -81 19 -8 11 -20 14 -37 10 -20 -5 -31 0 -56 28 -32 37 -50 43 -69 24z"/>
<path d="M1412 730 c-28 -12 -42 -48 -42 -110 0 -34 4 -50 16 -54 31 -12 51
-5 74 26 22 30 22 31 3 26 -23 -6 -58 26 -47 43 3 5 1 16 -6 23 -8 11 -5 19
16 35 28 22 24 26 -14 11z"/>
<path d="M4315 667 c-5 -12 -2 -24 9 -35 13 -13 16 -14 15 -2 0 8 -4 24 -9 35
-7 19 -8 19 -15 2z"/>
<path d="M4250 625 c0 -2 14 -11 30 -20 25 -13 30 -13 30 -1 0 7 -7 17 -16 20
-19 7 -44 8 -44 1z"/>
<path d="M4435 593 c-22 -2 -62 -11 -88 -20 -36 -11 -52 -12 -60 -4 -16 16
-103 14 -137 -4 l-29 -15 16 -47 c25 -77 33 -81 88 -39 33 25 57 36 81 36 19
0 50 6 69 14 40 17 135 87 114 84 -8 -1 -32 -3 -54 -5z"/>
<path d="M1513 558 c-23 -30 -24 -38 -5 -38 14 0 20 7 20 25 0 29 -2 30 -15
13z"/>
<path d="M1556 477 c-10 -38 -7 -65 10 -71 26 -10 54 -7 54 7 0 6 7 3 15 -8
15 -19 16 -19 42 8 30 29 24 50 -6 23 -23 -21 -41 -14 -41 16 0 19 -1 20 -17
5 -14 -11 -21 -12 -29 -3 -6 6 -9 17 -7 23 2 6 0 14 -5 17 -6 3 -12 -4 -16
-17z"/>
</g>
</svg>
