<?xml version="1.0" standalone="no"?>
<!DOCTYPE svg PUBLIC "-//W3C//DTD SVG 20010904//EN"
 "http://www.w3.org/TR/2001/REC-SVG-20010904/DTD/svg10.dtd">
<svg version="1.0" xmlns="http://www.w3.org/2000/svg"
 width="1200.000000pt" height="1200.000000pt" viewBox="0 0 1200.000000 1200.000000"
 preserveAspectRatio="xMidYMid meet">

<g transform="translate(0.000000,1200.000000) scale(0.100000,-0.100000)"
fill="#000000" stroke="none">
<path d="M5085 8909 c-185 -28 -402 -145 -544 -295 -93 -98 -124 -159 -125
-244 -1 -160 102 -259 262 -251 19 1 21 5 16 27 -8 32 52 124 102 154 60 37
91 41 152 20 64 -23 155 -26 231 -8 48 11 51 13 51 42 0 98 130 165 183 95 25
-34 47 -128 47 -204 1 -41 12 -92 35 -160 18 -54 31 -103 29 -107 -3 -4 -1 -8
5 -8 16 0 82 83 107 135 51 107 20 317 -75 510 -114 231 -266 325 -476 294z"/>
<path d="M4836 8068 c-37 -43 -50 -98 -22 -98 13 0 96 114 96 132 0 22 -42 3
-74 -34z"/>
<path d="M2740 7985 c-88 -18 -180 -54 -292 -113 -51 -28 -120 -58 -153 -67
-121 -34 -179 -88 -231 -216 -53 -130 -104 -408 -104 -565 1 -285 139 -544
370 -693 69 -45 84 -48 134 -27 l34 14 -34 109 c-55 174 -73 243 -64 243 4 0
22 -21 40 -47 l32 -48 -7 95 c-6 74 -13 109 -36 157 -39 84 -93 276 -114 403
-13 83 -15 114 -6 146 15 56 48 103 97 137 l41 29 63 -51 c125 -100 302 -171
428 -171 49 0 57 3 86 34 46 50 70 59 111 46 38 -13 82 -59 91 -97 13 -49 -15
-104 -85 -173 l-66 -65 8 -50 c9 -59 1 -152 -18 -209 -8 -23 -17 -70 -21 -106
l-6 -65 32 45 c41 57 39 54 45 48 3 -2 -9 -47 -25 -99 -16 -52 -30 -97 -30
-100 0 -9 96 -46 150 -59 25 -5 92 -10 150 -10 l105 0 -30 -26 c-57 -48 -211
-146 -298 -190 -49 -25 -87 -48 -85 -52 15 -34 287 -564 376 -732 71 -135 207
-382 236 -429 25 -40 56 -124 56 -153 0 -10 11 -41 25 -67 20 -41 34 -54 86
-80 114 -57 232 -38 359 58 85 64 145 145 172 234 28 92 21 228 -21 427 -48
228 -43 267 64 480 85 168 100 220 99 350 0 178 -50 313 -159 425 -71 72 -129
112 -325 223 -227 128 -265 170 -405 432 -42 80 -98 177 -124 215 -136 206
-355 361 -575 406 -50 10 -95 18 -101 18 -5 -1 -39 -7 -75 -14z"/>
<path d="M4847 7953 c-7 -12 11 -53 23 -53 17 0 23 29 10 45 -14 16 -26 19
-33 8z"/>
<path d="M9357 7553 c-4 -3 -7 -40 -7 -81 0 -72 -1 -75 -41 -123 -26 -31 -68
-64 -113 -89 l-71 -39 -24 22 -25 22 22 -29 c12 -16 22 -35 22 -42 0 -47 152
37 218 120 l22 28 67 -62 c121 -113 262 -192 370 -207 45 -6 45 -6 39 -41 l-5
-34 42 6 c59 10 116 46 176 112 29 31 50 58 48 60 -2 2 -38 -8 -80 -22 l-77
-26 -102 23 c-247 53 -319 104 -394 277 -51 120 -68 145 -87 125z"/>
<path d="M6020 7536 c0 -2 8 -10 18 -17 15 -13 16 -12 3 4 -13 16 -21 21 -21
13z"/>
<path d="M8761 7477 c-16 -73 2 -174 50 -279 30 -63 34 -68 46 -51 26 38 78
84 117 104 26 13 32 19 16 15 -36 -8 -98 33 -144 96 -22 29 -44 59 -50 67 -6
7 -13 34 -16 60 l-6 46 -13 -58z"/>
<path d="M5779 7493 c-13 -16 -12 -17 4 -4 9 7 17 15 17 17 0 8 -8 3 -21 -13z"/>
<path d="M2628 7259 c-35 -20 -20 -31 35 -25 28 4 67 2 85 -3 37 -11 42 1 10
23 -25 18 -104 21 -130 5z"/>
<path d="M2403 7200 c-45 -27 -71 -80 -39 -80 7 0 21 11 29 23 9 13 29 30 46
37 34 14 39 25 15 34 -20 8 -14 9 -51 -14z"/>
<path d="M2667 7146 c-3 -8 1 -22 8 -33 18 -23 40 -5 30 26 -7 24 -30 28 -38
7z"/>
<path d="M2415 7090 c-9 -15 5 -52 18 -47 15 5 16 49 0 54 -6 2 -14 -1 -18 -7z"/>
<path d="M9345 7058 c-49 -9 -85 -31 -72 -44 3 -3 35 -7 71 -8 70 -1 105 17
93 48 -7 18 -19 18 -92 4z"/>
<path d="M5671 7004 c0 -11 3 -14 6 -6 3 7 2 16 -1 19 -3 4 -6 -2 -5 -13z"/>
<path d="M9640 6974 c-11 -28 -10 -32 33 -86 53 -70 74 -35 31 52 -32 64 -49
74 -64 34z"/>
<path d="M9360 6920 c-9 -16 -9 -25 -1 -33 16 -16 46 4 46 29 0 27 -31 29 -45
4z"/>
<path d="M9600 6855 c-13 -15 -7 -45 8 -45 16 0 34 29 28 45 -7 19 -20 19 -36
0z"/>
<path d="M5662 6800 c0 -19 2 -27 5 -17 2 9 2 25 0 35 -3 9 -5 1 -5 -18z"/>
<path d="M8054 6710 c-138 -28 -241 -140 -279 -302 -23 -103 -42 -404 -75
-1188 -18 -428 -54 -1434 -62 -1700 l-3 -104 50 3 c28 1 82 9 120 16 39 7 71
12 72 11 2 -2 3 -44 4 -94 1 -105 0 -104 90 -73 157 54 336 167 465 295 89 88
143 165 189 269 l30 66 65 1 c36 0 136 -3 222 -7 l157 -6 27 -81 c82 -251 202
-378 383 -407 40 -6 75 -8 78 -6 3 3 0 27 -5 54 -6 26 -10 49 -8 50 1 1 42
-11 91 -26 50 -16 93 -27 98 -24 4 2 7 19 8 36 0 18 3 26 6 19 3 -8 60 -260
128 -560 l122 -547 34 3 c38 3 290 71 302 81 6 6 -87 659 -393 2752 -48 328
-69 503 -69 565 1 96 -14 151 -67 241 -30 52 -112 143 -156 175 l-28 19 -27
-26 c-44 -42 -105 -66 -150 -59 l-38 6 -13 -59 c-16 -75 -233 -2043 -227
-2053 3 -5 1 -11 -4 -14 -7 -5 -620 23 -628 28 -1 1 2 35 7 76 10 86 30 576
30 739 l0 110 358 401 c196 221 358 407 360 414 1 7 -7 21 -18 31 -20 18 -21
18 -37 -4 -15 -23 -16 -22 -69 76 -29 54 -54 104 -54 112 0 8 -7 22 -16 32
-17 19 -19 17 -407 -293 -53 -43 -98 -78 -100 -78 -1 0 -1 214 1 475 1 261 -1
475 -5 475 -4 0 -109 20 -233 45 -231 46 -255 49 -326 35z"/>
<path d="M5652 6600 c0 -19 2 -27 5 -17 2 9 2 25 0 35 -3 9 -5 1 -5 -18z"/>
<path d="M2299 6255 c-96 -35 -171 -89 -208 -149 -11 -17 -38 -114 -61 -216
-22 -102 -47 -214 -55 -250 -8 -36 -24 -108 -34 -160 -11 -52 -40 -189 -65
-304 -25 -115 -44 -211 -42 -213 4 -5 103 164 171 292 277 524 480 928 468
932 -5 2 -36 21 -68 43 -33 22 -62 39 -65 39 -3 0 -21 -6 -41 -14z"/>
<path d="M2685 6120 c-25 -40 -139 -365 -240 -685 l-54 -170 26 -38 c34 -48
112 -111 186 -148 32 -16 75 -47 97 -69 47 -47 124 -202 140 -282 6 -32 13
-58 15 -58 1 0 97 25 211 56 115 32 215 57 222 57 6 0 12 1 12 1 0 1 -11 23
-25 50 -14 27 -25 56 -25 63 0 8 -18 69 -39 136 -21 67 -62 196 -91 287 -84
269 -179 557 -228 687 l-45 122 -79 -2 c-44 -1 -81 -4 -83 -7z"/>
<path d="M3360 4695 c19 -19 36 -35 39 -35 3 0 -10 16 -29 35 -19 19 -36 35
-39 35 -3 0 10 -16 29 -35z"/>
<path d="M5406 4347 c-189 -624 -438 -1514 -560 -2004 -36 -144 -66 -265 -66
-268 0 -3 179 -4 397 -3 l397 3 27 70 c15 39 83 210 150 380 67 171 125 314
129 318 5 5 11 -4 14 -20 13 -64 137 -642 149 -693 l12 -55 383 -3 382 -2 0
22 c0 13 -11 127 -24 253 -34 320 -73 741 -91 995 -13 171 -14 298 -9 622 l7
406 -54 6 c-30 3 -121 8 -204 11 -216 7 -846 34 -937 39 l-77 4 -25 -81z"/>
<path d="M5739 688 c-1 -7 -2 -22 -3 -33 -1 -15 -8 -20 -28 -20 -15 -1 -30 -4
-33 -7 -3 -3 -19 -1 -35 5 -37 14 -75 -2 -98 -43 -21 -36 -32 -38 -32 -6 0 42
-68 74 -97 45 -8 -8 -13 -8 -18 1 -13 22 -35 -9 -29 -43 4 -29 3 -30 -8 -13
-38 56 -85 79 -120 57 -14 -8 -23 -9 -32 -2 -26 22 -36 -11 -36 -116 0 -86 3
-105 16 -110 21 -8 32 12 26 44 -4 23 -3 24 16 14 11 -6 32 -11 45 -11 28 0
77 35 77 56 0 8 5 14 11 14 7 0 8 -11 4 -30 -5 -23 -3 -32 10 -36 24 -10 35
13 31 69 -3 49 11 77 38 77 24 0 35 -25 38 -85 2 -45 7 -60 18 -60 10 0 15 10
15 32 0 17 3 35 8 39 4 4 7 1 7 -8 0 -36 97 -87 114 -59 9 14 26 14 26 1 0 -5
-13 -16 -29 -24 -27 -14 -31 -14 -54 4 -55 43 -65 10 -12 -38 19 -18 38 -32
43 -32 5 0 27 17 50 38 l42 39 0 77 c0 58 3 77 13 73 8 -2 11 -20 9 -53 -4
-59 19 -87 74 -91 l34 -2 0 64 c0 54 3 67 20 77 11 7 20 20 20 29 0 14 -10 16
-52 15 -47 -1 -53 1 -54 20 -2 37 -32 63 -35 32z m-429 -120 c17 -31 10 -51
-28 -76 -19 -13 -23 -11 -47 12 -30 30 -32 49 -4 77 26 26 59 21 79 -13z m350
0 c17 -31 10 -51 -28 -76 -19 -13 -23 -11 -47 12 -30 30 -32 49 -4 77 26 26
59 21 79 -13z m142 -23 c2 -45 0 -55 -12 -53 -15 3 -26 67 -16 94 12 30 24 11
28 -41z"/>
<path d="M5899 611 c-21 -22 -29 -39 -29 -66 0 -27 8 -44 29 -66 40 -40 87
-40 126 1 l28 29 27 -29 c21 -22 37 -30 63 -30 43 0 91 35 84 61 -3 11 -1 22
4 25 32 19 -40 104 -89 104 -29 0 -82 -38 -82 -60 0 -6 -15 5 -34 24 -43 47
-85 49 -127 7z m92 -21 c32 -18 21 -27 -31 -27 -52 0 -63 9 -32 26 22 13 39
13 63 1z m187 -2 c21 -21 14 -25 -38 -25 -27 0 -50 1 -50 3 0 1 7 10 16 18 18
19 55 21 72 4z m-168 -74 c-26 -30 -50 -36 -76 -19 -38 25 -29 35 32 35 50 0
55 -2 44 -16z m184 2 c-3 -7 -16 -18 -30 -25 -20 -9 -30 -8 -49 5 -38 25 -30
34 30 34 42 0 53 -3 49 -14z"/>
<path d="M6319 611 c-50 -50 -34 -134 31 -161 30 -12 64 -2 85 27 9 12 14 11
29 -6 27 -30 81 -28 110 4 29 32 34 31 28 -1 -4 -21 -1 -25 14 -22 16 3 20 15
24 67 4 45 10 67 22 75 26 16 33 1 30 -70 -3 -51 0 -65 13 -70 24 -10 28 1 26
64 -2 62 14 90 44 78 11 -4 15 -22 15 -70 0 -67 7 -80 34 -70 12 5 16 21 16
74 0 62 -2 71 -26 89 -30 23 -64 27 -82 9 -9 -9 -17 -9 -34 0 -13 6 -39 10
-58 8 -28 -3 -35 -8 -34 -25 1 -27 -7 -27 -36 4 -29 31 -68 32 -103 5 l-26
-21 -21 21 c-29 29 -66 25 -101 -9z m88 -33 c29 -27 29 -36 -1 -73 -20 -25
-28 -28 -43 -19 -29 18 -44 54 -31 78 22 41 42 45 75 14z m142 8 c19 -22 9
-77 -16 -93 -19 -13 -24 -12 -42 6 -12 12 -21 32 -21 45 0 46 53 74 79 42z"/>
<path d="M6243 474 c-8 -21 13 -42 28 -27 13 13 5 43 -11 43 -6 0 -13 -7 -17
-16z"/>
</g>
</svg>
