<?xml version="1.0" standalone="no"?>
<!DOCTYPE svg PUBLIC "-//W3C//DTD SVG 20010904//EN"
 "http://www.w3.org/TR/2001/REC-SVG-20010904/DTD/svg10.dtd">
<svg version="1.0" xmlns="http://www.w3.org/2000/svg"
 width="1200.000000pt" height="1200.000000pt" viewBox="0 0 1200.000000 1200.000000"
 preserveAspectRatio="xMidYMid meet">

<g transform="translate(0.000000,1200.000000) scale(0.100000,-0.100000)"
fill="#000000" stroke="none">
<path d="M5797 643 c-4 -3 -7 -17 -7 -30 0 -26 -3 -27 -101 -24 -57 1 -69 -2
-92 -23 -15 -14 -27 -35 -28 -48 -1 -18 -3 -16 -10 9 -13 46 -46 64 -105 60
l-49 -3 -3 -93 c-3 -84 -1 -92 15 -89 14 2 19 14 21 53 4 79 10 95 35 95 37 0
47 -19 47 -88 0 -55 2 -63 18 -60 12 2 18 15 20 48 l4 45 11 -35 c15 -45 76
-78 113 -61 15 7 24 7 24 1 0 -6 -11 -15 -25 -22 -19 -9 -29 -8 -49 6 -47 31
-78 9 -38 -27 44 -40 121 -28 147 24 9 17 15 56 15 99 0 56 3 70 15 70 12 0
15 -14 15 -65 0 -73 11 -85 74 -85 l36 0 0 69 c0 61 3 70 20 76 11 4 20 15 20
26 0 17 -5 19 -42 16 -52 -5 -68 0 -68 23 0 20 -23 43 -33 33z m-91 -118 c19
-29 11 -60 -22 -81 -22 -15 -26 -15 -49 0 -27 18 -33 53 -15 87 16 28 65 25
86 -6z m154 -35 c0 -49 -3 -58 -15 -54 -11 5 -15 21 -15 60 0 41 4 54 15 54
12 0 15 -13 15 -60z"/>
<path d="M5203 577 c-7 -12 -5 -215 2 -227 11 -17 35 9 35 37 0 21 2 22 21 13
51 -28 129 30 129 97 0 25 -8 43 -29 64 -27 27 -35 29 -91 27 -34 -2 -64 -7
-67 -11z m131 -49 c22 -32 20 -51 -10 -79 -23 -22 -27 -23 -52 -8 -30 16 -40
56 -22 89 15 28 64 27 84 -2z"/>
<path d="M5959 561 c-77 -77 13 -207 109 -157 17 9 36 25 42 36 10 19 12 18
38 -10 38 -42 78 -48 122 -18 38 26 52 58 25 58 -9 0 -29 -9 -44 -21 -32 -24
-59 -20 -79 11 -12 19 -10 20 63 20 86 0 96 9 71 59 -20 37 -44 51 -88 51 -39
0 -76 -23 -88 -54 -8 -21 -8 -21 -15 -1 -23 60 -107 74 -156 26z m109 -28 c2
-9 -10 -13 -42 -13 -37 0 -44 3 -39 16 7 18 74 16 81 -3z m192 2 c11 -13 5
-15 -40 -15 -45 0 -51 2 -40 15 7 8 25 15 40 15 15 0 33 -7 40 -15z m-155 -63
c-11 -4 -32 -15 -47 -25 -31 -21 -63 -16 -78 14 -10 18 -7 19 67 18 43 -1 69
-4 58 -7z"/>
<path d="M6401 566 c-82 -88 29 -237 114 -151 14 13 25 20 25 14 0 -16 63 -38
93 -32 15 3 36 17 47 31 l20 25 0 -27 c0 -19 5 -26 20 -26 18 0 20 7 20 64 0
67 15 94 45 82 11 -4 15 -22 15 -76 0 -63 2 -70 20 -70 18 0 20 7 20 59 0 75
6 91 36 91 22 0 23 -4 26 -72 2 -60 6 -73 21 -76 15 -3 17 6 17 76 0 64 -4 82
-18 95 -20 19 -59 22 -82 7 -9 -5 -19 -5 -26 1 -6 5 -33 8 -60 6 -41 -2 -50
-6 -52 -24 -3 -21 -3 -21 -27 3 -31 31 -94 33 -119 5 -17 -19 -18 -19 -37 0
-28 28 -89 26 -118 -5z m103 -41 c9 -13 16 -29 16 -35 0 -18 -43 -60 -61 -60
-20 0 -49 36 -49 60 0 27 30 60 54 60 14 0 30 -10 40 -25z m144 13 c19 -19 14
-73 -8 -93 -42 -38 -94 18 -71 78 8 21 17 27 39 27 15 0 33 -5 40 -12z"/>
<path d="M6324 419 c-8 -14 11 -33 25 -25 6 4 11 14 11 22 0 16 -26 19 -36 3z"/>
</g>
</svg>
