<?xml version="1.0" standalone="no"?>
<!DOCTYPE svg PUBLIC "-//W3C//DTD SVG 20010904//EN"
 "http://www.w3.org/TR/2001/REC-SVG-20010904/DTD/svg10.dtd">
<svg version="1.0" xmlns="http://www.w3.org/2000/svg"
 width="4167.000000pt" height="4167.000000pt" viewBox="0 0 4167.000000 4167.000000"
 preserveAspectRatio="xMidYMid meet">

<g transform="translate(0.000000,4167.000000) scale(0.100000,-0.100000)"
fill="#000000" stroke="none">
<path d="M19483 38131 c-143 -53 -223 -160 -223 -299 0 -88 32 -155 104 -218
l51 -46 -30 -253 c-16 -140 -34 -258 -40 -263 -5 -5 -36 -19 -67 -31 -94 -34
-217 -99 -314 -166 l-92 -64 -267 123 -268 122 -18 61 c-24 77 -70 139 -134
178 -45 28 -55 30 -144 30 -82 0 -104 -4 -146 -25 -67 -32 -143 -112 -179
-185 -41 -84 -48 -204 -16 -289 26 -67 83 -131 145 -161 73 -35 180 -32 275 9
10 4 80 -42 205 -134 105 -78 194 -145 198 -149 5 -5 -3 -32 -18 -61 -58 -114
-116 -339 -127 -489 l-3 -35 -184 -50 c-178 -48 -184 -49 -210 -32 -14 10 -51
29 -81 44 -147 70 -312 4 -392 -157 -20 -40 -23 -61 -23 -156 0 -98 3 -116 27
-167 82 -175 265 -251 421 -175 57 28 109 81 141 144 15 31 17 31 108 37 51 3
130 7 176 9 l83 2 38 -91 c78 -184 185 -339 333 -479 52 -50 116 -104 141
-120 26 -17 47 -35 47 -41 0 -20 -179 -409 -192 -416 -7 -3 -33 -12 -58 -18
-98 -25 -179 -112 -200 -217 -30 -143 56 -304 201 -375 280 -136 559 72 470
350 l-23 69 152 206 151 206 37 -7 c52 -10 385 -9 458 1 l61 9 122 -214 123
-213 -18 -50 c-26 -70 -25 -176 2 -236 113 -247 518 -225 644 36 29 59 38 165
21 228 -27 94 -129 183 -232 202 l-35 6 -72 227 c-60 189 -69 228 -57 235 43
24 190 155 244 218 72 82 146 191 186 268 l27 54 181 -7 c100 -3 234 -9 299
-13 l116 -6 31 -44 c35 -49 106 -98 166 -114 137 -37 290 43 362 189 25 52 28
67 28 167 0 98 -3 116 -26 165 -14 30 -43 72 -64 94 -114 115 -301 116 -417 2
l-37 -36 -245 65 c-135 36 -248 65 -251 65 -3 0 -5 27 -5 60 0 281 -85 555
-250 806 l-20 30 151 139 151 138 101 1 c113 1 156 17 216 77 159 159 87 461
-136 570 -37 18 -69 24 -138 27 -84 3 -94 2 -145 -25 -93 -49 -142 -131 -158
-264 l-7 -53 -213 -124 -213 -124 -102 50 c-132 66 -234 99 -382 127 l-120 22
-23 237 -23 237 49 54 c110 120 111 279 1 399 -69 76 -146 109 -264 113 -70 3
-101 -1 -142 -16z m210 -185 c48 -20 87 -70 87 -113 0 -36 -17 -56 -101 -124
-28 -22 -32 -32 -31 -70 1 -83 52 -614 63 -652 13 -50 39 -63 134 -71 202 -17
398 -82 561 -186 26 -16 60 -30 76 -30 18 0 133 61 324 172 335 195 332 192
313 286 -10 48 -9 63 4 95 35 82 136 83 213 3 72 -75 82 -171 22 -221 -35 -30
-79 -32 -138 -9 -29 12 -49 14 -70 8 -43 -13 -477 -412 -490 -450 -14 -41 -4
-64 65 -155 61 -80 142 -237 174 -338 43 -134 55 -211 56 -383 1 -171 4 -186
45 -208 35 -19 665 -180 702 -180 31 0 44 6 61 27 69 84 94 103 135 103 31 0
46 -7 70 -31 94 -96 29 -299 -95 -299 -42 0 -71 25 -100 86 -14 30 -35 60 -46
65 -11 6 -189 19 -406 29 -327 15 -390 16 -412 4 -18 -9 -41 -43 -72 -107 -87
-179 -235 -349 -400 -461 -77 -53 -107 -86 -107 -119 0 -7 45 -154 100 -327
114 -358 115 -360 203 -360 69 0 118 -26 136 -73 12 -33 11 -40 -9 -83 -55
-113 -213 -148 -286 -61 -32 37 -28 79 11 138 14 22 25 53 25 71 0 48 -327
616 -366 636 -25 13 -40 12 -143 -8 -148 -30 -314 -32 -459 -5 -102 18 -103
18 -130 -2 -29 -22 -418 -545 -428 -575 -9 -28 3 -66 34 -106 34 -44 38 -118
8 -151 -25 -27 -86 -44 -131 -35 -77 14 -165 103 -165 168 0 60 62 106 144
106 33 0 49 6 66 23 30 31 279 584 280 620 0 45 -15 63 -108 124 -48 32 -124
93 -169 137 -152 145 -244 287 -313 485 -55 154 -35 146 -331 132 -134 -7
-264 -14 -288 -17 -47 -6 -91 -42 -91 -76 0 -64 -78 -138 -132 -125 -128 33
-163 255 -51 320 46 26 86 15 137 -38 22 -24 53 -46 68 -50 18 -5 108 16 289
65 145 40 273 77 284 83 35 18 42 39 49 136 14 195 67 381 152 536 36 65 43
110 22 138 -7 9 -136 109 -287 222 -250 187 -278 205 -314 205 -28 0 -51 -8
-74 -26 -37 -28 -88 -40 -128 -30 -60 15 -84 121 -44 203 72 149 249 138 249
-17 0 -85 -4 -82 385 -259 278 -127 362 -161 383 -156 15 3 62 34 105 68 108
86 230 154 356 197 140 48 149 53 160 98 5 20 26 184 47 364 27 236 35 335 28
355 -6 18 -24 36 -53 50 -74 38 -105 74 -103 124 2 88 142 148 245 105z"/>
<path d="M19374 36500 c-118 -47 -194 -153 -194 -269 0 -119 65 -212 185 -268
52 -24 73 -28 150 -28 76 0 99 4 146 27 73 33 128 84 159 145 20 38 25 63 25
123 0 64 -4 83 -30 128 -33 61 -66 92 -139 129 -43 23 -66 27 -151 30 -82 3
-109 -1 -151 -17z m188 -170 c49 -14 98 -63 98 -99 0 -76 -119 -134 -207 -100
-110 41 -109 155 2 194 49 17 60 18 107 5z"/>
<path d="M20100 36041 c-84 -27 -158 -101 -186 -183 -25 -75 -16 -195 20 -270
57 -119 159 -190 284 -196 63 -4 80 -1 127 22 58 29 93 64 128 130 19 35 22
57 22 146 0 96 -2 110 -29 163 -33 65 -102 134 -165 167 -47 23 -159 35 -201
21z m152 -218 c53 -50 74 -114 57 -175 -37 -139 -219 -51 -219 106 0 40 5 53
30 78 27 26 36 30 67 25 20 -4 49 -19 65 -34z"/>
<path d="M19313 35560 c-142 -30 -231 -145 -221 -287 9 -123 82 -224 206 -285
58 -29 74 -32 151 -32 73 0 94 4 137 27 64 33 106 74 134 132 30 62 26 177
-10 250 -68 139 -246 227 -397 195z m151 -205 c45 -22 87 -81 88 -124 2 -64
-68 -103 -146 -81 -128 36 -171 181 -66 223 24 10 84 1 124 -18z"/>
<path d="M29770 34159 c-120 -20 -221 -93 -272 -196 -43 -89 -45 -179 -4 -264
24 -52 86 -121 129 -145 16 -9 15 -30 -18 -304 -20 -162 -37 -294 -38 -295
-176 -55 -362 -152 -484 -252 l-43 -34 -301 138 -302 138 -17 61 c-41 150
-148 237 -295 238 -86 0 -154 -22 -220 -72 -112 -85 -170 -202 -169 -342 0
-96 25 -167 83 -233 75 -84 215 -118 326 -77 33 12 67 22 75 23 14 1 450 -317
450 -329 0 -2 -13 -30 -29 -62 -67 -132 -122 -335 -137 -503 l-6 -76 -210 -57
-209 -57 -59 39 c-136 91 -291 79 -400 -31 -180 -179 -125 -523 102 -636 51
-26 73 -31 133 -31 103 0 159 22 226 89 31 31 62 73 69 93 13 36 15 37 74 43
34 3 126 6 204 8 l144 2 24 -64 c96 -253 284 -504 500 -666 43 -32 83 -62 87
-65 4 -4 -39 -112 -97 -240 l-104 -234 -51 -13 c-103 -26 -175 -82 -222 -173
-19 -36 -23 -61 -24 -130 0 -77 3 -92 33 -152 136 -277 538 -317 672 -67 31
58 34 72 34 144 -1 61 -6 92 -23 132 l-23 52 168 231 169 231 35 -6 c19 -2
109 -8 200 -11 150 -6 252 0 355 21 l30 7 139 -242 139 -242 -22 -61 c-59
-169 6 -330 162 -403 186 -86 439 9 533 201 25 52 29 71 29 145 0 73 -4 92
-27 136 -15 28 -48 70 -74 92 -44 40 -134 82 -174 82 -10 0 -21 4 -24 8 -2 4
-40 119 -84 255 l-80 248 72 53 c155 117 366 368 430 514 l19 42 76 -1 c42 0
192 -6 334 -12 240 -12 260 -14 269 -32 6 -11 37 -46 68 -77 46 -45 70 -60
116 -74 238 -69 462 141 441 414 -10 135 -81 247 -189 302 -52 26 -72 30 -137
30 -91 0 -155 -26 -225 -90 l-44 -41 -279 73 -278 73 -7 140 c-13 286 -98 555
-243 770 -26 39 -47 72 -48 75 -1 3 77 78 174 167 l176 162 39 -11 c55 -15
154 -4 210 23 61 29 114 82 145 145 21 42 24 63 24 149 0 92 -3 106 -32 168
-59 125 -175 216 -303 236 -195 32 -347 -91 -368 -298 l-7 -73 -239 -139 -239
-140 -121 60 c-171 84 -400 151 -517 151 -16 0 -29 1 -30 3 -1 1 -13 124 -28
272 l-26 270 45 45 c71 70 95 128 95 230 0 72 -4 92 -27 135 -75 144 -252 223
-428 194z m136 -190 c65 -17 124 -73 131 -125 7 -55 -17 -96 -80 -135 -26 -16
-52 -40 -58 -53 -14 -31 52 -752 72 -784 17 -28 51 -42 102 -42 178 0 474 -95
651 -208 28 -18 61 -32 75 -32 16 0 159 77 350 188 365 213 361 209 341 300
-14 63 -7 110 20 145 89 112 300 -12 300 -177 0 -110 -83 -164 -187 -121 -58
24 -97 19 -140 -17 -121 -104 -472 -430 -477 -444 -17 -44 -5 -77 59 -162 123
-164 216 -381 250 -585 11 -67 15 -146 14 -245 -2 -97 2 -154 9 -169 7 -12 31
-28 54 -37 55 -20 692 -188 735 -194 27 -3 38 2 65 30 18 19 41 47 52 63 10
15 38 36 61 46 60 26 107 11 150 -49 27 -39 30 -52 30 -115 0 -60 -4 -80 -27
-119 -73 -124 -191 -116 -255 18 -16 35 -33 56 -51 63 -24 9 -580 39 -795 42
-95 2 -104 -5 -157 -116 -21 -44 -62 -116 -91 -159 -69 -104 -227 -267 -331
-341 -123 -87 -128 -93 -128 -138 0 -37 187 -641 216 -698 16 -32 55 -48 115
-48 88 1 144 -46 144 -121 0 -123 -158 -222 -280 -176 -90 35 -111 111 -55
199 51 81 50 82 -146 425 -97 169 -186 317 -197 330 -26 28 -60 28 -195 2
-131 -25 -326 -27 -474 -3 -75 12 -116 14 -135 7 -19 -6 -92 -98 -252 -314
-251 -339 -252 -342 -198 -413 14 -19 32 -55 38 -79 40 -147 -161 -209 -292
-91 -118 107 -72 253 80 253 81 0 91 14 250 371 78 173 141 324 141 335 -1 37
-27 65 -115 123 -262 170 -440 402 -544 705 -17 49 -40 99 -51 110 -24 24 -48
24 -432 3 -248 -14 -247 -14 -273 -103 -19 -65 -54 -109 -100 -124 -77 -26
-175 61 -191 169 -10 69 9 129 57 175 38 36 44 38 86 33 38 -4 54 -13 97 -56
44 -44 57 -51 90 -51 46 0 581 145 614 166 32 21 38 44 45 174 10 185 69 388
163 556 33 59 41 95 28 129 -4 9 -144 120 -312 246 -345 259 -341 257 -425
198 -88 -61 -172 -46 -209 38 -46 104 27 250 142 284 83 25 160 -38 160 -132
0 -67 17 -97 69 -124 97 -48 708 -324 733 -330 31 -8 56 4 123 60 119 99 268
182 426 235 125 42 136 48 148 79 18 43 101 770 91 796 -10 25 -56 65 -76 65
-25 0 -84 62 -95 99 -9 32 -8 44 6 74 22 48 46 67 107 88 63 22 75 22 134 8z"/>
<path d="M29625 32366 c-102 -32 -187 -103 -226 -189 -28 -62 -26 -167 5 -232
92 -194 372 -257 558 -126 219 154 159 460 -104 543 -69 21 -174 23 -233 4z
m202 -196 c44 -19 83 -69 83 -105 0 -36 -39 -86 -83 -105 -49 -23 -124 -26
-170 -6 -47 19 -87 70 -87 111 0 40 39 91 85 111 44 19 123 17 172 -6z"/>
<path d="M30369 31845 c-60 -19 -127 -79 -164 -146 -28 -50 -30 -61 -30 -159
0 -97 2 -110 32 -172 127 -269 464 -291 578 -37 25 56 27 69 23 158 -4 111
-29 175 -97 253 -84 95 -230 139 -342 103z m176 -210 c90 -68 107 -208 33
-270 -26 -22 -39 -26 -70 -22 -52 7 -101 46 -128 102 -18 37 -21 58 -18 107 4
54 8 64 38 91 28 25 39 28 72 24 21 -3 54 -17 73 -32z"/>
<path d="M29495 31317 c-68 -23 -101 -44 -144 -93 -166 -189 -19 -498 257
-543 148 -24 278 35 340 154 23 43 27 63 27 135 0 78 -3 90 -34 148 -67 124
-188 201 -329 208 -48 2 -92 -1 -117 -9z m180 -196 c79 -36 131 -126 109 -189
-36 -100 -216 -83 -285 26 -16 26 -29 60 -29 78 0 35 31 81 64 94 35 15 99 11
141 -9z"/>
<path d="M14345 33649 c-862 -22 -1463 -68 -1665 -125 -101 -29 -165 -101
-219 -249 -135 -372 -146 -1134 -20 -1508 47 -142 103 -224 180 -263 54 -27
218 -58 387 -72 56 -5 105 -11 107 -14 3 -3 0 -99 -6 -214 -13 -238 -6 -1265
10 -1619 34 -700 53 -1031 96 -1645 14 -195 26 -377 28 -405 l2 -49 -1629
-1158 c-896 -636 -1667 -1190 -1714 -1229 -263 -224 -479 -573 -571 -921 -51
-192 -64 -315 -58 -548 6 -225 26 -348 87 -531 40 -122 134 -317 206 -427 201
-310 489 -552 830 -699 217 -93 420 -139 657 -150 l138 -6 -6 -41 c-3 -23 -21
-268 -40 -546 -367 -5336 -410 -9000 -124 -10435 156 -785 397 -1032 1194
-1225 1162 -282 3689 -456 7265 -500 465 -6 967 -13 1115 -15 317 -5 247 -5
715 0 2342 26 3258 44 4425 90 2928 114 4857 302 5622 546 163 52 283 105 374
164 442 286 605 973 670 2830 14 407 14 1825 0 2400 -47 1888 -150 3937 -311
6172 -22 304 -40 554 -40 556 0 2 62 7 138 10 465 21 882 202 1221 531 277
270 467 627 537 1011 23 126 26 498 6 615 -50 280 -149 532 -294 749 -176 262
-435 493 -705 630 -32 16 -2360 1664 -5173 3662 -2813 1998 -5145 3652 -5183
3676 -558 363 -1314 387 -1904 62 -54 -30 -817 -565 -1713 -1201 l-1615 -1147
-6 419 c-4 231 -10 459 -13 508 l-7 89 93 7 c132 10 304 34 363 51 123 35 191
171 231 460 23 163 26 701 6 895 -32 305 -85 527 -146 619 -35 53 -90 79 -216
105 -182 37 -597 68 -1135 86 -348 11 -1746 11 -2190 -1z m2245 -189 c673 -25
1092 -67 1141 -117 45 -45 98 -324 120 -632 15 -207 6 -627 -15 -766 -18 -114
-48 -220 -71 -252 -9 -12 -33 -27 -54 -33 -110 -29 -527 -58 -1211 -82 -474
-16 -2260 -16 -2680 0 -672 27 -1031 57 -1104 93 -151 74 -225 784 -136 1304
25 146 72 291 107 332 21 25 43 37 88 48 218 53 1130 104 2125 119 338 5 1406
-4 1690 -14z m5336 -694 c207 -44 406 -124 566 -229 46 -29 2383 -1687 5194
-3684 3506 -2490 5142 -3646 5209 -3681 134 -71 240 -149 363 -267 258 -247
416 -530 494 -888 20 -89 23 -131 23 -327 0 -247 -12 -326 -75 -522 -164 -501
-581 -917 -1081 -1076 -169 -54 -279 -73 -469 -79 -263 -8 -479 26 -699 111
-184 71 -267 120 -599 356 -205 145 -230 165 -210 173 32 11 58 47 58 80 0 15
-22 71 -49 125 -66 131 -156 361 -186 474 -27 104 -47 128 -101 128 -45 0 -80
-24 -94 -64 -17 -54 27 -199 158 -513 33 -79 54 -139 48 -135 -7 4 -123 86
-259 182 -218 155 -243 175 -217 178 66 7 95 108 45 158 -13 13 -38 27 -55 30
-62 13 -111 90 -174 274 -42 126 -62 216 -71 330 -9 102 -16 117 -62 136 -47
20 -97 4 -119 -38 -41 -79 35 -436 136 -642 22 -44 38 -81 37 -82 -2 -1 -1271
899 -1342 952 -16 12 -17 16 -6 21 33 13 61 53 61 84 0 25 -13 45 -64 99 -134
143 -205 334 -226 614 -8 102 -12 122 -31 142 -31 33 -102 34 -136 2 -21 -19
-23 -31 -23 -106 0 -213 65 -468 162 -635 16 -27 24 -47 19 -45 -5 1 -109 73
-230 158 l-220 155 -26 79 c-14 43 -61 217 -105 385 -103 402 -160 568 -205
597 -31 21 -88 21 -120 0 -41 -27 -41 -56 3 -173 22 -60 54 -155 71 -213 44
-155 123 -472 117 -477 -2 -2 -106 68 -231 158 l-228 162 30 12 c36 15 63 51
63 82 0 12 -47 113 -104 225 -124 239 -181 364 -287 628 -43 107 -88 205 -100
218 -31 32 -101 31 -134 -3 -14 -13 -25 -36 -25 -51 0 -66 254 -654 398 -922
33 -62 57 -112 52 -110 -13 4 -640 449 -645 458 -2 4 1 21 7 37 10 27 8 37
-15 79 -121 221 -195 397 -277 665 -54 175 -86 307 -110 453 -11 65 -25 125
-32 134 -21 25 -74 42 -108 36 -39 -8 -60 -38 -60 -86 0 -53 45 -293 81 -428
43 -165 149 -478 202 -597 25 -57 44 -103 42 -103 -2 0 -129 89 -282 198
l-278 198 3 36 c4 44 -21 95 -53 110 -33 15 -72 118 -119 308 -68 282 -116
577 -116 722 0 83 -11 113 -49 133 -43 22 -75 19 -110 -11 -29 -24 -31 -30
-31 -99 0 -168 37 -419 114 -766 25 -112 44 -204 43 -205 -1 -1 -135 93 -297
208 -224 160 -298 217 -308 241 -7 17 -30 46 -52 65 -53 45 -57 54 -80 179
-21 114 -44 204 -134 527 -48 171 -75 290 -101 450 -9 57 -43 86 -101 86 -63
0 -84 -19 -84 -79 0 -93 47 -307 148 -676 50 -184 77 -306 71 -324 -2 -6 -161
101 -354 238 l-350 248 -5 51 c-3 28 -13 59 -22 69 -10 10 -26 39 -37 63 -21
48 -86 346 -126 575 -20 112 -29 143 -46 158 -44 35 -126 12 -149 -43 -11 -27
-8 -54 19 -208 18 -97 48 -242 66 -322 18 -80 32 -146 31 -147 -1 -2 -156 106
-344 240 l-341 242 20 21 c27 29 24 58 -16 167 -50 139 -110 366 -151 567 -37
189 -48 210 -105 210 -44 0 -77 -20 -94 -57 -16 -32 -15 -42 10 -171 34 -180
77 -353 119 -487 19 -60 34 -111 32 -113 -2 -1 -136 91 -297 206 -162 114
-312 220 -334 235 -72 49 -81 45 -333 -133 -124 -88 -227 -158 -229 -156 -7 7
19 234 44 376 41 233 41 234 5 270 -52 51 -131 39 -150 -22 -36 -117 -84 -471
-86 -634 l-1 -130 -273 -195 c-151 -107 -279 -197 -286 -201 -29 -17 -7 81 47
207 113 265 184 463 243 675 47 171 45 204 -16 235 -73 38 -120 7 -145 -97
-53 -223 -172 -551 -329 -906 -42 -95 -76 -184 -76 -198 0 -14 7 -39 16 -56
13 -25 14 -33 2 -43 -17 -16 -1228 -875 -1233 -875 -6 0 180 548 276 814 44
121 79 232 79 248 0 69 -98 105 -155 56 -30 -27 -96 -204 -286 -768 -82 -242
-128 -393 -124 -407 3 -12 15 -31 26 -42 21 -19 20 -19 -288 -238 -708 -504
-792 -563 -798 -563 -11 0 5 85 66 359 32 145 68 319 79 387 19 113 20 126 5
153 -28 55 -103 78 -144 44 -16 -14 -26 -48 -46 -158 -14 -77 -50 -250 -80
-385 -58 -264 -80 -400 -71 -436 4 -13 16 -33 28 -44 12 -11 18 -23 14 -27
-14 -15 -501 -360 -504 -357 -2 1 6 44 17 96 33 155 131 766 131 820 0 11 -15
35 -34 54 -26 26 -43 34 -69 34 -70 0 -72 -6 -117 -310 -23 -151 -61 -375 -86
-497 -49 -246 -51 -269 -29 -300 14 -21 14 -23 -12 -42 -117 -86 -479 -341
-483 -341 -9 0 7 163 25 259 9 47 34 168 56 268 21 101 39 194 39 209 0 39
-50 84 -95 84 -49 0 -71 -14 -84 -52 -18 -57 -99 -448 -115 -559 -29 -197 -19
-260 44 -276 27 -8 3 -26 -383 -300 -226 -161 -413 -291 -414 -289 -2 1 8 36
22 76 64 188 133 569 142 783 6 145 6 148 -17 172 -30 32 -95 34 -133 5 -22
-18 -26 -29 -31 -112 -12 -172 -27 -282 -62 -461 -42 -213 -74 -327 -114 -407
-43 -85 -39 -140 13 -167 15 -8 -43 -52 -330 -256 -191 -135 -349 -244 -351
-242 -2 2 14 79 36 172 23 92 48 209 57 258 18 97 32 420 21 481 -11 56 -45
84 -104 84 -78 0 -86 -16 -79 -144 12 -183 -11 -356 -90 -679 -49 -205 -49
-227 3 -258 24 -15 22 -17 -263 -219 -159 -112 -310 -220 -337 -239 l-49 -35
6 104 c4 58 21 191 37 295 17 105 33 240 36 300 6 102 5 112 -14 136 -27 34
-73 43 -118 24 -43 -18 -50 -36 -57 -160 -3 -55 -20 -192 -37 -305 -37 -245
-48 -387 -31 -417 6 -12 26 -27 45 -34 l34 -12 -172 -124 c-96 -68 -175 -123
-177 -123 -2 0 -4 53 -5 118 -1 73 -11 182 -28 291 -15 96 -31 219 -35 274 -7
92 -10 102 -35 124 -44 38 -120 26 -146 -23 -18 -32 -8 -174 30 -447 36 -259
36 -305 6 -419 l-23 -88 -282 -200 c-156 -111 -285 -199 -287 -197 -14 14 81
437 166 741 48 172 50 207 14 235 -37 29 -103 28 -132 -2 -45 -48 -232 -799
-232 -933 0 -39 39 -89 76 -98 26 -7 24 -9 -37 -53 -210 -153 -373 -248 -526
-307 -515 -199 -1087 -136 -1543 170 -622 416 -893 1193 -664 1906 91 287 267
556 484 745 47 41 828 601 1736 1246 2247 1595 5250 3727 7271 5164 1768 1257
1786 1268 1996 1342 222 78 376 102 612 96 131 -3 198 -10 291 -29z m-8241
-1377 c132 -6 684 -13 1226 -16 l986 -6 12 -51 c25 -118 34 -211 35 -383 0
-100 -2 -185 -7 -189 -4 -4 -172 3 -375 16 -523 34 -934 33 -1402 -5 -243 -19
-422 -28 -605 -29 l-260 -1 1 275 c1 151 4 305 8 342 l8 68 66 -5 c37 -3 175
-10 307 -16z m3468 -1 c3 -13 9 -147 13 -299 l7 -276 -85 -6 c-46 -4 -176 -21
-289 -38 -164 -24 -249 -32 -435 -36 l-231 -6 -6 249 c-4 166 -11 274 -21 324
-9 41 -16 75 -16 76 0 1 143 5 318 9 174 4 380 11 457 15 273 13 282 13 288
-12z m17 -941 l0 -173 -215 -152 c-212 -150 -216 -152 -240 -136 -19 12 -49
15 -141 15 -64 -1 -119 -3 -123 -5 -4 -3 -133 -10 -286 -16 -419 -16 -790 -54
-1394 -141 -151 -21 -287 -39 -303 -39 l-28 0 0 98 c0 108 -23 278 -70 516
-17 87 -29 160 -26 163 12 13 393 25 636 20 398 -8 966 -44 1010 -64 28 -13
42 -14 77 -4 24 6 110 11 191 11 195 0 376 15 607 50 105 16 216 29 248 29
l57 1 0 -173z m-3011 61 c5 -29 22 -111 36 -183 40 -209 55 -323 55 -437 l0
-108 -26 -6 c-55 -14 -330 5 -524 36 -107 17 -240 34 -296 37 l-101 6 -7 96
c-3 53 -6 206 -6 341 l0 245 273 2 c149 2 315 7 367 11 52 5 123 10 157 11
l62 1 10 -52z m2350 -702 c-9 -9 -1191 -846 -1194 -846 -1 0 -10 19 -20 42
-21 53 -33 214 -37 493 l-3 220 105 12 c307 34 1164 93 1149 79z m-1439 -293
c0 -221 16 -448 36 -531 9 -35 14 -65 13 -66 -10 -8 -301 -59 -434 -76 -266
-34 -434 -44 -720 -44 -281 -1 -401 10 -565 48 l-55 12 -11 205 c-7 112 -15
294 -19 404 l-8 201 94 -7 c52 -4 182 -22 289 -39 357 -57 566 -51 1085 29
138 22 260 39 273 40 l22 1 0 -177z m11206 -4017 c3999 -2841 4669 -3320 4667
-3339 -14 -128 -12 -217 11 -522 35 -453 80 -1100 111 -1590 14 -220 32 -506
40 -635 67 -1051 140 -2608 175 -3725 33 -1056 38 -2570 11 -3165 -39 -849
-106 -1439 -191 -1696 l-21 -61 -87 -27 c-1388 -423 -7915 -681 -13312 -526
-2718 78 -4707 259 -5407 491 l-93 31 -25 83 c-214 700 -271 2763 -160 5735
57 1522 165 3434 286 5065 32 422 32 429 7 577 -2 13 1169 851 4647 3322 2558
1817 4655 3303 4661 3301 6 -2 2112 -1496 4680 -3319z m-11737 2911 c-211
-150 -546 -389 -744 -529 l-360 -257 -7 37 c-7 34 -48 598 -64 883 l-7 115
104 -17 c57 -10 187 -23 288 -30 270 -17 745 8 1041 55 47 7 96 14 109 15 16
1 -112 -96 -360 -272z m-2419 -6374 c0 -32 -7 -139 -15 -238 -8 -99 -15 -192
-15 -208 0 -24 -3 -27 -25 -21 -19 5 -49 -7 -122 -49 -54 -30 -161 -86 -238
-125 -162 -82 -261 -145 -327 -210 l-48 -46 0 29 c1 17 11 171 24 344 17 224
27 315 36 321 7 4 38 11 68 15 150 19 420 114 577 203 39 22 73 40 78 41 4 1
7 -25 7 -56z m19070 -7 c30 -16 101 -48 158 -71 l103 -42 -87 -124 c-148 -210
-209 -287 -211 -264 -2 11 -9 108 -18 215 -16 215 -19 324 -7 318 4 -2 32 -16
62 -32z m581 -187 l87 -13 5 -60 c4 -34 11 -135 18 -225 l12 -163 -25 -22
c-14 -11 -51 -58 -82 -102 -32 -45 -133 -163 -224 -261 -196 -210 -234 -255
-295 -346 l-45 -68 -6 63 c-10 100 -46 631 -43 633 1 0 16 5 32 10 32 11 162
176 346 440 77 111 98 135 114 131 11 -3 59 -10 106 -17z m-19716 -743 c-9
-138 -20 -254 -24 -257 -3 -3 -37 -14 -75 -24 -106 -28 -223 -90 -447 -238
-113 -76 -211 -137 -218 -137 -9 0 -11 18 -7 68 4 37 11 137 16 222 6 85 13
185 16 222 l6 68 25 -20 c45 -36 86 -27 151 33 31 29 80 68 107 87 71 49 459
247 464 236 2 -4 -4 -121 -14 -260z m19874 -231 c7 -99 14 -210 17 -246 6 -65
6 -66 -19 -73 -16 -4 -63 -49 -123 -119 -53 -61 -185 -209 -294 -327 -109
-118 -207 -226 -218 -240 l-20 -25 -6 45 c-7 56 -26 360 -26 418 0 37 3 42 23
42 38 0 66 28 107 109 48 97 119 186 289 366 73 77 158 171 189 208 69 83 66
90 81 -158z m-19909 -262 c0 -21 -7 -132 -15 -248 -8 -115 -15 -213 -15 -217
0 -5 -7 -8 -15 -8 -8 0 -47 -30 -86 -66 -97 -89 -159 -129 -375 -244 -101 -55
-204 -113 -230 -130 -25 -18 -47 -30 -49 -28 -2 2 28 531 35 595 0 1 15 -1 33
-4 45 -7 98 21 305 161 93 63 193 129 223 147 48 28 161 77 182 79 4 0 7 -17
7 -37z m19950 -322 c0 -33 36 -607 45 -718 l6 -73 -38 0 c-47 -1 -53 -6 -134
-110 -37 -47 -115 -137 -175 -200 -155 -165 -344 -361 -344 -358 -7 80 -40
650 -40 688 0 54 1 56 84 155 46 55 171 195 278 310 107 116 219 238 249 272
30 35 57 63 62 63 4 0 7 -13 7 -29z m-20014 -710 c-8 -128 -16 -234 -18 -235
-2 -1 -104 -50 -228 -110 -256 -122 -352 -176 -451 -252 -62 -48 -69 -52 -69
-31 0 16 28 477 30 495 0 1 14 2 30 2 21 0 43 12 73 39 67 61 150 113 334 210
170 88 284 159 300 183 15 23 14 -62 -1 -301z m20089 -525 c21 -342 21 -342
-10 -350 -15 -4 -39 -26 -58 -53 -62 -90 -145 -190 -306 -368 -90 -99 -190
-215 -224 -257 -34 -42 -64 -75 -67 -72 -3 3 -12 141 -21 307 -16 292 -16 302
2 316 10 7 51 51 90 98 39 46 155 172 259 279 103 108 216 230 251 273 35 43
65 77 66 77 1 -1 9 -113 18 -250z m-20130 -197 c-14 -226 -18 -266 -33 -277
-9 -7 -84 -49 -167 -94 -393 -212 -469 -257 -532 -317 l-33 -30 1 62 c0 34 6
156 12 272 l12 209 34 7 c21 4 44 20 63 43 35 43 119 108 208 162 72 43 443
234 447 230 2 -1 -4 -121 -12 -267z m20189 -889 c14 -261 14 -286 -1 -295 -45
-28 -499 -586 -622 -765 l-49 -71 -6 53 c-3 29 -10 172 -16 318 -5 146 -13
308 -16 360 l-6 95 29 11 c19 7 41 31 66 73 56 95 137 198 268 344 66 73 166
185 222 250 l102 118 7 -103 c4 -57 14 -231 22 -388z m-20219 328 c-6 -75 -25
-452 -25 -509 0 -36 -2 -39 -27 -39 -14 0 -119 -48 -232 -107 -363 -189 -337
-177 -415 -181 l-71 -4 12 239 c6 131 12 243 12 250 1 8 8 8 29 1 43 -17 79
-3 108 42 15 22 49 57 76 77 46 34 514 292 531 293 4 0 5 -28 2 -62z m-40
-825 c-5 -66 -35 -764 -35 -809 0 -8 -10 -18 -22 -23 -13 -5 -54 -34 -92 -65
-76 -63 -200 -146 -381 -256 -66 -40 -146 -91 -177 -112 -31 -21 -61 -38 -66
-38 -6 0 -8 28 -6 63 2 34 11 265 19 512 9 248 18 468 21 491 l5 40 59 -4 c87
-6 159 20 425 158 127 65 236 119 243 119 9 1 11 -17 7 -76z m20300 -394 c8
-184 17 -386 20 -450 l6 -116 -40 0 c-39 0 -47 -7 -183 -144 -79 -79 -200
-198 -269 -264 -69 -66 -146 -148 -170 -183 l-44 -64 -6 154 c-4 84 -10 249
-14 366 l-7 212 24 0 c30 0 47 19 130 145 36 55 99 143 139 196 86 113 393
487 397 484 1 -1 9 -152 17 -336z m-20355 -1035 c-7 -198 -13 -365 -15 -371
-3 -7 -13 -13 -23 -13 -11 0 -39 -17 -63 -38 -68 -59 -200 -155 -298 -216 -90
-55 -286 -157 -330 -171 l-24 -7 7 288 c3 159 9 331 12 381 6 87 7 92 26 82
26 -14 51 -4 136 53 40 27 157 102 260 167 103 64 216 138 251 164 36 26 66
45 68 43 2 -2 -1 -165 -7 -362z m20395 23 l7 -254 -42 -69 c-70 -116 -116
-168 -313 -357 -194 -186 -296 -302 -328 -371 l-17 -39 -6 54 c-3 30 -8 174
-10 320 l-6 266 49 -5 c43 -4 53 -1 75 21 19 19 26 37 26 65 0 75 41 132 208
289 87 81 198 189 247 239 50 51 93 93 96 93 4 1 10 -113 14 -252z m28 -984
l6 -283 -43 0 c-54 0 -65 -9 -152 -125 -111 -148 -209 -259 -363 -411 -80 -79
-148 -144 -152 -144 -7 0 -19 415 -19 659 0 148 2 172 13 151 17 -34 76 -65
109 -57 18 5 50 38 97 101 47 62 125 144 229 239 87 80 181 172 208 203 l49
58 6 -54 c4 -30 9 -182 12 -337z m-20448 20 c-3 -186 -8 -411 -11 -501 l-6
-163 -238 -158 c-273 -182 -481 -313 -488 -307 -2 3 -1 245 3 539 l8 534 36 0
c84 -2 470 208 646 352 28 22 51 40 53 41 2 0 1 -152 -3 -337z m20464 -976 l1
-137 -91 -98 c-50 -53 -205 -239 -344 -412 -139 -173 -263 -325 -276 -337
l-24 -22 3 356 4 357 23 18 c13 10 26 27 30 37 3 10 80 87 172 172 166 154
297 297 422 462 l66 87 6 -172 c4 -95 7 -235 8 -311z m-20501 -808 c-45 -61
-182 -158 -391 -277 -117 -66 -232 -135 -255 -152 -24 -17 -45 -30 -47 -28 -1
2 -6 203 -10 448 l-7 445 82 43 c73 38 409 249 580 365 l65 44 3 -429 2 -429
-22 -30z m20498 9 c-3 -205 -9 -453 -12 -550 l-7 -177 -25 19 c-58 46 -57 46
-405 -300 -176 -176 -322 -318 -324 -317 -1 2 2 75 7 163 6 87 14 273 20 413
l9 254 79 81 c95 99 180 200 387 461 162 205 263 325 272 325 3 0 3 -168 -1
-372z m-20447 -940 c1 -32 -3 -48 -11 -48 -7 0 -65 -41 -128 -91 -94 -73 -482
-355 -525 -381 -30 -18 -35 11 -49 253 -8 134 -17 297 -20 362 l-6 117 25 10
c14 5 35 26 47 45 25 43 101 96 348 240 102 59 210 125 240 146 l55 39 12
-322 c6 -178 12 -344 12 -370z m20417 -90 c-7 -183 -32 -566 -41 -633 -5 -38
-11 -44 -93 -96 -48 -31 -192 -109 -321 -174 -129 -64 -263 -134 -299 -156
-36 -22 -66 -38 -68 -37 -1 2 4 53 12 113 8 61 21 173 29 250 l15 141 197 194
c109 106 281 278 383 382 101 103 186 188 189 188 2 0 1 -78 -3 -172z m-20392
-328 c4 -69 14 -192 22 -275 20 -211 20 -205 -16 -205 -25 0 -49 -18 -127 -90
-209 -198 -382 -339 -460 -377 -38 -18 -43 -19 -47 -4 -8 28 -35 229 -56 416
l-20 180 25 22 c14 12 141 105 283 207 141 101 284 204 317 229 40 30 62 42
66 34 4 -7 10 -68 13 -137z m20322 -612 c-3 -13 -10 -63 -16 -113 -34 -279
-104 -605 -167 -775 -68 -185 -161 -328 -265 -407 -51 -39 -157 -103 -171
-103 -4 0 0 17 9 38 124 287 215 547 255 729 19 84 19 93 5 122 -19 37 -47 53
-92 54 -52 1 -71 -25 -99 -141 -48 -199 -129 -425 -259 -726 -31 -72 -56 -138
-56 -147 0 -13 -19 -22 -77 -38 -194 -52 -510 -117 -520 -107 -6 6 -9 0 187
276 80 113 160 228 177 255 58 91 116 224 121 275 4 43 9 52 39 70 40 23 62
70 100 211 23 86 30 102 57 119 17 11 63 44 102 72 39 29 115 77 170 106 123
65 486 248 497 250 4 1 5 -8 3 -20z m-20175 -508 c17 -69 44 -153 60 -188 25
-56 33 -65 79 -86 l51 -24 -143 -117 c-79 -64 -190 -148 -248 -185 -58 -37
-115 -77 -127 -89 -53 -48 -5 -151 69 -151 36 0 154 64 240 131 82 64 363 293
393 320 l30 28 55 -14 c92 -25 446 -92 605 -115 83 -12 156 -24 163 -26 21 -6
-40 -85 -178 -228 -145 -150 -286 -270 -368 -314 -31 -17 -89 -39 -128 -50
l-71 -19 -119 28 c-233 53 -440 121 -575 189 -259 131 -386 320 -490 728 -21
84 -39 158 -39 165 0 9 16 13 48 13 36 0 62 8 100 30 55 31 285 223 422 352
l85 79 27 -166 c15 -91 42 -222 59 -291z m18994 -347 c-41 -100 -161 -277
-346 -513 -88 -113 -125 -175 -140 -235 -6 -27 -13 -51 -14 -52 -4 -7 -686
-96 -690 -91 -2 2 28 54 66 117 89 149 167 324 219 491 23 74 45 142 49 149 5
11 71 24 222 47 241 37 448 75 559 103 41 10 78 19 83 20 4 1 0 -16 -8 -36z
m-1065 -155 c0 -6 -16 -59 -36 -117 -45 -135 -164 -378 -245 -501 -34 -52 -65
-106 -69 -120 -7 -28 29 -23 -414 -64 -138 -13 -252 -22 -254 -21 -2 2 26 54
61 116 127 225 210 408 264 584 l18 60 220 22 c176 18 403 44 448 52 4 0 7 -4
7 -11z m-16210 -74 c129 -14 245 -27 258 -30 l23 -5 -27 -47 c-82 -141 -278
-346 -458 -478 -55 -41 -117 -87 -136 -103 l-35 -28 -252 36 c-139 20 -254 39
-257 42 -3 3 20 24 52 46 206 146 429 377 523 541 22 38 36 52 52 52 12 0 128
-11 257 -26z m15300 -99 c-17 -46 -50 -126 -73 -177 -41 -87 -195 -368 -250
-455 l-25 -39 -158 -12 c-351 -26 -757 -53 -765 -50 -5 2 29 60 75 129 158
237 246 409 282 552 13 54 21 68 38 71 11 2 190 16 396 31 206 15 377 29 379
31 2 2 33 4 67 4 l63 0 -29 -85z m-14525 24 c149 -13 272 -24 274 -26 3 -2
-18 -36 -45 -76 -45 -67 -316 -347 -508 -526 l-78 -73 -222 22 c-121 12 -236
25 -255 29 l-34 6 89 72 c186 149 369 359 450 516 21 43 44 77 49 77 6 0 132
-9 280 -21z m13425 -29 c0 -23 -63 -178 -100 -248 -71 -132 -313 -491 -335
-496 -11 -3 -162 -12 -335 -21 -173 -8 -354 -18 -402 -21 l-87 -6 67 133 c37
74 97 197 132 274 36 77 91 180 122 228 32 48 58 94 58 101 0 14 -4 14 480 41
151 9 286 17 300 19 56 7 100 5 100 -4z m-12525 -35 c160 -9 302 -19 317 -23
l28 -7 -39 -60 c-58 -91 -117 -151 -352 -361 -119 -106 -226 -206 -238 -223
-20 -27 -28 -31 -69 -31 -47 0 -635 41 -640 45 -1 1 87 91 196 201 212 213
280 296 340 412 l37 74 65 -6 c36 -3 196 -12 355 -21z m11407 -47 c-53 -91
-77 -139 -155 -309 -46 -101 -105 -220 -131 -264 -36 -60 -47 -87 -44 -111 l4
-31 -141 -7 c-77 -3 -255 -10 -395 -16 -140 -5 -308 -12 -372 -15 -79 -4 -118
-3 -118 4 0 13 285 513 366 641 l60 95 385 17 c377 17 491 22 537 26 l24 2
-20 -32z m-10224 -15 c237 -9 432 -20 432 -23 0 -4 -98 -100 -217 -216 -216
-208 -328 -332 -392 -432 l-33 -53 -72 6 c-39 3 -258 15 -486 26 -228 11 -428
24 -444 28 l-29 7 69 61 c38 33 125 110 194 170 176 154 287 300 334 437 6 17
14 18 109 13 56 -3 297 -14 535 -24z m9062 -9 c0 -3 -35 -65 -78 -137 -43 -73
-136 -234 -206 -359 -70 -125 -133 -231 -139 -236 -9 -8 -653 -33 -815 -32
l-34 0 21 28 c136 175 269 429 340 645 l23 67 96 1 c85 1 710 23 770 27 12 1
22 -1 22 -4z m-8017 -30 c188 -4 287 -10 287 -17 0 -6 -22 -52 -49 -103 -150
-280 -286 -449 -453 -562 -44 -31 -51 -32 -145 -32 -121 0 -657 21 -662 26
-12 11 112 145 334 361 138 134 268 266 290 293 37 47 43 50 75 46 19 -3 164
-8 323 -12z m6901 -71 c-37 -102 -146 -318 -202 -403 -28 -41 -78 -106 -111
-145 -34 -38 -66 -82 -72 -96 l-10 -27 -372 -7 c-205 -4 -385 -5 -400 -4 l-28
4 92 130 c149 210 260 384 314 490 28 55 51 102 53 105 3 5 314 14 624 18
l137 2 -25 -67z m-5586 38 l93 -6 -86 -130 c-89 -133 -229 -320 -342 -457 -35
-43 -69 -89 -75 -104 -12 -25 -14 -26 -87 -20 -42 3 -232 8 -423 12 -192 3
-348 8 -348 10 0 3 32 41 71 87 101 116 213 289 305 471 l79 156 360 -6 c198
-4 402 -9 453 -13z m4601 -68 c-23 -43 -68 -117 -100 -164 -59 -87 -305 -436
-337 -476 -17 -21 -21 -21 -476 -27 l-458 -6 34 43 c198 242 333 464 392 644
l18 53 346 3 c191 1 409 3 485 5 l139 2 -43 -77z m-3626 57 l198 0 -46 -89
c-70 -135 -200 -346 -305 -496 l-95 -134 -345 1 c-190 0 -397 3 -459 7 l-115
6 31 35 c108 125 338 448 433 609 l44 74 231 -6 c126 -4 319 -7 428 -7z m1317
-10 c0 -6 -25 -52 -56 -103 -73 -122 -181 -343 -240 -494 l-48 -123 -493 0
c-271 0 -493 3 -493 6 0 4 40 66 89 138 99 146 200 319 282 480 l53 106 453 0
c302 0 453 -3 453 -10z m1146 -67 c-65 -151 -137 -259 -366 -546 l-85 -106
-417 -1 -418 0 20 49 c45 115 76 183 136 303 65 126 206 356 227 370 7 4 220
8 474 8 l462 0 -33 -77z"/>
<path d="M19529 28590 c-9 -5 -21 -22 -27 -37 -24 -59 -72 -502 -72 -652 0
-94 22 -161 58 -180 44 -24 131 -3 146 34 9 24 7 73 -3 79 -5 3 -11 20 -14 38
-6 43 17 316 43 495 21 149 19 173 -18 206 -24 22 -90 32 -113 17z"/>
<path d="M18227 27618 c-19 -19 -28 -56 -55 -218 -38 -226 -82 -430 -117 -546
-28 -90 -31 -131 -12 -155 33 -43 102 -51 142 -16 42 36 100 264 165 643 41
246 40 268 -20 299 -41 21 -77 19 -103 -7z"/>
<path d="M28668 24770 c-46 -47 -38 -80 89 -345 61 -126 157 -329 214 -450
111 -234 127 -255 186 -240 36 9 83 59 83 89 0 13 -20 67 -44 118 -45 95 -264
560 -342 726 -25 51 -53 101 -64 112 -31 31 -85 27 -122 -10z"/>
<path d="M20693 25488 c-11 -13 -75 -131 -141 -263 -257 -509 -438 -815 -649
-1094 -35 -47 -66 -95 -69 -108 -15 -59 32 -123 89 -123 43 0 69 27 199 211
192 270 365 568 589 1012 154 306 156 313 97 362 -38 32 -87 33 -115 3z"/>
<path d="M21023 25148 c-11 -13 -38 -79 -60 -148 -22 -69 -82 -226 -133 -349
-101 -245 -170 -445 -170 -491 0 -43 37 -80 87 -87 37 -5 45 -2 73 25 16 17
30 37 30 46 0 32 72 232 168 466 110 269 162 422 162 476 0 51 -36 84 -93 84
-32 0 -49 -6 -64 -22z"/>
<path d="M21441 24981 c-34 -34 -124 -342 -161 -554 -22 -123 -40 -333 -32
-374 11 -60 111 -85 156 -40 21 21 25 37 31 128 13 192 57 408 130 645 42 133
43 157 10 189 -31 32 -105 35 -134 6z"/>
<path d="M25484 24420 c-29 -11 -64 -58 -64 -84 0 -12 -16 -55 -36 -96 -27
-55 -38 -93 -41 -141 -5 -62 -4 -67 22 -87 64 -50 146 -15 160 69 6 35 9 40
16 24 15 -38 9 -134 -11 -187 -37 -98 -20 -158 51 -179 50 -16 83 5 110 69 83
192 59 374 -72 547 -51 68 -87 85 -135 65z"/>
<path d="M15937 23408 c-39 -30 -139 -294 -171 -453 -15 -73 -35 -246 -36
-303 0 -35 52 -82 90 -82 43 0 89 26 94 53 3 12 10 74 15 137 14 146 49 282
112 439 45 111 49 127 39 156 -6 19 -22 40 -35 49 -29 19 -85 21 -108 4z"/>
<path d="M16745 22003 c-615 -50 -1067 -167 -1540 -398 -375 -183 -655 -384
-951 -679 -277 -278 -489 -565 -687 -933 -386 -717 -515 -1409 -396 -2118 66
-396 186 -738 476 -1360 326 -698 404 -906 448 -1203 42 -276 -23 -908 -125
-1222 -60 -185 -89 -230 -239 -385 -75 -77 -167 -178 -203 -225 -207 -267
-336 -570 -382 -897 -52 -362 -66 -1299 -26 -1688 9 -93 12 -102 40 -127 34
-31 67 -35 109 -13 40 20 51 59 41 142 -5 37 -14 197 -21 354 -18 419 8 1093
51 1351 39 235 150 504 287 698 81 115 318 353 447 450 333 251 790 455 1311
588 149 38 457 104 462 98 1 -1 -3 -18 -9 -38 -6 -20 -8 -52 -4 -71 24 -130
345 -391 1067 -871 233 -155 270 -176 305 -176 35 0 63 15 205 111 323 219
586 428 758 599 168 169 248 295 258 410 l6 62 62 -6 c150 -15 490 -91 728
-162 423 -126 852 -330 1008 -479 54 -51 103 -87 167 -120 75 -38 110 -65 199
-153 330 -326 510 -681 577 -1132 28 -192 56 -492 68 -745 11 -239 7 -406 -19
-710 -4 -45 -1 -54 23 -78 45 -45 119 -35 148 21 41 80 53 649 22 1032 -49
596 -102 840 -245 1135 -170 350 -428 645 -780 890 -121 85 -170 161 -241 374
-75 224 -112 479 -113 766 -1 170 2 203 26 317 49 230 132 455 305 828 371
800 453 1005 542 1356 74 287 100 495 100 793 0 222 -16 387 -60 601 -111 544
-405 1152 -794 1640 -131 164 -399 431 -559 558 -600 476 -1316 745 -2161 812
-116 9 -592 11 -691 3z m736 -199 c846 -75 1595 -392 2174 -921 609 -556 1051
-1394 1151 -2180 18 -141 21 -522 5 -583 l-9 -35 -1 36 c-2 62 -39 187 -78
262 -44 85 -135 180 -210 220 -65 35 -190 67 -260 67 -29 0 -53 4 -53 9 0 6
-13 17 -28 27 -25 14 -30 26 -41 90 -7 40 -21 84 -31 96 l-18 23 -359 0 c-382
1 -446 6 -727 61 -644 126 -1290 458 -1784 918 -84 79 -96 86 -133 86 -46 0
-53 -6 -149 -130 -82 -106 -278 -305 -390 -393 -260 -207 -568 -365 -898 -461
-381 -110 -769 -141 -1284 -101 -93 8 -97 7 -120 -16 -17 -17 -28 -45 -37 -89
-24 -132 -8 -116 -124 -123 -288 -15 -471 -177 -532 -473 -24 -115 -22 -297 4
-399 44 -170 168 -375 302 -500 116 -109 260 -188 366 -201 65 -9 79 -18 86
-54 10 -49 104 -292 159 -414 137 -298 332 -599 542 -838 45 -51 53 -68 74
-150 59 -235 175 -419 331 -522 161 -107 429 -189 774 -236 l87 -12 0 -62 0
-61 -73 -39 c-64 -34 -87 -40 -215 -57 -429 -58 -847 -164 -1217 -310 -162
-64 -405 -180 -525 -252 -41 -25 -76 -44 -78 -42 -2 1 8 47 22 101 72 285 128
812 112 1062 -22 343 -108 599 -444 1317 -288 616 -405 932 -477 1290 -72 356
-74 765 -4 1109 70 348 216 725 414 1072 85 147 251 394 351 519 109 137 396
425 529 531 226 180 529 360 796 473 588 248 1300 349 2020 285z m-292 -2147
c525 -456 1175 -765 1853 -882 238 -41 350 -49 633 -50 168 0 273 -4 277 -10
18 -24 8 -51 -24 -63 -54 -19 -207 -111 -288 -171 -219 -164 -399 -416 -505
-704 -20 -54 -38 -91 -46 -89 -6 2 -55 14 -108 27 -288 72 -766 112 -1461 122
-868 12 -1798 -47 -2150 -136 -41 -11 -78 -16 -81 -13 -3 4 -18 43 -33 87 -35
100 -119 272 -176 356 -150 223 -333 380 -587 506 -62 30 -113 56 -113 57 0 0
159 1 352 1 287 0 377 3 483 18 575 81 1032 268 1439 590 108 86 338 312 396
389 19 26 37 48 39 48 2 0 47 -38 100 -83z m-2774 -1192 c189 -90 387 -260
498 -426 67 -101 135 -241 173 -355 l26 -81 -34 -44 c-50 -66 -81 -160 -110
-334 -21 -127 -17 -705 6 -928 10 -98 16 -180 14 -182 -5 -6 -174 249 -226
340 -106 187 -183 363 -262 604 -35 104 -66 182 -79 195 -18 17 -32 21 -80 18
-121 -5 -259 63 -381 187 -124 126 -203 271 -236 431 -31 153 6 352 84 455 75
99 189 143 342 130 134 -10 150 -10 168 8 9 9 18 17 19 17 2 0 37 -16 78 -35z
m5655 3 c14 0 68 4 121 8 83 6 107 4 167 -15 159 -48 246 -187 258 -416 8
-128 -10 -215 -69 -338 -82 -173 -216 -316 -363 -389 -74 -36 -92 -41 -164
-43 -51 -2 -89 -8 -103 -18 -17 -11 -37 -59 -84 -198 -66 -202 -154 -407 -239
-563 -60 -107 -223 -361 -229 -355 -2 2 4 78 12 169 21 213 24 787 5 912 -18
127 -48 235 -81 301 l-30 58 40 117 c75 217 179 386 328 532 124 121 341 258
386 244 11 -4 31 -6 45 -6z m-2029 -838 c507 -28 899 -84 1034 -150 34 -17 47
-31 64 -70 90 -209 92 -752 6 -1456 -40 -322 -100 -491 -253 -701 -52 -71 -71
-81 -212 -111 -293 -63 -705 -104 -1239 -123 -855 -31 -1600 62 -1897 236
-160 94 -263 285 -313 580 -98 587 -119 1185 -51 1473 34 141 46 155 182 192
235 64 794 120 1400 140 306 10 1012 4 1279 -10z m2623 -201 c-83 -260 -169
-467 -382 -919 -256 -546 -336 -754 -396 -1020 -53 -241 -55 -491 -5 -834 19
-136 78 -387 100 -427 6 -11 9 -23 6 -25 -2 -2 -52 18 -110 45 -412 193 -953
347 -1427 406 -66 8 -130 21 -143 29 -38 26 -109 47 -177 54 l-65 7 0 60 0 60
160 17 c340 37 610 89 701 136 124 63 330 442 376 688 10 54 19 73 61 121 269
314 500 720 638 1127 35 101 48 127 64 131 144 26 217 56 320 130 86 61 222
208 275 297 25 42 46 73 48 69 1 -4 -18 -72 -44 -152z m-3524 -2594 c250 0
517 3 592 7 l137 8 3 -261 3 -261 28 -24 c35 -30 94 -32 128 -5 22 18 24 28
29 138 l5 118 40 -3 c53 -5 113 -30 125 -53 6 -10 10 -38 10 -62 0 -108 -136
-270 -430 -513 -180 -149 -577 -434 -605 -434 -16 0 -413 263 -625 415 -217
154 -403 300 -487 380 l-67 64 29 32 c17 18 71 58 120 91 l90 58 3 -82 c3
-104 7 -123 34 -148 25 -23 93 -27 119 -7 36 27 39 52 39 306 l0 251 113 -8
c61 -4 317 -7 567 -7z"/>
<path d="M16075 21444 c-336 -37 -708 -203 -1092 -488 -66 -48 -83 -66 -83
-86 0 -15 5 -31 12 -38 27 -27 67 -13 167 62 265 197 547 339 810 409 107 28
129 30 281 30 154 1 171 -1 255 -28 133 -41 143 -42 155 -11 23 61 -30 97
-193 132 -74 15 -244 25 -312 18z"/>
<path d="M17980 21253 c-58 -6 -72 -18 -68 -62 l3 -36 215 -6 c238 -6 359 -23
510 -71 186 -59 327 -138 495 -280 200 -168 315 -316 315 -405 0 -30 21 -63
40 -63 5 0 20 4 34 10 24 9 26 14 26 67 0 104 -67 209 -237 374 -334 324 -658
459 -1136 473 -84 2 -172 2 -197 -1z"/>
<path d="M16230 21034 c-254 -29 -387 -57 -570 -119 -212 -73 -391 -160 -580
-282 -183 -119 -390 -298 -390 -338 0 -25 29 -55 53 -55 9 0 54 34 101 76 361
324 807 534 1273 599 171 24 453 17 607 -15 l110 -23 18 23 c47 58 13 82 -147
110 -114 20 -390 34 -475 24z"/>
<path d="M17988 20720 c-26 -16 -23 -66 5 -84 12 -8 61 -16 112 -19 163 -10
369 -66 622 -170 292 -120 462 -232 570 -374 58 -79 84 -90 118 -53 24 26 15
55 -41 130 -128 169 -435 347 -834 482 -200 67 -507 116 -552 88z"/>
<path d="M16595 20620 c-136 -22 -298 -85 -510 -202 -332 -182 -551 -314 -810
-487 -154 -103 -317 -210 -362 -239 -67 -42 -83 -56 -83 -76 0 -30 24 -56 51
-56 24 0 147 76 514 320 272 180 352 229 655 398 324 181 489 242 654 242 44
0 106 -7 136 -15 69 -19 75 -19 94 1 21 21 20 57 -1 76 -41 35 -224 55 -338
38z"/>
<path d="M17966 20174 c-22 -21 -21 -71 2 -83 10 -5 123 -42 252 -81 522 -160
714 -263 882 -474 48 -61 66 -76 87 -76 88 0 58 91 -74 224 -113 115 -290 222
-510 309 -88 34 -594 197 -614 197 -5 0 -17 -7 -25 -16z"/>
<path d="M14500 15930 c-11 -11 -20 -28 -20 -37 0 -38 51 -238 114 -444 115
-382 133 -556 79 -773 -28 -115 -26 -138 15 -144 39 -6 58 15 80 85 33 106 45
206 39 329 -8 144 -33 264 -117 547 -37 128 -78 277 -89 332 -12 54 -27 105
-33 112 -15 19 -45 16 -68 -7z"/>
<path d="M14892 15368 c-14 -14 -16 -60 -3 -73 5 -6 27 -46 49 -90 72 -144
108 -257 121 -387 5 -49 14 -95 21 -103 15 -18 61 -20 78 -3 26 26 2 209 -45
353 -26 82 -100 238 -135 288 -21 29 -64 37 -86 15z"/>
<path d="M16574 18617 c-12 -7 -41 -36 -65 -64 -153 -184 -423 -269 -737 -233
-123 14 -141 9 -168 -42 -13 -26 -14 -38 -5 -70 16 -51 44 -64 171 -79 370
-43 719 79 895 313 62 82 60 139 -5 173 -35 18 -58 19 -86 2z"/>
<path d="M17754 18620 c-32 -12 -54 -49 -54 -88 0 -64 123 -199 252 -275 159
-94 314 -132 543 -131 252 0 315 24 315 116 0 30 -7 45 -27 65 -27 24 -30 25
-108 17 -44 -5 -138 -8 -210 -7 -156 2 -249 23 -375 85 -70 34 -101 58 -177
135 -94 95 -110 103 -159 83z"/>
<path d="M13986 18190 c-60 -72 -54 -303 12 -435 52 -105 147 -195 207 -195
43 0 83 33 91 74 7 42 -7 71 -57 114 -21 18 -53 62 -70 98 -27 54 -32 77 -33
137 -1 40 3 95 8 124 8 50 7 53 -22 83 -43 42 -100 43 -136 0z"/>
<path d="M20247 18209 c-32 -19 -47 -69 -35 -120 14 -64 5 -176 -20 -232 -12
-26 -46 -74 -77 -106 -49 -51 -55 -63 -55 -100 0 -76 67 -114 138 -77 37 19
112 101 144 156 49 86 63 146 63 270 -1 125 -14 181 -48 205 -25 17 -84 19
-110 4z"/>
<path d="M16925 17263 c-428 -7 -992 -53 -1300 -107 -64 -11 -84 -19 -102 -40
-33 -39 -31 -90 6 -127 32 -32 50 -34 131 -19 109 21 361 51 584 70 724 62
1515 46 2291 -46 116 -13 233 -27 262 -30 48 -6 54 -5 82 24 39 38 42 88 8
128 -20 23 -37 29 -113 40 -138 21 -547 62 -775 79 -176 13 -904 39 -919 33
-3 -1 -72 -4 -155 -5z"/>
<path d="M16685 16534 c-489 -29 -664 -44 -915 -80 -211 -30 -236 -37 -255
-74 -23 -44 -19 -78 14 -111 36 -36 40 -36 256 -4 398 58 827 85 1360 85 499
0 887 -21 1320 -71 94 -11 216 -25 272 -31 113 -13 141 -7 162 39 26 58 5 114
-52 132 -63 20 -574 74 -967 102 -148 10 -1069 20 -1195 13z"/>
<path d="M16190 15720 c-223 -5 -456 -12 -519 -15 -108 -7 -116 -9 -143 -35
-45 -46 -29 -128 29 -147 17 -6 117 -6 263 0 308 13 2377 13 2730 0 294 -11
326 -7 349 35 22 42 7 107 -30 130 -13 9 -120 16 -337 22 -454 14 -1866 20
-2342 10z"/>
<path d="M19646 16081 c-8 -13 -53 -298 -68 -426 -18 -168 -15 -486 6 -630 22
-141 64 -300 105 -390 25 -55 34 -65 55 -65 36 0 59 27 53 64 -3 17 -19 69
-37 116 -60 158 -81 289 -87 527 -6 232 2 340 44 610 22 142 24 174 14 187
-14 17 -76 22 -85 7z"/>
<path d="M19315 15324 c-14 -14 -15 -31 -10 -108 13 -190 45 -334 107 -483 33
-79 53 -95 93 -69 31 21 32 48 1 117 -51 115 -96 334 -96 466 0 68 -15 93 -55
93 -13 0 -31 -7 -40 -16z"/>
<path d="M25590 21914 c-405 -46 -694 -129 -1010 -289 -725 -369 -1149 -1010
-1276 -1925 -21 -156 -30 -643 -15 -837 15 -192 55 -465 90 -628 16 -72 28
-131 26 -133 -1 -1 -51 5 -111 14 -64 9 -146 14 -200 12 -154 -7 -249 -67
-318 -205 -97 -194 -113 -556 -35 -808 24 -79 84 -204 131 -273 142 -211 365
-359 567 -378 l66 -7 48 -146 c126 -386 319 -774 516 -1038 66 -88 70 -97 91
-194 55 -260 166 -458 314 -564 160 -114 430 -201 764 -245 l92 -13 0 -73 c0
-49 -4 -74 -11 -74 -38 0 -259 -121 -319 -175 -22 -20 -41 -24 -145 -30 -438
-25 -940 -141 -1320 -304 -432 -187 -800 -464 -987 -746 -283 -426 -438 -1111
-438 -1943 l0 -223 25 -24 c33 -34 96 -35 129 -2 22 23 23 30 30 258 19 668
90 1113 237 1490 108 279 247 470 473 653 435 352 1032 567 1804 650 l42 4 0
-74 c0 -89 15 -129 68 -182 116 -116 388 -202 787 -249 221 -26 910 -26 1110
0 276 36 456 82 600 151 160 78 234 164 244 285 l6 65 50 -2 c28 -2 115 -12
194 -23 750 -104 1383 -382 1761 -775 348 -362 518 -978 546 -1984 7 -237 8
-245 30 -267 33 -33 96 -32 131 3 l26 26 -6 316 c-18 970 -215 1652 -591 2040
-451 467 -1216 781 -2076 853 l-134 11 -56 51 c-65 61 -156 112 -255 143 l-70
22 -3 60 -3 61 33 5 c18 3 83 10 143 16 291 29 576 87 656 132 98 55 283 361
341 563 21 73 29 88 103 170 305 342 553 780 701 1237 27 86 29 88 64 94 255
42 515 268 633 549 96 230 114 534 46 784 -41 152 -99 237 -201 292 -62 33
-66 34 -183 34 -66 0 -149 -4 -184 -9 l-64 -8 6 68 c3 38 38 184 77 324 188
673 235 945 235 1365 0 270 -13 387 -61 579 -40 160 -70 241 -154 411 -110
224 -197 315 -379 397 -242 110 -646 124 -1049 37 l-93 -20 -92 59 c-390 251
-808 429 -1222 521 -226 50 -358 63 -655 66 -157 2 -301 1 -320 -1z m634 -200
c525 -64 1012 -252 1515 -582 51 -34 101 -62 110 -62 9 0 66 11 126 25 333 74
642 83 856 24 118 -32 196 -76 270 -149 145 -144 280 -509 319 -864 5 -50 8
-91 6 -93 -2 -2 -19 21 -38 50 -121 181 -441 394 -674 448 -133 30 -272 24
-361 -16 -63 -28 -80 -48 -68 -85 13 -40 42 -44 106 -15 126 56 281 39 477
-55 138 -66 230 -128 330 -224 84 -80 139 -159 162 -230 9 -28 20 -42 43 -50
l30 -11 -7 -125 c-13 -247 -67 -554 -156 -880 -27 -102 -73 -268 -100 -369
-28 -102 -50 -193 -50 -202 0 -11 -27 -32 -77 -59 -124 -67 -213 -130 -402
-287 l-27 -22 -124 465 c-74 278 -131 476 -142 490 -32 40 -72 40 -178 -1
-582 -222 -1435 -297 -2390 -209 -430 39 -915 114 -1322 205 -106 24 -187 37
-203 33 -14 -3 -44 -27 -66 -52 -99 -112 -184 -371 -269 -815 l-11 -57 -47 40
c-56 50 -160 120 -223 150 l-46 23 -21 91 c-80 350 -119 795 -101 1152 40 826
333 1453 863 1851 372 279 814 440 1330 483 130 11 405 3 560 -16z m-1735
-3089 c778 -168 1674 -255 2325 -226 523 24 919 87 1285 206 58 19 107 32 110
30 2 -3 59 -211 126 -462 l122 -456 -72 -93 c-84 -107 -161 -231 -209 -337
-36 -79 -86 -226 -86 -255 -1 -41 -13 -45 -96 -28 -124 25 -369 54 -624 73
-300 23 -1554 26 -1900 5 -438 -27 -710 -55 -929 -98 -69 -13 -125 -23 -126
-21 -1 1 -9 47 -19 102 -34 199 -124 413 -252 600 l-66 97 22 127 c30 180 75
386 110 509 29 101 96 262 109 262 3 0 80 -16 170 -35z m-1194 -700 c61 -8
132 -16 158 -17 l48 -3 38 -85 c129 -286 200 -607 222 -996 5 -103 14 -195 20
-205 5 -10 24 -26 41 -35 42 -22 102 -5 122 34 8 15 19 90 25 172 11 133 40
439 57 585 11 97 17 98 64 6 57 -114 106 -267 126 -389 l16 -102 -41 -46
c-110 -125 -157 -457 -133 -934 7 -133 15 -256 18 -273 l5 -32 -26 40 c-91
139 -276 568 -349 810 -60 202 -65 207 -187 198 -117 -8 -232 38 -357 144
-120 103 -205 247 -259 443 -24 90 -24 362 0 470 22 97 63 178 106 207 42 28
122 30 286 8z m6352 -4 c42 -26 78 -91 105 -187 17 -66 21 -108 22 -254 1
-200 -14 -279 -83 -425 -109 -230 -333 -404 -522 -405 -85 0 -100 -17 -144
-157 -84 -268 -216 -561 -354 -789 -77 -126 -199 -299 -207 -292 -2 3 3 79 13
169 25 241 25 846 0 979 -35 190 -83 290 -162 338 -54 33 -56 47 -19 164 36
116 82 211 155 324 52 80 64 94 71 78 4 -10 53 -190 108 -399 56 -209 108
-399 116 -423 16 -42 53 -72 89 -72 25 0 73 28 85 50 6 10 17 90 26 177 35
361 125 787 220 1042 l26 71 42 1 c22 0 79 6 126 13 136 21 249 20 287 -3z
m-657 6 c0 -2 -16 -50 -35 -108 -48 -142 -79 -257 -115 -429 -17 -80 -33 -156
-36 -170 -5 -18 -24 42 -70 210 l-63 235 67 64 c104 99 252 216 252 198z
m-5125 -282 c-11 -108 -15 -106 -61 31 -24 71 -44 131 -44 134 0 2 25 -20 56
-50 l55 -55 -6 -60z m3175 -745 c389 -17 719 -49 931 -90 81 -15 101 -23 127
-50 27 -27 38 -31 74 -29 53 4 71 -18 97 -122 64 -250 51 -823 -30 -1384 -32
-225 -83 -364 -193 -529 -75 -111 -98 -133 -159 -151 -137 -42 -533 -94 -967
-127 -262 -20 -1128 -17 -1360 5 -327 31 -587 79 -759 139 -293 102 -408 265
-475 668 -57 352 -77 582 -77 895 0 352 36 564 103 605 119 72 673 141 1353
169 287 12 1070 12 1335 1z m-1251 -2680 c327 -16 773 -11 1191 12 l45 3 2
-225 c2 -238 6 -259 50 -279 38 -17 69 -13 102 15 29 24 31 29 31 99 0 41 3
76 8 78 4 3 36 -7 72 -21 129 -52 211 -171 176 -256 -89 -213 -988 -335 -1770
-240 -323 39 -594 120 -648 195 -17 23 -18 31 -8 70 16 60 111 152 210 202
l75 39 5 -72 c4 -63 8 -75 33 -96 31 -26 62 -30 102 -12 50 23 55 48 55 288
l0 221 33 -6 c17 -3 124 -10 236 -15z"/>
<path d="M25603 21025 c-471 -61 -1060 -274 -1379 -500 -120 -85 -142 -116
-108 -149 28 -29 63 -18 142 42 282 212 798 408 1297 494 110 19 167 22 370
22 495 0 1037 -93 1425 -243 118 -46 140 -49 163 -23 33 36 22 61 -39 88 -380
168 -1026 286 -1553 283 -119 -1 -262 -7 -318 -14z"/>
<path d="M25460 20369 c-261 -22 -575 -87 -770 -158 -224 -83 -550 -275 -550
-324 0 -18 12 -33 38 -46 27 -14 31 -12 163 77 594 402 1737 477 2733 180 157
-47 171 -45 171 18 l0 39 -85 29 c-206 69 -528 136 -820 172 -159 19 -717 28
-880 13z"/>
<path d="M28195 19964 c-10 -10 -15 -29 -13 -48 3 -29 8 -33 69 -52 299 -96
524 -388 548 -711 7 -98 14 -113 57 -113 11 0 29 9 39 20 18 19 18 28 7 123
-13 122 -40 214 -93 321 -111 223 -307 397 -518 460 -68 20 -76 20 -96 0z"/>
<path d="M25260 19789 c-260 -30 -501 -114 -695 -244 -92 -62 -125 -94 -125
-121 0 -22 33 -54 55 -54 5 0 51 29 100 65 471 338 1068 349 2059 38 l148 -47
19 23 c24 29 24 53 2 74 -23 20 -269 96 -509 157 -404 103 -774 141 -1054 109z"/>
<path d="M26885 18076 c-59 -26 -70 -92 -26 -153 111 -153 308 -275 516 -318
157 -33 442 -29 521 7 58 27 70 103 24 150 -31 30 -31 30 -103 22 -131 -16
-343 -9 -431 15 -141 38 -220 83 -319 182 -115 116 -124 121 -182 95z"/>
<path d="M25628 17974 c-79 -71 -193 -133 -293 -160 -130 -34 -346 -29 -497
13 -64 17 -98 13 -127 -18 -40 -43 -29 -121 20 -146 78 -40 285 -67 449 -60
144 6 249 30 359 82 134 64 272 179 287 240 9 35 -13 83 -47 100 -51 27 -74
19 -151 -51z"/>
<path d="M29364 17480 c-47 -19 -54 -45 -48 -169 8 -150 -10 -204 -97 -295
-49 -51 -59 -67 -59 -96 0 -46 21 -76 65 -90 28 -9 40 -8 70 6 82 38 181 185
206 302 14 70 7 256 -12 295 -22 47 -76 67 -125 47z"/>
<path d="M25720 16544 c-30 -2 -134 -8 -230 -14 -339 -21 -794 -75 -840 -100
-29 -16 -52 -67 -45 -99 9 -41 47 -73 87 -73 18 0 98 9 178 21 319 45 594 67
1038 82 570 19 1294 -15 1873 -90 156 -20 195 -15 218 27 24 44 9 112 -28 131
-22 12 -174 33 -446 60 -438 45 -613 53 -1190 56 -308 1 -585 1 -615 -1z"/>
<path d="M25785 15854 c-33 -2 -145 -8 -250 -14 -336 -20 -843 -77 -888 -102
-10 -5 -25 -25 -33 -45 -20 -47 -4 -97 39 -119 28 -15 39 -15 131 0 413 65
878 96 1463 96 534 0 983 -26 1482 -86 112 -13 207 -24 212 -24 4 0 21 12 38
26 25 20 31 34 31 64 0 52 -8 68 -40 85 -44 23 -493 72 -970 105 -141 11
-1094 21 -1215 14z"/>
<path d="M25030 15069 c-319 -8 -358 -11 -380 -28 -40 -29 -53 -65 -40 -107
23 -68 15 -67 435 -55 483 14 1938 14 2474 0 435 -11 460 -9 481 32 20 36 12
94 -16 120 -24 23 -34 24 -192 31 -287 11 -2390 17 -2762 7z"/>
<path d="M14675 12231 c-33 -14 -56 -46 -71 -102 -72 -265 -83 -671 -28 -1004
30 -182 44 -234 71 -255 38 -29 94 -26 127 6 32 32 32 54 6 184 -64 313 -67
688 -8 945 38 168 35 195 -27 221 -39 16 -42 16 -70 5z"/>
<path d="M19704 12226 c-18 -8 -36 -27 -44 -46 -12 -28 -11 -43 9 -123 42
-170 54 -301 48 -552 -5 -188 -11 -255 -32 -370 -42 -230 -42 -219 -7 -255 41
-40 92 -42 131 -2 22 22 31 47 49 142 69 364 70 769 2 1058 -25 106 -42 137
-81 151 -39 13 -37 13 -75 -3z"/>
<path d="M23655 11806 c-55 -24 -55 -27 -55 -537 l0 -471 29 -29 c22 -21 39
-29 66 -29 27 0 44 8 66 29 l29 29 0 472 c0 519 0 518 -61 539 -39 13 -37 13
-74 -3z"/>
<path d="M28650 11813 c-8 -3 -25 -15 -37 -26 l-23 -20 0 -486 c1 -512 0 -504
47 -529 35 -19 69 -14 102 14 l31 26 0 483 0 484 -22 25 c-23 26 -70 40 -98
29z"/>
<path d="M7248 30550 c-111 -28 -218 -112 -265 -209 -38 -77 -38 -182 0 -262
25 -51 96 -131 139 -155 16 -9 14 -32 -20 -319 l-37 -309 -95 -36 c-131 -49
-280 -129 -381 -204 l-86 -63 -320 146 -321 146 -6 42 c-8 57 -47 134 -93 179
-86 86 -231 113 -356 64 -119 -45 -229 -181 -258 -318 -59 -284 187 -504 447
-400 l59 24 233 -174 c127 -96 232 -179 232 -184 0 -4 -13 -34 -29 -66 -66
-131 -122 -331 -141 -506 -6 -55 -12 -101 -13 -102 -1 -1 -101 -29 -221 -61
l-220 -60 -55 39 c-93 65 -188 83 -288 53 -269 -80 -329 -485 -103 -688 65
-59 140 -87 228 -87 120 0 234 75 290 191 l22 46 173 7 c94 4 190 9 213 12
l40 6 13 -44 c23 -77 108 -246 174 -346 111 -168 233 -295 394 -413 32 -23 61
-45 65 -48 4 -3 -43 -119 -105 -256 -100 -221 -116 -250 -137 -253 -99 -12
-198 -78 -243 -160 -99 -181 -8 -417 197 -513 157 -74 321 -56 434 46 98 88
125 261 62 385 l-18 36 180 244 c143 194 185 245 202 243 11 0 73 -7 136 -13
127 -14 311 -8 423 14 l69 13 22 -36 c12 -20 80 -136 150 -257 l126 -221 -22
-49 c-17 -39 -22 -68 -22 -139 0 -78 3 -97 26 -140 142 -270 572 -232 715 63
23 48 27 70 28 142 0 73 -4 93 -28 142 -45 91 -147 165 -243 176 -24 2 -44 6
-44 8 0 2 -38 124 -85 271 -47 147 -82 270 -78 273 5 4 37 29 73 56 178 134
337 323 440 522 17 34 37 62 44 62 6 0 144 -7 306 -15 162 -8 315 -15 340 -15
42 0 47 -3 65 -36 29 -53 108 -120 168 -141 171 -58 344 25 431 207 29 62 31
71 31 185 0 110 -3 125 -27 175 -41 84 -90 135 -165 172 -56 27 -77 32 -137
32 -88 0 -169 -34 -236 -98 l-45 -44 -275 74 c-151 40 -284 75 -296 78 -20 5
-21 14 -27 148 -12 300 -103 586 -261 822 -26 38 -45 73 -44 76 2 4 85 82 185
174 l182 167 64 -11 c159 -25 304 55 358 199 32 85 24 212 -18 304 -61 129
-182 225 -311 246 -207 33 -368 -98 -380 -309 l-4 -75 -240 -140 c-132 -77
-248 -144 -258 -149 -14 -6 -47 6 -129 48 -172 88 -437 166 -563 166 -15 0
-28 1 -28 3 0 1 -11 117 -25 257 -33 337 -34 313 21 366 180 176 109 461 -139
556 -59 23 -200 33 -259 18z m225 -213 c114 -67 114 -181 0 -254 -30 -19 -59
-45 -64 -57 -12 -27 55 -775 72 -808 18 -33 53 -46 144 -52 216 -17 442 -90
621 -202 44 -27 84 -44 102 -44 21 0 130 58 358 191 181 104 336 197 344 205
12 11 15 40 15 124 0 106 1 109 29 139 76 79 194 53 276 -61 104 -143 10 -319
-140 -263 -84 32 -113 31 -156 -7 -102 -87 -485 -442 -499 -461 -22 -31 -19
-69 10 -108 246 -341 333 -597 322 -948 l-4 -144 26 -28 c23 -25 67 -39 408
-129 210 -55 396 -100 413 -100 32 0 49 14 115 96 100 125 256 45 256 -132 0
-57 -28 -134 -63 -171 -12 -12 -40 -30 -64 -39 -75 -29 -138 9 -183 111 -10
24 -29 49 -41 55 -34 18 -884 55 -920 40 -21 -9 -38 -33 -70 -98 -104 -216
-287 -431 -477 -560 -94 -64 -113 -84 -113 -121 0 -34 228 -733 244 -750 10
-9 44 -18 90 -22 87 -8 130 -28 156 -72 52 -85 -17 -210 -139 -252 -82 -28
-159 -14 -207 36 -24 26 -29 38 -29 82 0 42 6 63 33 103 17 28 32 63 32 78 0
30 -368 680 -402 709 -26 22 -54 22 -168 -5 -131 -29 -389 -32 -538 -4 -76 14
-108 16 -125 9 -19 -9 -442 -565 -484 -637 -21 -36 -15 -79 17 -122 16 -22 35
-61 41 -86 11 -39 10 -49 -7 -84 -21 -42 -87 -84 -134 -84 -140 0 -274 140
-241 250 6 20 20 45 30 54 28 25 89 45 141 46 25 0 53 7 63 14 16 12 267 551
313 671 24 63 5 100 -77 148 -153 90 -330 260 -434 417 -66 99 -124 218 -164
337 -54 158 -22 148 -402 128 -364 -19 -351 -15 -386 -116 -38 -112 -119 -158
-201 -115 -131 68 -151 295 -33 373 62 42 127 23 202 -58 26 -28 44 -39 65
-39 16 0 164 36 329 81 368 99 349 87 358 245 11 205 58 380 153 570 89 178
112 142 -275 432 -250 186 -332 242 -354 242 -16 0 -56 -16 -88 -37 -99 -61
-178 -47 -221 38 -39 76 -8 191 70 261 117 105 255 50 254 -101 -1 -91 -6 -87
426 -283 277 -126 401 -178 427 -178 30 0 50 11 108 58 150 121 289 198 458
252 57 18 114 43 127 55 21 20 26 49 68 396 25 206 46 393 46 417 1 50 -26 85
-78 102 -41 14 -100 78 -109 119 -14 64 48 144 133 172 49 16 147 4 195 -24z"/>
<path d="M7137 28679 c-54 -13 -132 -55 -177 -95 -91 -82 -122 -229 -72 -339
30 -66 93 -129 167 -168 58 -31 65 -32 180 -32 115 0 122 1 180 31 237 125
260 400 45 546 -87 60 -216 82 -323 57z m193 -201 c93 -47 113 -128 48 -195
-72 -75 -203 -77 -280 -4 -51 47 -59 92 -26 141 31 47 99 80 163 80 33 0 67
-8 95 -22z"/>
<path d="M7863 28110 c-68 -34 -111 -80 -145 -157 -29 -63 -32 -203 -5 -280
27 -76 88 -156 156 -201 171 -114 374 -62 460 118 23 48 26 68 26 156 0 96 -2
103 -38 176 -67 137 -172 209 -312 216 -74 3 -85 1 -142 -28z m203 -179 c113
-69 139 -238 48 -310 -37 -29 -82 -26 -136 8 -106 67 -131 234 -44 303 28 23
93 23 132 -1z"/>
<path d="M6997 27579 c-90 -21 -168 -83 -209 -168 -18 -36 -23 -63 -23 -126 0
-70 4 -89 32 -146 41 -82 111 -150 201 -192 61 -29 76 -32 162 -32 77 0 104 5
145 23 159 73 223 253 147 415 -80 171 -275 268 -455 226z m199 -214 c76 -44
120 -139 92 -195 -45 -85 -175 -92 -267 -14 -94 81 -92 187 3 230 43 20 118
10 172 -21z"/>
<path d="M35503 20006 c-105 -34 -208 -126 -237 -213 -26 -76 -21 -167 13
-238 26 -55 98 -136 131 -147 10 -3 6 -57 -19 -273 -18 -149 -34 -281 -37
-295 -4 -21 -17 -30 -72 -49 -109 -40 -273 -126 -371 -197 l-92 -65 -297 135
c-163 74 -300 141 -303 148 -4 7 -14 39 -23 70 -29 99 -109 182 -203 208 -23
7 -75 11 -115 9 -135 -7 -253 -91 -320 -226 -32 -65 -33 -72 -33 -183 0 -100
3 -120 23 -157 33 -63 74 -106 134 -139 48 -26 62 -29 143 -29 71 0 100 5 137
22 l47 21 213 -159 c117 -88 217 -164 221 -168 4 -4 -9 -46 -29 -92 -71 -161
-111 -313 -129 -491 l-6 -67 -52 -15 c-229 -66 -370 -99 -381 -90 -132 99
-240 117 -363 58 -172 -82 -240 -332 -143 -525 43 -84 91 -134 168 -171 123
-61 261 -38 357 57 19 20 46 58 60 84 l24 49 103 6 c57 4 147 8 201 9 l99 2
22 -60 c104 -274 304 -533 538 -698 32 -22 58 -44 58 -47 0 -4 -46 -110 -103
-235 l-103 -229 -57 -17 c-155 -46 -238 -148 -240 -294 -2 -123 52 -227 158
-307 79 -60 145 -82 250 -82 78 0 98 3 153 28 148 68 217 231 162 381 -12 33
-22 67 -23 75 -1 8 75 118 167 244 l169 228 36 -7 c128 -24 389 -22 526 4 27
5 51 8 53 6 2 -2 66 -112 143 -245 l139 -242 -22 -41 c-18 -34 -22 -59 -23
-132 0 -81 3 -95 29 -143 94 -169 315 -221 508 -119 204 107 273 367 137 521
-50 57 -97 85 -173 106 l-61 17 -77 244 c-43 134 -78 248 -78 254 0 5 26 28
57 50 81 57 241 217 306 306 31 42 79 117 108 168 48 84 54 91 83 91 66 -1
628 -29 630 -32 24 -41 81 -103 116 -127 58 -40 98 -51 181 -51 125 0 238 81
302 218 30 62 32 75 32 172 0 102 -1 109 -38 183 -25 51 -51 87 -80 110 -77
63 -103 72 -202 72 -78 0 -97 -4 -140 -27 -27 -14 -66 -42 -84 -62 -19 -20
-40 -36 -45 -36 -6 -1 -136 32 -288 72 l-278 72 0 112 c0 266 -87 555 -239
791 -28 44 -51 82 -51 85 0 3 76 74 170 159 l169 154 108 0 c98 0 113 3 158
27 60 31 104 77 136 138 21 39 24 59 24 150 0 102 -1 109 -38 182 -67 137
-185 218 -327 226 -110 6 -168 -15 -241 -87 -64 -65 -89 -124 -92 -220 l-1
-61 -244 -141 -243 -142 -112 56 c-165 82 -331 133 -499 153 -67 8 -58 -23
-89 307 l-22 237 47 50 c132 142 129 332 -8 458 -77 71 -143 96 -261 99 -65 2
-115 -2 -142 -11z m222 -195 c125 -57 128 -183 5 -252 -21 -12 -43 -32 -49
-46 -14 -30 53 -758 72 -782 25 -32 43 -39 126 -45 223 -18 444 -91 619 -202
31 -20 65 -34 84 -34 22 0 120 52 342 181 171 99 321 191 334 205 24 27 27 59
12 116 -25 88 32 168 118 168 159 -1 272 -231 160 -325 -34 -29 -106 -34 -148
-10 -14 8 -42 14 -62 15 -34 0 -54 -15 -275 -216 -286 -259 -283 -256 -283
-298 0 -18 10 -47 23 -65 105 -148 134 -193 172 -269 100 -204 136 -369 136
-623 -1 -135 2 -160 17 -179 14 -17 93 -41 392 -121 206 -54 388 -99 404 -99
19 0 36 10 55 31 91 107 95 111 141 116 58 5 100 -20 129 -79 68 -141 -38
-330 -165 -296 -33 8 -94 69 -94 93 0 26 -50 74 -83 79 -18 3 -211 13 -429 22
-293 13 -404 14 -422 6 -16 -7 -44 -49 -85 -129 -34 -65 -85 -149 -113 -188
-74 -101 -219 -240 -325 -312 -93 -64 -103 -76 -103 -121 0 -24 181 -609 212
-685 14 -36 55 -57 113 -57 159 0 210 -146 86 -252 -86 -74 -214 -78 -276 -8
-33 37 -28 114 13 175 25 38 32 57 28 78 -8 39 -351 637 -382 665 -31 27 -50
27 -177 1 -120 -25 -352 -30 -457 -10 -36 7 -88 15 -116 18 -46 5 -53 3 -77
-23 -14 -16 -121 -157 -237 -314 -239 -324 -238 -323 -177 -407 26 -37 32 -54
32 -98 0 -60 -19 -89 -72 -111 -102 -43 -250 33 -284 146 -10 32 -9 46 2 76
21 55 56 76 140 83 55 6 75 12 88 28 30 37 301 649 301 679 -1 41 -13 53 -131
132 -245 164 -427 403 -522 687 -50 149 -29 141 -354 126 -316 -14 -350 -18
-373 -41 -10 -10 -25 -43 -34 -73 -40 -138 -166 -166 -246 -55 -75 104 -54
254 42 304 47 24 92 11 152 -46 28 -27 63 -51 76 -55 23 -5 530 124 613 157
41 16 54 51 60 168 9 187 51 341 142 526 55 110 64 148 45 184 -5 10 -146 120
-314 244 -327 243 -341 251 -397 207 -51 -39 -91 -53 -138 -48 -53 6 -85 36
-101 96 -31 115 77 264 192 264 73 0 115 -51 122 -148 2 -30 10 -65 18 -77 17
-26 760 -367 800 -368 18 0 51 19 100 59 149 120 284 194 448 245 98 31 116
41 130 66 5 10 31 193 56 405 46 387 46 387 27 414 -11 14 -40 36 -64 47 -104
51 -132 141 -67 212 55 60 173 80 253 43z"/>
<path d="M35420 18227 c-107 -31 -180 -85 -224 -167 -37 -68 -45 -156 -21
-229 22 -68 99 -152 173 -188 52 -26 66 -28 172 -28 107 0 119 2 170 29 71 36
125 88 158 151 35 66 37 176 5 246 -50 110 -175 188 -311 195 -46 2 -95 -1
-122 -9z m205 -207 c39 -24 65 -66 65 -104 0 -41 -55 -94 -116 -112 -49 -14
-59 -14 -108 0 -105 31 -148 120 -88 186 55 62 173 76 247 30z"/>
<path d="M36168 17706 c-54 -15 -121 -58 -147 -95 -55 -78 -66 -113 -66 -216
0 -92 3 -105 32 -167 61 -129 170 -207 299 -216 61 -4 80 -1 125 20 77 36 114
71 148 141 36 75 46 145 32 223 -40 213 -241 361 -423 310z m132 -198 c105
-53 141 -202 69 -279 -27 -28 -34 -31 -74 -27 -27 3 -59 16 -79 31 -88 68
-101 230 -22 278 40 24 52 24 106 -3z"/>
<path d="M35289 17176 c-232 -62 -300 -320 -135 -511 73 -86 217 -143 329
-131 211 22 330 213 256 411 -40 108 -163 208 -287 234 -66 14 -104 13 -163
-3z m142 -187 c120 -41 179 -167 110 -233 -86 -82 -268 -2 -287 125 -6 45 13
80 56 101 41 21 74 22 121 7z"/>
<path d="M7565 18710 c-247 -83 -312 -355 -126 -522 l50 -45 -30 -249 c-16
-137 -31 -254 -34 -260 -2 -7 -28 -20 -57 -29 -81 -27 -260 -121 -345 -182
l-76 -55 -270 124 -270 123 -13 52 c-38 147 -154 231 -305 221 -159 -12 -293
-138 -330 -310 -33 -153 54 -325 188 -369 48 -15 189 -7 229 14 l31 16 189
-140 c104 -77 193 -144 198 -149 5 -5 -10 -50 -33 -105 -51 -119 -85 -248
-102 -381 l-12 -101 -185 -50 -186 -51 -31 24 c-124 95 -294 85 -397 -22 -50
-53 -89 -142 -95 -218 -26 -316 299 -525 515 -331 27 24 59 64 73 89 24 46 24
46 79 47 30 0 109 4 174 7 l120 7 15 -40 c69 -178 176 -348 303 -481 69 -71
192 -176 245 -209 2 -1 -40 -95 -92 -210 l-94 -209 -52 -13 c-95 -24 -171 -90
-204 -176 -25 -67 -17 -184 17 -252 134 -262 520 -287 634 -40 31 65 32 163 4
236 l-19 52 136 186 c75 102 144 194 153 204 15 17 25 17 147 6 104 -9 157 -9
254 1 68 7 135 13 147 14 21 1 40 -27 147 -212 l123 -213 -19 -50 c-27 -72
-25 -170 5 -234 64 -136 223 -203 384 -161 249 63 368 327 232 514 -34 47
-117 99 -172 108 -21 4 -42 12 -47 18 -10 13 -141 421 -141 439 1 7 28 32 61
57 132 98 301 297 371 435 17 33 32 62 33 63 2 2 137 -2 300 -9 l297 -13 29
-43 c54 -78 141 -123 239 -123 80 0 142 24 203 80 186 170 156 490 -56 602
-34 19 -58 23 -127 23 -95 0 -139 -17 -210 -81 l-39 -35 -233 61 c-128 34
-240 63 -249 66 -13 4 -17 28 -22 142 -11 247 -88 488 -216 681 -22 34 -41 66
-41 71 0 5 68 71 151 147 l150 137 89 -3 c70 -2 98 1 132 17 62 27 115 77 146
136 23 45 26 63 26 146 0 83 -3 102 -27 152 -108 221 -370 299 -530 157 -59
-51 -90 -116 -97 -203 l-5 -69 -218 -127 -218 -127 -92 49 c-115 59 -276 113
-404 134 -54 8 -99 17 -101 19 -2 2 -14 110 -27 240 l-23 237 42 41 c119 119
119 302 0 421 -93 93 -259 130 -389 86z m185 -180 c39 -11 94 -62 104 -97 12
-37 -19 -90 -68 -120 -75 -45 -74 -31 -38 -414 18 -188 37 -349 42 -360 16
-30 40 -37 151 -49 183 -18 343 -70 500 -160 52 -30 99 -50 117 -50 21 0 120
52 326 172 328 191 328 191 310 277 -19 93 20 161 92 161 104 0 195 -107 181
-212 -6 -47 -28 -73 -72 -88 -27 -9 -43 -7 -88 8 -30 11 -66 17 -81 15 -23 -5
-360 -301 -458 -403 -58 -60 -54 -91 26 -198 159 -211 236 -453 236 -743 0
-139 1 -149 23 -173 18 -21 77 -39 369 -116 229 -60 355 -89 370 -85 30 10 57
34 75 68 16 32 68 67 100 67 84 0 141 -105 113 -210 -7 -27 -27 -59 -50 -82
-31 -31 -45 -38 -77 -38 -52 0 -86 27 -108 85 -29 75 -18 73 -453 92 -452 20
-423 25 -471 -82 -78 -172 -260 -384 -422 -493 -80 -53 -89 -65 -89 -112 0
-25 141 -484 186 -608 20 -54 47 -72 107 -72 136 0 188 -104 101 -200 -123
-136 -343 -51 -257 100 44 79 45 82 37 110 -5 15 -83 157 -174 315 -196 341
-179 326 -322 293 -120 -28 -372 -30 -486 -5 -60 14 -78 15 -102 4 -22 -9 -87
-89 -235 -290 -231 -314 -231 -313 -175 -396 52 -76 36 -154 -37 -182 -117
-44 -282 93 -238 199 19 43 54 63 124 69 44 4 65 11 79 27 33 36 276 587 275
624 -1 43 -12 54 -110 118 -156 103 -308 267 -399 430 -20 36 -55 117 -78 181
-59 168 -31 157 -371 138 -321 -17 -319 -17 -345 -104 -18 -62 -66 -111 -109
-111 -67 0 -141 92 -141 177 0 75 46 148 95 153 49 5 68 -3 115 -50 38 -37 58
-50 80 -50 40 0 539 137 568 156 31 20 42 54 42 128 0 145 51 339 131 499 50
99 60 149 37 180 -7 9 -136 109 -287 222 -304 227 -312 231 -381 180 -51 -37
-96 -47 -137 -30 -80 34 -83 166 -5 248 102 108 221 59 222 -93 0 -19 7 -43
14 -53 19 -24 702 -337 736 -337 18 0 55 23 111 66 139 110 291 189 431 224
89 23 86 15 134 417 49 405 49 399 -30 432 -23 10 -54 33 -69 51 -85 101 52
222 203 180z"/>
<path d="M7475 17087 c-58 -19 -82 -34 -132 -80 -57 -52 -84 -106 -90 -177
-11 -116 59 -230 175 -287 51 -25 68 -28 157 -28 87 0 107 3 156 26 66 31 127
88 154 144 23 49 31 160 15 209 -21 66 -83 131 -157 168 -58 29 -79 33 -153
35 -49 2 -102 -3 -125 -10z m195 -195 c19 -10 43 -34 52 -52 61 -119 -173
-196 -260 -85 -38 48 -23 97 42 136 40 25 120 25 166 1z"/>
<path d="M8178 16616 c-131 -36 -203 -141 -203 -296 1 -72 5 -95 29 -147 33
-73 113 -154 182 -184 56 -25 164 -28 217 -6 54 23 122 91 148 150 34 77 33
200 -3 279 -71 154 -232 243 -370 204z m111 -191 c65 -33 110 -121 97 -188 -6
-34 -54 -87 -77 -87 -26 0 -78 31 -106 63 -57 65 -54 180 5 212 34 18 47 18
81 0z"/>
<path d="M7325 16116 c-60 -27 -108 -73 -137 -130 -31 -57 -31 -172 -1 -239
32 -70 112 -149 186 -183 54 -25 74 -29 152 -29 78 0 97 4 141 27 57 30 109
84 132 137 9 21 16 66 16 108 0 62 -4 80 -34 139 -64 125 -181 194 -328 194
-60 0 -88 -5 -127 -24z m217 -187 c73 -37 107 -122 68 -171 -41 -53 -137 -49
-199 8 -65 58 -77 122 -31 162 40 34 94 35 162 1z"/>
<path d="M30555 8983 c-184 -21 -407 -102 -606 -219 l-77 -45 -54 41 c-75 57
-219 127 -312 150 -96 24 -263 27 -363 5 -133 -28 -263 -85 -394 -172 l-69
-46 -92 31 c-176 58 -323 64 -513 20 -272 -62 -562 -207 -867 -431 l-27 -20
-78 36 c-92 43 -205 74 -306 83 -109 10 -275 -17 -378 -60 -11 -5 -29 11 -66
61 -149 199 -360 336 -579 374 -192 33 -456 -28 -676 -156 l-61 -36 -91 46
c-124 62 -221 85 -358 85 -255 0 -446 -82 -766 -327 -45 -34 -85 -63 -88 -63
-3 0 -34 20 -68 45 -150 107 -306 157 -491 157 -207 0 -337 -48 -533 -196
l-114 -86 -56 39 c-135 91 -258 131 -428 138 -244 11 -441 -62 -620 -229 l-61
-57 -24 25 c-40 42 -178 125 -258 154 -100 37 -211 54 -311 48 l-80 -5 -55 67
c-87 106 -192 187 -320 246 -219 101 -504 105 -697 9 -115 -58 -372 -276 -562
-477 l-116 -123 -132 -1 c-155 -1 -229 -17 -343 -74 l-74 -37 -53 40 c-140
105 -292 157 -483 164 -262 10 -378 -41 -638 -279 l-88 -80 -102 51 c-135 68
-229 91 -372 91 -120 0 -229 -21 -304 -59 l-40 -21 -78 56 c-140 100 -278 154
-434 169 -142 13 -322 -31 -445 -110 -32 -21 -64 -38 -69 -38 -6 0 -33 16 -61
36 -163 117 -406 177 -603 148 l-81 -12 -60 36 c-175 106 -357 151 -509 126
l-65 -11 -69 76 c-81 88 -165 150 -268 198 -119 57 -186 71 -339 71 -145 0
-226 -17 -332 -71 -91 -46 -255 -180 -427 -350 l-174 -171 -61 27 c-139 63
-333 77 -474 36 -12 -3 -31 14 -62 56 -81 108 -218 208 -352 255 -98 35 -262
43 -373 18 -139 -31 -280 -101 -458 -229 -41 -29 -79 -56 -86 -60 -6 -4 -32 6
-59 23 -123 79 -243 114 -387 114 -120 0 -200 -18 -310 -72 -146 -72 -266
-192 -345 -347 -25 -49 -37 -63 -49 -59 -190 74 -492 29 -718 -107 -80 -48
-195 -158 -249 -239 -63 -95 -139 -273 -165 -388 -12 -53 -37 -148 -56 -212
-82 -277 -55 -544 85 -824 96 -194 237 -342 408 -428 l51 -26 6 -113 c18 -345
199 -655 467 -801 107 -59 226 -89 355 -89 70 -1 136 5 180 16 94 22 238 94
301 150 l52 46 15 -23 c31 -47 145 -152 210 -195 85 -54 198 -96 304 -113 l81
-12 27 -68 c94 -240 325 -444 585 -519 96 -28 275 -37 405 -21 l96 13 64 -61
c185 -173 493 -268 746 -232 148 22 233 62 446 209 l192 132 78 -22 c65 -19
103 -23 233 -23 135 0 165 3 230 23 85 27 157 62 217 104 l41 30 91 -21 c50
-12 138 -24 196 -26 70 -3 134 -13 190 -30 204 -59 422 -39 670 61 80 32 95
35 145 29 104 -14 319 -6 450 15 140 24 322 81 429 134 l71 36 78 -45 c209
-121 379 -145 1033 -145 596 0 1047 -16 1594 -56 l220 -16 45 -43 c137 -130
299 -209 482 -236 108 -16 221 -7 402 31 181 38 339 89 511 165 113 50 136 57
180 54 109 -9 296 -1 405 16 76 12 177 19 300 20 200 2 291 12 470 52 91 20
130 24 185 19 82 -7 296 8 422 29 48 9 131 30 183 48 85 29 101 31 155 24 132
-18 307 13 440 79 54 26 83 34 125 34 151 0 398 71 607 175 l132 65 62 -40
c177 -114 430 -157 649 -109 107 24 99 23 201 13 86 -8 288 17 546 67 l152 30
57 -37 c227 -145 514 -180 754 -92 72 27 98 31 165 30 167 -4 314 37 537 149
43 22 82 39 87 39 5 0 28 -30 52 -66 126 -195 339 -336 565 -375 84 -14 302
-6 365 14 42 13 53 12 120 -5 106 -28 275 -28 392 0 262 64 457 221 611 490
l61 107 75 -32 c130 -55 191 -68 335 -67 203 0 281 28 530 186 83 52 164 103
181 113 l31 18 54 -43 c66 -52 182 -111 279 -142 64 -20 95 -23 215 -23 127 1
148 3 220 29 144 50 266 131 425 284 64 62 72 73 64 93 -5 13 -10 555 -11
1204 -3 1136 -3 1181 15 1215 11 19 36 48 56 65 l38 30 738 0 738 0 39 -31
c78 -64 78 -62 78 -394 0 -259 -2 -299 -17 -326 -20 -37 -83 -94 -103 -94 -22
0 -18 -13 9 -39 54 -51 56 -66 56 -377 0 -273 -1 -290 -21 -332 -13 -26 -38
-54 -62 -70 l-40 -27 -274 -3 c-261 -3 -273 -4 -273 -22 0 -18 13 -19 298 -22
l299 -3 41 -28 c70 -46 85 -88 90 -254 l4 -143 103 0 c224 0 447 100 626 280
233 235 410 550 507 898 24 88 27 114 27 267 0 138 -4 189 -22 270 -12 55 -24
129 -27 165 -27 303 -234 637 -495 798 -76 46 -86 56 -132 134 -249 417 -703
580 -1124 404 -61 -26 -100 -35 -166 -40 -153 -11 -331 -68 -475 -155 l-77
-46 -103 51 c-130 66 -239 95 -375 102 -108 5 -203 -6 -295 -35 l-50 -15 -91
36 c-50 20 -97 36 -105 36 -8 0 -43 31 -77 70 -110 123 -239 210 -387 259
-121 41 -260 57 -369 44z m-2650 -1337 c531 -88 862 -423 962 -971 25 -141 25
-558 0 -692 -91 -477 -342 -789 -745 -923 -303 -100 -712 -101 -1012 0 -331
111 -577 363 -694 713 -58 175 -71 278 -71 562 1 286 12 367 75 557 149 444
504 715 1008 768 115 12 364 4 477 -14z m-16371 -15 c89 -18 276 -73 356 -105
10 -4 23 6 37 28 12 18 41 43 65 55 44 21 47 21 936 21 727 0 899 -3 925 -14
43 -17 93 -76 106 -123 14 -50 14 -546 0 -596 -13 -47 -63 -106 -106 -123 -24
-10 -87 -14 -233 -14 l-200 0 -2 -814 -3 -814 -31 -39 c-65 -80 -56 -78 -444
-78 -190 0 -357 3 -372 8 -38 10 -98 65 -114 104 -11 26 -14 183 -14 833 l0
800 -200 0 c-217 0 -246 5 -296 55 -14 14 -27 25 -29 23 -1 -2 -10 -24 -20
-51 -18 -49 -68 -101 -112 -118 -50 -19 -111 -10 -215 32 -103 42 -229 82
-235 75 -2 -2 11 -9 29 -16 18 -8 87 -40 153 -73 307 -151 461 -303 530 -521
133 -419 -34 -840 -417 -1045 -178 -96 -360 -134 -633 -134 -281 1 -455 33
-669 121 -105 43 -159 90 -176 152 -7 27 -10 146 -8 348 3 302 3 308 26 345
58 93 165 112 292 51 154 -73 406 -145 507 -143 l38 0 -40 19 c-22 11 -105 51
-185 89 -462 220 -632 462 -617 879 5 160 20 222 82 348 115 235 351 390 685
450 121 21 467 13 604 -15z m3944 -12 c24 -12 53 -37 67 -58 32 -50 775 -2310
775 -2358 -1 -52 -31 -115 -71 -146 -59 -45 -98 -48 -481 -45 l-356 3 -43 30
c-59 42 -75 73 -118 237 l-37 143 -219 0 -218 0 -42 -152 c-46 -166 -69 -208
-132 -239 -35 -18 -65 -19 -418 -19 l-380 0 -45 27 c-57 33 -92 92 -93 156 0
35 87 317 352 1132 194 597 362 1113 373 1148 10 34 32 77 48 96 59 67 47 66
544 66 438 0 451 -1 494 -21z m5190 -11 c23 -16 48 -41 56 -57 8 -15 184 -541
391 -1169 264 -803 375 -1153 375 -1183 0 -57 -34 -115 -88 -154 l-44 -30
-356 -3 c-382 -3 -422 0 -480 45 -44 33 -56 61 -100 228 l-37 140 -219 0 -219
0 -41 -150 c-48 -171 -54 -185 -99 -219 -57 -44 -98 -47 -477 -44 -308 3 -359
5 -385 20 -34 18 -77 62 -94 95 -31 61 -24 84 360 1267 254 782 378 1151 395
1174 14 17 42 41 62 52 35 19 56 19 498 17 l460 -2 42 -27z m-3792 2 c56 -27
74 -57 190 -312 54 -120 102 -218 105 -218 3 0 52 100 109 223 109 237 135
279 190 308 32 18 64 19 413 19 356 0 380 -1 416 -20 46 -23 75 -57 92 -107
27 -82 25 -86 -359 -796 l-361 -668 -3 -442 -3 -442 -25 -43 c-15 -27 -42 -54
-70 -70 l-45 -27 -345 0 c-190 0 -357 3 -372 8 -35 9 -94 61 -114 98 -11 23
-14 102 -14 455 l0 427 -350 658 c-193 362 -360 679 -371 705 -41 93 -5 199
83 243 42 20 55 21 417 21 356 0 377 -1 417 -20z m6311 -16 c72 -58 73 -62 73
-399 0 -337 -1 -341 -73 -399 l-39 -31 -214 -3 -214 -3 0 -797 c0 -757 -1
-799 -19 -838 -23 -51 -71 -89 -131 -104 -31 -8 -151 -10 -370 -8 l-325 3 -45
27 c-28 16 -55 43 -70 70 l-25 43 -3 803 -3 802 -200 0 c-230 0 -257 7 -306
82 l-28 42 0 311 0 311 27 42 c16 23 45 50 65 61 37 20 57 20 950 18 l911 -2
39 -31z m1706 22 c43 -17 93 -76 106 -123 7 -23 11 -168 11 -365 l0 -328 160
0 160 0 0 345 c0 299 2 350 16 378 23 45 44 66 86 88 34 18 64 19 388 19 272
0 358 -3 383 -14 43 -18 94 -77 107 -125 7 -27 9 -403 8 -1188 l-3 -1148 -25
-43 c-15 -27 -42 -54 -70 -70 l-45 -27 -355 0 c-399 0 -389 -2 -454 78 l-31
39 -3 399 -3 399 -159 0 -159 0 -3 -387 -3 -388 -25 -43 c-15 -27 -42 -54 -70
-70 l-45 -27 -355 0 c-399 0 -389 -2 -454 78 l-31 39 -3 1179 c-2 1143 -2
1180 17 1217 21 41 42 62 86 85 26 14 81 16 383 17 274 0 360 -3 385 -14z
m5100 -2 c43 -22 66 -43 84 -78 8 -15 78 -243 154 -505 77 -262 142 -485 146
-496 3 -12 61 173 148 477 79 272 150 508 158 524 18 35 41 56 85 78 29 15 81
16 495 14 l464 -3 37 -29 c21 -15 46 -42 57 -60 18 -30 19 -67 19 -1209 0
-1009 -2 -1182 -14 -1206 -20 -37 -79 -89 -114 -98 -15 -5 -172 -8 -349 -8
l-321 0 -43 30 c-70 49 -83 81 -89 220 l-5 120 -37 -133 c-42 -149 -61 -182
-121 -215 -41 -21 -50 -22 -377 -22 -310 0 -338 1 -374 19 -59 30 -88 79 -127
217 l-34 124 -5 -122 c-5 -117 -6 -122 -36 -160 -64 -79 -59 -78 -419 -78
-282 0 -324 2 -351 17 -44 24 -92 82 -99 120 -3 18 -4 558 -3 1200 l3 1166 30
38 c62 76 45 74 553 74 398 0 457 -2 485 -16z"/>
<path d="M27355 7455 c-229 -43 -394 -124 -530 -260 -140 -139 -222 -309 -272
-560 -24 -125 -25 -480 0 -611 47 -258 142 -442 300 -590 178 -166 387 -240
702 -251 181 -6 294 4 425 37 491 125 742 539 717 1185 -18 474 -188 790 -510
949 -176 87 -272 107 -537 112 -161 2 -235 0 -295 -11z m457 -513 c77 -38 145
-107 182 -185 97 -206 100 -636 6 -845 -78 -171 -197 -238 -409 -230 -96 3
-113 6 -173 36 -161 79 -241 247 -255 537 -16 349 72 593 247 685 59 32 107
40 220 37 108 -2 120 -4 182 -35z"/>
<path d="M27522 6778 c-52 -17 -108 -86 -131 -163 -32 -102 -45 -270 -32 -402
26 -253 93 -343 257 -343 166 1 232 89 254 344 10 117 1 283 -21 372 -15 61
-50 133 -77 157 -47 43 -171 60 -250 35z"/>
<path d="M10985 7460 c-404 -63 -634 -296 -635 -642 0 -178 55 -329 162 -443
81 -87 164 -140 375 -241 279 -133 302 -145 348 -187 80 -69 84 -161 10 -226
-50 -43 -103 -56 -235 -54 -179 2 -406 57 -604 147 l-76 35 0 -265 0 -265 57
-25 c84 -37 193 -71 291 -91 129 -26 505 -25 617 1 307 71 513 251 581 506 22
86 23 262 1 347 -38 145 -127 263 -267 355 -41 28 -188 105 -325 172 -154 76
-264 136 -286 157 -91 85 -59 207 64 240 26 7 85 9 157 6 131 -6 246 -34 396
-96 52 -21 96 -35 99 -32 7 13 175 442 175 450 0 18 -252 102 -399 132 -110
23 -408 34 -506 19z"/>
<path d="M12082 7195 l-3 -245 276 0 275 0 0 -870 0 -870 300 0 300 0 0 870 0
870 270 0 270 0 0 245 0 245 -842 0 -843 0 -3 -245z"/>
<path d="M14587 7443 c-3 -5 -165 -502 -361 -1105 -196 -604 -359 -1104 -362
-1113 -5 -13 31 -15 323 -15 l330 0 42 158 c24 86 49 181 58 210 l14 52 364 0
363 0 11 -32 c5 -18 28 -105 51 -193 22 -88 43 -168 46 -177 5 -17 29 -18 330
-18 178 0 324 3 324 8 0 6 -478 1464 -691 2110 l-41 122 -398 0 c-219 0 -401
-3 -403 -7z m559 -978 c47 -181 88 -333 91 -337 2 -5 -104 -8 -236 -8 -159 0
-241 4 -241 10 0 6 34 140 75 298 41 158 90 359 110 447 19 88 38 171 41 185
4 18 16 -17 40 -120 19 -80 73 -293 120 -475z"/>
<path d="M19755 7438 c-3 -7 -167 -510 -364 -1118 l-359 -1105 326 -3 c179 -1
326 -1 328 1 3 2 57 201 104 375 l11 42 366 -2 366 -3 34 -130 c19 -71 43
-165 55 -207 l20 -78 324 0 c193 0 324 4 324 9 0 8 -417 1282 -651 1989 l-81
242 -399 0 c-311 0 -401 -3 -404 -12z m564 -981 l87 -332 -234 -3 c-129 -1
-237 0 -240 2 -2 3 28 128 67 278 73 281 120 478 141 583 6 33 14 69 17 80 4
12 20 -40 40 -128 19 -81 74 -297 122 -480z"/>
<path d="M16140 7435 c0 -3 164 -313 365 -690 l365 -685 0 -425 0 -425 300 0
300 0 0 433 0 432 361 668 c198 368 363 675 366 683 4 12 -42 14 -317 14
l-321 0 -45 -97 c-243 -524 -338 -723 -344 -723 -3 0 -91 185 -195 410 l-189
410 -323 0 c-178 0 -323 -2 -323 -5z"/>
<path d="M21380 7195 l0 -245 275 0 275 0 0 -870 0 -870 300 0 300 0 0 870 0
870 270 0 270 0 0 245 0 245 -845 0 -845 0 0 -245z"/>
<path d="M24210 6325 l0 -1115 300 0 300 0 0 455 0 455 355 0 355 0 0 -455 0
-455 300 0 300 0 0 1115 0 1115 -300 0 -300 0 0 -415 0 -415 -355 0 -355 0 0
415 0 415 -300 0 -300 0 0 -1115z"/>
<path d="M29110 6325 l0 -1115 265 0 265 0 0 553 c0 496 -5 691 -26 970 -4 52
-3 87 3 87 7 0 397 -1350 460 -1590 5 -19 14 -20 292 -20 l286 0 224 798 c123
438 228 802 233 807 7 7 8 -31 4 -110 -3 -66 -9 -429 -12 -807 l-6 -688 276 0
276 0 0 1115 0 1115 -400 0 -399 0 -11 -37 c-6 -21 -109 -377 -228 -791 -119
-415 -221 -754 -227 -755 -5 -1 -110 338 -232 753 -122 415 -227 772 -233 793
l-11 37 -399 0 -400 0 0 -1115z"/>
<path d="M32140 6325 l0 -1115 123 0 c116 0 124 2 170 29 l49 28 81 -28 c77
-27 91 -29 251 -29 161 0 172 1 260 31 50 16 110 41 133 54 23 13 61 26 85 30
24 4 71 16 106 27 l62 19 0 164 0 165 -360 0 -360 0 0 210 0 210 335 0 335 0
0 240 0 240 -335 0 -335 0 0 180 0 180 360 0 360 0 0 240 0 240 -660 0 -660 0
0 -1115z"/>
</g>
</svg>
